<?xml version="1.0" encoding="utf-8"?>
<!-- Generator: Adobe Illustrator 20.0.0, SVG Export Plug-In . SVG Version: 6.00 Build 0)  -->
<svg version="1.1" id="Warstwa_1" xmlns="http://www.w3.org/2000/svg" xmlns:xlink="http://www.w3.org/1999/xlink" x="0px" y="0px"
	 viewBox="0 0 452 183.7" style="enable-background:new 0 0 452 183.7;" xml:space="preserve">
<style type="text/css">
	.st0{fill:#DCCBD6;}
</style>
<g>
	<g>
		<path class="st0" d="M137.1,84.3c-0.2-0.2-0.5-0.3-0.7-0.1c-0.2,0.2-0.3,0.5-0.1,0.7c0.4,0.6,0.7,1.1,1.1,1.7
			c0.1,0.1,0.3,0.2,0.4,0.2c0.1,0,0.2,0,0.3-0.1c0.2-0.2,0.3-0.5,0.1-0.7C137.8,85.4,137.5,84.9,137.1,84.3z"/>
		<path class="st0" d="M135,81c-0.1-0.2-0.5-0.3-0.7-0.2c-0.2,0.1-0.3,0.5-0.2,0.7c0.4,0.6,0.7,1.1,1.1,1.7c0.1,0.1,0.3,0.2,0.4,0.2
			c0.1,0,0.2,0,0.3-0.1c0.2-0.1,0.3-0.5,0.2-0.7C135.7,82.1,135.3,81.5,135,81z"/>
		<path class="st0" d="M132.9,77.6c-0.1-0.2-0.5-0.3-0.7-0.2c-0.2,0.1-0.3,0.5-0.2,0.7l1,1.7c0.1,0.2,0.3,0.2,0.4,0.2
			c0.1,0,0.2,0,0.3-0.1c0.2-0.1,0.3-0.5,0.2-0.7L132.9,77.6z"/>
		<path class="st0" d="M141.6,90.9c-0.2-0.2-0.5-0.3-0.7-0.1c-0.2,0.2-0.3,0.5-0.1,0.7c0.4,0.5,0.8,1.1,1.2,1.6
			c0.1,0.1,0.3,0.2,0.4,0.2c0.1,0,0.2,0,0.3-0.1c0.2-0.2,0.3-0.5,0.1-0.7C142.3,92,141.9,91.5,141.6,90.9z"/>
		<path class="st0" d="M143.9,94.2c-0.2-0.2-0.5-0.3-0.7-0.1c-0.2,0.2-0.3,0.5-0.1,0.7c0.4,0.5,0.8,1.1,1.2,1.6
			c0.1,0.1,0.2,0.2,0.4,0.2c0.1,0,0.2,0,0.3-0.1c0.2-0.2,0.3-0.5,0.1-0.7C144.7,95.3,144.3,94.7,143.9,94.2z"/>
		<path class="st0" d="M146.3,97.4c-0.2-0.2-0.5-0.3-0.7-0.1c-0.2,0.2-0.3,0.5-0.1,0.7c0.4,0.5,0.8,1.1,1.2,1.6
			c0.1,0.1,0.2,0.2,0.4,0.2c0.1,0,0.2,0,0.3-0.1c0.2-0.2,0.3-0.5,0.1-0.7C147.1,98.4,146.7,97.9,146.3,97.4z"/>
		<path class="st0" d="M139.3,87.7c-0.2-0.2-0.5-0.3-0.7-0.1c-0.2,0.2-0.3,0.5-0.1,0.7c0.4,0.6,0.8,1.1,1.1,1.7
			c0.1,0.1,0.3,0.2,0.4,0.2c0.1,0,0.2,0,0.3-0.1c0.2-0.2,0.3-0.5,0.1-0.7C140.1,88.8,139.7,88.2,139.3,87.7z"/>
		<path class="st0" d="M114.3,51.4c-0.2-0.2-0.5-0.2-0.7-0.1c-0.2,0.2-0.2,0.5-0.1,0.7c0.4,0.5,0.8,1,1.3,1.5
			c0.1,0.1,0.2,0.2,0.4,0.2c0.1,0,0.2,0,0.3-0.1c0.2-0.2,0.2-0.5,0.1-0.7C115.1,52.5,114.7,52,114.3,51.4z"/>
		<path class="st0" d="M130.7,74.2c-0.1-0.2-0.5-0.3-0.7-0.2c-0.2,0.1-0.3,0.5-0.2,0.7c0.4,0.6,0.7,1.1,1.1,1.7
			c0.1,0.2,0.3,0.2,0.4,0.2c0.1,0,0.2,0,0.3-0.1c0.2-0.1,0.3-0.5,0.2-0.7C131.5,75.3,131.1,74.7,130.7,74.2z"/>
		<path class="st0" d="M119.3,57.7c-0.2-0.2-0.5-0.3-0.7-0.1c-0.2,0.2-0.3,0.5-0.1,0.7c0.4,0.5,0.8,1.1,1.2,1.6
			c0.1,0.1,0.2,0.2,0.4,0.2c0.1,0,0.2,0,0.3-0.1c0.2-0.2,0.3-0.5,0.1-0.7C120.1,58.8,119.7,58.2,119.3,57.7z"/>
		<path class="st0" d="M116.8,54.6c-0.2-0.2-0.5-0.3-0.7-0.1c-0.2,0.2-0.3,0.5-0.1,0.7c0.4,0.5,0.8,1,1.2,1.6
			c0.1,0.1,0.2,0.2,0.4,0.2c0.1,0,0.2,0,0.3-0.1c0.2-0.2,0.3-0.5,0.1-0.7C117.6,55.6,117.2,55.1,116.8,54.6z"/>
		<path class="st0" d="M121.7,60.9c-0.2-0.2-0.5-0.3-0.7-0.1c-0.2,0.2-0.3,0.5-0.1,0.7c0.4,0.5,0.8,1.1,1.2,1.6
			c0.1,0.1,0.3,0.2,0.4,0.2c0.1,0,0.2,0,0.3-0.1c0.2-0.2,0.3-0.5,0.1-0.7C122.5,62,122.1,61.5,121.7,60.9z"/>
		<path class="st0" d="M124,64.2c-0.2-0.2-0.5-0.3-0.7-0.1c-0.2,0.2-0.3,0.5-0.1,0.7c0.4,0.5,0.8,1.1,1.1,1.6
			c0.1,0.1,0.3,0.2,0.4,0.2c0.1,0,0.2,0,0.3-0.1c0.2-0.2,0.3-0.5,0.1-0.7C124.8,65.3,124.4,64.7,124,64.2z"/>
		<path class="st0" d="M148.7,100.5c-0.2-0.2-0.5-0.3-0.7-0.1c-0.2,0.2-0.3,0.5-0.1,0.7c0.4,0.5,0.8,1,1.2,1.6
			c0.1,0.1,0.2,0.2,0.4,0.2c0.1,0,0.2,0,0.3-0.1c0.2-0.2,0.2-0.5,0.1-0.7C149.5,101.6,149.1,101.1,148.7,100.5z"/>
		<path class="st0" d="M126.3,67.5c-0.2-0.2-0.5-0.3-0.7-0.1c-0.2,0.2-0.3,0.5-0.1,0.7c0.4,0.5,0.7,1.1,1.1,1.7
			c0.1,0.1,0.3,0.2,0.4,0.2c0.1,0,0.2,0,0.3-0.1c0.2-0.2,0.3-0.5,0.1-0.7C127.1,68.6,126.7,68,126.3,67.5z"/>
		<path class="st0" d="M128.6,70.8c-0.2-0.2-0.5-0.3-0.7-0.1c-0.2,0.2-0.3,0.5-0.1,0.7c0.4,0.6,0.7,1.1,1.1,1.7
			c0.1,0.1,0.3,0.2,0.4,0.2c0.1,0,0.2,0,0.3-0.1c0.2-0.1,0.3-0.5,0.1-0.7C129.3,71.9,128.9,71.3,128.6,70.8z"/>
		<path class="st0" d="M179.4,131.8c-0.2-0.2-0.5-0.1-0.7,0.1c-0.2,0.2-0.1,0.5,0.1,0.7c0.5,0.4,1,0.8,1.6,1.3
			c0.1,0.1,0.2,0.1,0.3,0.1c0.1,0,0.3-0.1,0.4-0.2c0.2-0.2,0.1-0.5-0.1-0.7C180.4,132.7,179.9,132.2,179.4,131.8z"/>
		<path class="st0" d="M176.3,129.3c-0.2-0.2-0.5-0.2-0.7,0.1c-0.2,0.2-0.2,0.5,0.1,0.7c0.5,0.4,1,0.9,1.5,1.3
			c0.1,0.1,0.2,0.1,0.3,0.1c0.1,0,0.3-0.1,0.4-0.2c0.2-0.2,0.1-0.5-0.1-0.7C177.3,130.1,176.8,129.7,176.3,129.3z"/>
		<path class="st0" d="M170.3,124c-0.2-0.2-0.5-0.2-0.7,0c-0.2,0.2-0.2,0.5,0,0.7c0.5,0.5,1,0.9,1.5,1.4c0.1,0.1,0.2,0.1,0.3,0.1
			c0.1,0,0.3-0.1,0.4-0.2c0.2-0.2,0.2-0.5,0-0.7C171.3,124.9,170.8,124.4,170.3,124z"/>
		<path class="st0" d="M173.3,126.7c-0.2-0.2-0.5-0.2-0.7,0c-0.2,0.2-0.2,0.5,0,0.7c0.5,0.4,1,0.9,1.5,1.3c0.1,0.1,0.2,0.1,0.3,0.1
			c0.1,0,0.3-0.1,0.4-0.2c0.2-0.2,0.2-0.5,0-0.7C174.3,127.5,173.8,127.1,173.3,126.7z"/>
		<path class="st0" d="M188.9,139.1c-0.2-0.2-0.5-0.1-0.7,0.1c-0.2,0.2-0.1,0.5,0.1,0.7c0.5,0.4,1.1,0.8,1.6,1.2
			c0.1,0.1,0.2,0.1,0.3,0.1c0.2,0,0.3-0.1,0.4-0.2c0.2-0.2,0.1-0.5-0.1-0.7C190,139.9,189.4,139.5,188.9,139.1z"/>
		<path class="st0" d="M185.7,136.7c-0.2-0.2-0.5-0.1-0.7,0.1c-0.2,0.2-0.1,0.5,0.1,0.7c0.5,0.4,1.1,0.8,1.6,1.2
			c0.1,0.1,0.2,0.1,0.3,0.1c0.2,0,0.3-0.1,0.4-0.2c0.2-0.2,0.1-0.5-0.1-0.7C186.7,137.5,186.2,137.1,185.7,136.7z"/>
		<path class="st0" d="M182.5,134.3c-0.2-0.2-0.5-0.1-0.7,0.1c-0.2,0.2-0.1,0.5,0.1,0.7c0.5,0.4,1.1,0.8,1.6,1.2
			c0.1,0.1,0.2,0.1,0.3,0.1c0.2,0,0.3-0.1,0.4-0.2c0.2-0.2,0.1-0.5-0.1-0.7C183.5,135.1,183,134.7,182.5,134.3z"/>
		<path class="st0" d="M156.4,109.7c-0.2-0.2-0.5-0.2-0.7,0c-0.2,0.2-0.2,0.5,0,0.7c0.4,0.5,0.9,1,1.3,1.5c0.1,0.1,0.2,0.2,0.4,0.2
			c0.1,0,0.2,0,0.3-0.1c0.2-0.2,0.2-0.5,0-0.7C157.3,110.7,156.8,110.2,156.4,109.7z"/>
		<path class="st0" d="M151.2,103.7c-0.2-0.2-0.5-0.2-0.7-0.1c-0.2,0.2-0.2,0.5-0.1,0.7c0.4,0.5,0.8,1,1.3,1.5
			c0.1,0.1,0.2,0.2,0.4,0.2c0.1,0,0.2,0,0.3-0.1c0.2-0.2,0.2-0.5,0.1-0.7C152.1,104.7,151.6,104.2,151.2,103.7z"/>
		<path class="st0" d="M159.1,112.7c-0.2-0.2-0.5-0.2-0.7,0c-0.2,0.2-0.2,0.5,0,0.7c0.5,0.5,0.9,1,1.4,1.5c0.1,0.1,0.2,0.2,0.4,0.2
			c0.1,0,0.2,0,0.3-0.1c0.2-0.2,0.2-0.5,0-0.7C160,113.7,159.5,113.2,159.1,112.7z"/>
		<path class="st0" d="M153.8,106.7c-0.2-0.2-0.5-0.2-0.7-0.1c-0.2,0.2-0.2,0.5-0.1,0.7c0.4,0.5,0.9,1,1.3,1.5
			c0.1,0.1,0.2,0.2,0.4,0.2c0.1,0,0.2,0,0.3-0.1c0.2-0.2,0.2-0.5,0-0.7C154.6,107.7,154.2,107.2,153.8,106.7z"/>
		<path class="st0" d="M167.4,121.2c-0.2-0.2-0.5-0.2-0.7,0c-0.2,0.2-0.2,0.5,0,0.7c0.5,0.5,1,0.9,1.5,1.4c0.1,0.1,0.2,0.1,0.3,0.1
			c0.1,0,0.3-0.1,0.4-0.2c0.2-0.2,0.2-0.5,0-0.7C168.4,122.2,167.9,121.7,167.4,121.2z"/>
		<path class="st0" d="M161.8,115.6c-0.2-0.2-0.5-0.2-0.7,0c-0.2,0.2-0.2,0.5,0,0.7c0.5,0.5,0.9,1,1.4,1.4c0.1,0.1,0.2,0.2,0.4,0.2
			c0.1,0,0.3,0,0.3-0.1c0.2-0.2,0.2-0.5,0-0.7C162.7,116.5,162.3,116.1,161.8,115.6z"/>
		<path class="st0" d="M164.6,118.4c-0.2-0.2-0.5-0.2-0.7,0c-0.2,0.2-0.2,0.5,0,0.7c0.5,0.5,0.9,0.9,1.4,1.4
			c0.1,0.1,0.2,0.1,0.4,0.1c0.1,0,0.3,0,0.4-0.1c0.2-0.2,0.2-0.5,0-0.7C165.5,119.4,165.1,118.9,164.6,118.4z"/>
		<path class="st0" d="M22.3,8.7c-0.7,0.1-1.3,0.2-2,0.4c-0.3,0.1-0.4,0.3-0.4,0.6c0,0.2,0.3,0.4,0.5,0.4c0,0,0.1,0,0.1,0
			c0.6-0.1,1.3-0.3,2-0.4c0.3,0,0.5-0.3,0.4-0.6S22.5,8.6,22.3,8.7z"/>
		<path class="st0" d="M42.3,7.9c-0.7-0.1-1.3-0.1-2-0.2c-0.2,0-0.5,0.2-0.5,0.5c0,0.3,0.2,0.5,0.5,0.5c0.7,0,1.3,0.1,2,0.2
			c0,0,0,0,0,0c0.3,0,0.5-0.2,0.5-0.5C42.8,8.1,42.6,7.9,42.3,7.9z"/>
		<path class="st0" d="M38.3,7.6c-0.7,0-1.4,0-2-0.1c0,0,0,0,0,0c-0.3,0-0.5,0.2-0.5,0.5c0,0.3,0.2,0.5,0.5,0.5c0.7,0,1.3,0,2,0.1
			c0,0,0,0,0,0c0.3,0,0.5-0.2,0.5-0.5C38.8,7.8,38.6,7.6,38.3,7.6z"/>
		<path class="st0" d="M46.3,8.3c-0.7-0.1-1.3-0.2-2-0.3c-0.3,0-0.5,0.2-0.6,0.4c0,0.3,0.2,0.5,0.4,0.6c0.7,0.1,1.3,0.2,2,0.3
			c0,0,0,0,0.1,0c0.2,0,0.5-0.2,0.5-0.4C46.8,8.6,46.6,8.4,46.3,8.3z"/>
		<path class="st0" d="M34.3,7.6C34.3,7.6,34.3,7.6,34.3,7.6c-0.7,0-1.4,0-2,0.1c-0.3,0-0.5,0.2-0.5,0.5c0,0.3,0.2,0.5,0.5,0.5
			c0,0,0,0,0,0c0.7,0,1.3,0,2-0.1c0.3,0,0.5-0.2,0.5-0.5C34.8,7.8,34.6,7.6,34.3,7.6z"/>
		<path class="st0" d="M50.3,9c-0.7-0.1-1.3-0.3-2-0.4c-0.3,0-0.5,0.1-0.6,0.4c0,0.3,0.1,0.5,0.4,0.6c0.6,0.1,1.3,0.2,2,0.4
			c0,0,0.1,0,0.1,0c0.2,0,0.4-0.2,0.5-0.4C50.7,9.3,50.6,9.1,50.3,9z"/>
		<path class="st0" d="M58.1,10.9c-0.6-0.2-1.3-0.4-1.9-0.6c-0.3-0.1-0.5,0.1-0.6,0.4c-0.1,0.3,0.1,0.5,0.4,0.6
			c0.6,0.2,1.3,0.4,1.9,0.5c0,0,0.1,0,0.1,0c0.2,0,0.4-0.1,0.5-0.4C58.5,11.3,58.4,11,58.1,10.9z"/>
		<path class="st0" d="M54.2,9.9c-0.7-0.2-1.3-0.3-2-0.5c-0.3-0.1-0.5,0.1-0.6,0.4c-0.1,0.3,0.1,0.5,0.4,0.6
			c0.6,0.1,1.3,0.3,1.9,0.5c0,0,0.1,0,0.1,0c0.2,0,0.4-0.2,0.5-0.4C54.7,10.2,54.5,9.9,54.2,9.9z"/>
		<path class="st0" d="M6.9,13.3C5.7,13.9,5,14.2,5,14.2c-0.2,0.1-0.3,0.4-0.2,0.7c0.1,0.2,0.3,0.3,0.4,0.3c0.1,0,0.2,0,0.2-0.1
			c0,0,0.6-0.3,1.8-0.9c0.3-0.1,0.4-0.4,0.2-0.7C7.4,13.3,7.1,13.2,6.9,13.3z"/>
		<path class="st0" d="M10.6,11.8c-0.7,0.3-1.3,0.5-1.9,0.7c-0.3,0.1-0.4,0.4-0.3,0.7c0.1,0.2,0.3,0.3,0.5,0.3c0.1,0,0.1,0,0.2,0
			c0.6-0.2,1.2-0.5,1.8-0.7c0.3-0.1,0.4-0.4,0.3-0.6C11.1,11.8,10.9,11.7,10.6,11.8z"/>
		<path class="st0" d="M61.9,12.2c-0.6-0.2-1.3-0.4-1.9-0.6c-0.3-0.1-0.5,0.1-0.6,0.3c-0.1,0.3,0.1,0.5,0.3,0.6
			c0.6,0.2,1.3,0.4,1.9,0.6c0.1,0,0.1,0,0.2,0c0.2,0,0.4-0.1,0.5-0.3C62.3,12.6,62.2,12.3,61.9,12.2z"/>
		<path class="st0" d="M111.7,48.4c-0.2-0.2-0.5-0.2-0.7-0.1c-0.2,0.2-0.2,0.5-0.1,0.7c0.4,0.5,0.9,1,1.3,1.5
			c0.1,0.1,0.2,0.2,0.4,0.2c0.1,0,0.2,0,0.3-0.1c0.2-0.2,0.2-0.5,0.1-0.7C112.6,49.4,112.1,48.9,111.7,48.4z"/>
		<path class="st0" d="M30.3,7.7c-0.7,0-1.4,0.1-2,0.2c-0.3,0-0.5,0.3-0.5,0.5c0,0.3,0.2,0.5,0.5,0.5c0,0,0,0,0,0
			c0.6-0.1,1.3-0.1,2-0.2c0.3,0,0.5-0.3,0.5-0.5C30.8,7.9,30.5,7.7,30.3,7.7z"/>
		<path class="st0" d="M18.3,9.5c-0.7,0.2-1.3,0.3-2,0.5c-0.3,0.1-0.4,0.3-0.4,0.6c0.1,0.2,0.3,0.4,0.5,0.4c0,0,0.1,0,0.1,0
			c0.6-0.2,1.3-0.3,1.9-0.5c0.3-0.1,0.4-0.3,0.4-0.6C18.9,9.6,18.6,9.4,18.3,9.5z"/>
		<path class="st0" d="M26.3,8.1c-0.7,0.1-1.3,0.2-2,0.3c-0.3,0-0.5,0.3-0.4,0.6c0,0.2,0.3,0.4,0.5,0.4c0,0,0,0,0.1,0
			c0.6-0.1,1.3-0.2,2-0.3c0.3,0,0.5-0.3,0.4-0.6C26.8,8.3,26.5,8.1,26.3,8.1z"/>
		<path class="st0" d="M192.2,141.4c-0.2-0.2-0.5-0.1-0.7,0.1c-0.2,0.2-0.1,0.5,0.1,0.7c0.6,0.4,1.1,0.8,1.7,1.1
			c0.1,0.1,0.2,0.1,0.3,0.1c0.2,0,0.3-0.1,0.4-0.2c0.2-0.2,0.1-0.5-0.1-0.7C193.3,142.1,192.7,141.8,192.2,141.4z"/>
		<path class="st0" d="M14.4,10.5c-0.7,0.2-1.3,0.4-1.9,0.6c-0.3,0.1-0.4,0.4-0.3,0.6c0.1,0.2,0.3,0.3,0.5,0.3c0.1,0,0.1,0,0.2,0
			c0.6-0.2,1.2-0.4,1.9-0.6c0.3-0.1,0.4-0.4,0.3-0.6S14.7,10.5,14.4,10.5z"/>
		<path class="st0" d="M100.6,36.8c-0.2-0.2-0.5-0.2-0.7,0c-0.2,0.2-0.2,0.5,0,0.7c0.5,0.5,1,0.9,1.4,1.4c0.1,0.1,0.2,0.1,0.3,0.1
			c0.1,0,0.3-0.1,0.4-0.2c0.2-0.2,0.2-0.5,0-0.7C101.6,37.7,101.1,37.2,100.6,36.8z"/>
		<path class="st0" d="M91.5,28.9c-0.2-0.2-0.5-0.1-0.7,0.1c-0.2,0.2-0.1,0.5,0.1,0.7c0.5,0.4,1,0.8,1.6,1.2
			c0.1,0.1,0.2,0.1,0.3,0.1c0.1,0,0.3-0.1,0.4-0.2c0.2-0.2,0.1-0.5-0.1-0.7C92.6,29.7,92.1,29.3,91.5,28.9z"/>
		<path class="st0" d="M94.6,31.4c-0.2-0.2-0.5-0.2-0.7,0.1c-0.2,0.2-0.2,0.5,0.1,0.7c0.5,0.4,1,0.9,1.5,1.3
			c0.1,0.1,0.2,0.1,0.3,0.1c0.1,0,0.3-0.1,0.4-0.2c0.2-0.2,0.2-0.5,0-0.7C95.7,32.3,95.1,31.9,94.6,31.4z"/>
		<path class="st0" d="M97.7,34.1c-0.2-0.2-0.5-0.2-0.7,0c-0.2,0.2-0.2,0.5,0,0.7c0.5,0.4,1,0.9,1.5,1.3c0.1,0.1,0.2,0.1,0.3,0.1
			c0.1,0,0.3-0.1,0.4-0.2c0.2-0.2,0.2-0.5,0-0.7C98.7,35,98.2,34.5,97.7,34.1z"/>
		<path class="st0" d="M109,45.4c-0.2-0.2-0.5-0.2-0.7,0c-0.2,0.2-0.2,0.5,0,0.7c0.4,0.5,0.9,1,1.3,1.5c0.1,0.1,0.2,0.2,0.4,0.2
			c0.1,0,0.2,0,0.3-0.1c0.2-0.2,0.2-0.5,0-0.7C109.9,46.4,109.5,45.9,109,45.4z"/>
		<path class="st0" d="M106.3,42.5c-0.2-0.2-0.5-0.2-0.7,0c-0.2,0.2-0.2,0.5,0,0.7c0.5,0.5,0.9,1,1.4,1.5c0.1,0.1,0.2,0.2,0.4,0.2
			c0.1,0,0.2,0,0.3-0.1c0.2-0.2,0.2-0.5,0-0.7C107.2,43.4,106.8,42.9,106.3,42.5z"/>
		<path class="st0" d="M103.5,39.6c-0.2-0.2-0.5-0.2-0.7,0c-0.2,0.2-0.2,0.5,0,0.7c0.5,0.5,0.9,0.9,1.4,1.4c0.1,0.1,0.2,0.2,0.4,0.2
			c0.1,0,0.3,0,0.3-0.1c0.2-0.2,0.2-0.5,0-0.7C104.4,40.5,104,40.1,103.5,39.6z"/>
		<path class="st0" d="M73,16.9c-0.6-0.3-1.2-0.6-1.8-0.9c-0.2-0.1-0.5,0-0.7,0.2c-0.1,0.2,0,0.5,0.2,0.7c0.6,0.3,1.2,0.6,1.8,0.9
			c0.1,0,0.2,0.1,0.2,0.1c0.2,0,0.4-0.1,0.4-0.3C73.3,17.4,73.3,17.1,73,16.9z"/>
		<path class="st0" d="M65.7,13.6c-0.6-0.3-1.3-0.5-1.9-0.7c-0.3-0.1-0.5,0-0.6,0.3c-0.1,0.3,0,0.5,0.3,0.6c0.6,0.2,1.2,0.5,1.9,0.7
			c0.1,0,0.1,0,0.2,0c0.2,0,0.4-0.1,0.5-0.3C66.1,14,65.9,13.7,65.7,13.6z"/>
		<path class="st0" d="M76.6,18.8c-0.6-0.3-1.2-0.7-1.8-1c-0.2-0.1-0.5,0-0.7,0.2c-0.1,0.2,0,0.5,0.2,0.7c0.6,0.3,1.2,0.6,1.7,1
			c0.1,0,0.2,0.1,0.2,0.1c0.2,0,0.3-0.1,0.4-0.3C76.9,19.3,76.8,19,76.6,18.8z"/>
		<path class="st0" d="M69.4,15.2c-0.6-0.3-1.2-0.6-1.8-0.8c-0.3-0.1-0.5,0-0.7,0.3c-0.1,0.3,0,0.5,0.3,0.7c0.6,0.3,1.2,0.5,1.8,0.8
			c0.1,0,0.1,0,0.2,0c0.2,0,0.4-0.1,0.5-0.3C69.7,15.6,69.6,15.3,69.4,15.2z"/>
		<path class="st0" d="M85.1,24.1c-0.2-0.2-0.5-0.1-0.7,0.1c-0.2,0.2-0.1,0.5,0.1,0.7c0.5,0.4,1.1,0.8,1.6,1.1
			c0.1,0.1,0.2,0.1,0.3,0.1c0.2,0,0.3-0.1,0.4-0.2c0.2-0.2,0.1-0.5-0.1-0.7C86.2,24.9,85.6,24.5,85.1,24.1z"/>
		<path class="st0" d="M88.3,26.5c-0.2-0.2-0.5-0.1-0.7,0.1c-0.2,0.2-0.1,0.5,0.1,0.7c0.5,0.4,1.1,0.8,1.6,1.2
			c0.1,0.1,0.2,0.1,0.3,0.1c0.2,0,0.3-0.1,0.4-0.2c0.2-0.2,0.1-0.5-0.1-0.7C89.4,27.3,88.9,26.9,88.3,26.5z"/>
		<path class="st0" d="M83.4,23c-0.6-0.4-1.1-0.7-1.7-1.1c-0.2-0.1-0.5-0.1-0.7,0.2c-0.1,0.2-0.1,0.5,0.2,0.7
			c0.6,0.4,1.1,0.7,1.7,1.1c0.1,0.1,0.2,0.1,0.3,0.1c0.2,0,0.3-0.1,0.4-0.2C83.7,23.5,83.6,23.2,83.4,23z"/>
		<path class="st0" d="M80,20.8c-0.6-0.4-1.2-0.7-1.7-1c-0.2-0.1-0.5-0.1-0.7,0.2c-0.1,0.2-0.1,0.5,0.2,0.7c0.6,0.3,1.1,0.7,1.7,1
			c0.1,0,0.2,0.1,0.3,0.1c0.2,0,0.3-0.1,0.4-0.2C80.3,21.3,80.3,21,80,20.8z"/>
		<path class="st0" d="M222,157.7c-0.6-0.3-1.2-0.5-1.8-0.8c-0.3-0.1-0.5,0-0.7,0.3s0,0.5,0.3,0.7c0.6,0.3,1.2,0.5,1.8,0.8
			c0.1,0,0.1,0,0.2,0c0.2,0,0.4-0.1,0.5-0.3C222.3,158.1,222.2,157.8,222,157.7z"/>
		<path class="st0" d="M356.5,150.6c-0.6,0.3-1.2,0.6-1.8,0.9c-0.2,0.1-0.3,0.4-0.2,0.7c0.1,0.2,0.3,0.3,0.4,0.3
			c0.1,0,0.2,0,0.2-0.1c0.6-0.3,1.2-0.6,1.8-0.9c0.2-0.1,0.3-0.4,0.2-0.7C357,150.5,356.7,150.5,356.5,150.6z"/>
		<path class="st0" d="M359.9,148.6c-0.6,0.3-1.2,0.7-1.7,1c-0.2,0.1-0.3,0.4-0.2,0.7c0.1,0.2,0.3,0.3,0.4,0.3c0.1,0,0.2,0,0.2-0.1
			c0.6-0.3,1.2-0.7,1.7-1c0.2-0.1,0.3-0.4,0.2-0.7C360.5,148.6,360.2,148.5,359.9,148.6z"/>
		<path class="st0" d="M349.4,154.2c-0.6,0.3-1.2,0.6-1.8,0.9c-0.3,0.1-0.4,0.4-0.2,0.7c0.1,0.2,0.3,0.3,0.5,0.3c0.1,0,0.1,0,0.2,0
			c0.6-0.3,1.2-0.6,1.8-0.9c0.2-0.1,0.4-0.4,0.2-0.7C349.9,154.2,349.6,154.1,349.4,154.2z"/>
		<path class="st0" d="M352.9,152.5c-0.6,0.3-1.2,0.6-1.8,0.9c-0.2,0.1-0.3,0.4-0.2,0.7c0.1,0.2,0.3,0.3,0.4,0.3
			c0.1,0,0.2,0,0.2-0.1c0.6-0.3,1.2-0.6,1.8-0.9c0.2-0.1,0.3-0.4,0.2-0.7C353.5,152.4,353.2,152.3,352.9,152.5z"/>
		<path class="st0" d="M370.1,142.4c-0.6,0.4-1.1,0.7-1.7,1.1c-0.2,0.2-0.3,0.5-0.1,0.7c0.1,0.1,0.3,0.2,0.4,0.2
			c0.1,0,0.2,0,0.3-0.1c0.6-0.4,1.1-0.7,1.7-1.1c0.2-0.2,0.3-0.5,0.1-0.7C370.7,142.3,370.3,142.2,370.1,142.4z"/>
		<path class="st0" d="M366.8,144.5c-0.6,0.4-1.1,0.7-1.7,1.1c-0.2,0.1-0.3,0.5-0.2,0.7c0.1,0.2,0.3,0.2,0.4,0.2
			c0.1,0,0.2,0,0.3-0.1c0.6-0.4,1.1-0.7,1.7-1.1c0.2-0.1,0.3-0.5,0.2-0.7C367.3,144.4,367,144.4,366.8,144.5z"/>
		<path class="st0" d="M363.4,146.6c-0.6,0.3-1.1,0.7-1.7,1c-0.2,0.1-0.3,0.4-0.2,0.7c0.1,0.2,0.3,0.2,0.4,0.2c0.1,0,0.2,0,0.3-0.1
			c0.6-0.3,1.1-0.7,1.7-1c0.2-0.1,0.3-0.4,0.2-0.7C363.9,146.6,363.6,146.5,363.4,146.6z"/>
		<path class="st0" d="M345.8,155.9c-0.6,0.3-1.2,0.5-1.8,0.8c-0.3,0.1-0.4,0.4-0.3,0.7c0.1,0.2,0.3,0.3,0.5,0.3c0.1,0,0.1,0,0.2,0
			c0.6-0.3,1.2-0.5,1.8-0.8c0.3-0.1,0.4-0.4,0.2-0.7C346.3,155.9,346,155.8,345.8,155.9z"/>
		<path class="st0" d="M327.2,163.1c-0.6,0.2-1.3,0.4-1.9,0.6c-0.3,0.1-0.4,0.4-0.3,0.6c0.1,0.2,0.3,0.4,0.5,0.4c0,0,0.1,0,0.1,0
			c0.6-0.2,1.3-0.4,1.9-0.6c0.3-0.1,0.4-0.4,0.3-0.6C327.7,163.2,327.4,163,327.2,163.1z"/>
		<path class="st0" d="M373.4,140.1c-0.5,0.4-1.1,0.8-1.6,1.1c-0.2,0.2-0.3,0.5-0.1,0.7c0.1,0.1,0.3,0.2,0.4,0.2
			c0.1,0,0.2,0,0.3-0.1c0.6-0.4,1.1-0.8,1.7-1.1c0.2-0.2,0.3-0.5,0.1-0.7C373.9,140,373.6,140,373.4,140.1z"/>
		<path class="st0" d="M330.9,161.8c-0.6,0.2-1.3,0.4-1.9,0.6c-0.3,0.1-0.4,0.4-0.3,0.6c0.1,0.2,0.3,0.3,0.5,0.3c0.1,0,0.1,0,0.2,0
			c0.6-0.2,1.3-0.4,1.9-0.6c0.3-0.1,0.4-0.4,0.3-0.6S331.2,161.8,330.9,161.8z"/>
		<path class="st0" d="M323.3,164.2c-0.6,0.2-1.3,0.4-1.9,0.5c-0.3,0.1-0.4,0.3-0.4,0.6c0.1,0.2,0.3,0.4,0.5,0.4c0,0,0.1,0,0.1,0
			c0.6-0.2,1.3-0.4,1.9-0.5c0.3-0.1,0.4-0.4,0.3-0.6C323.9,164.3,323.6,164.2,323.3,164.2z"/>
		<path class="st0" d="M334.7,160.5c-0.6,0.2-1.2,0.5-1.9,0.7c-0.3,0.1-0.4,0.4-0.3,0.6c0.1,0.2,0.3,0.3,0.5,0.3c0.1,0,0.1,0,0.2,0
			c0.6-0.2,1.3-0.5,1.9-0.7c0.3-0.1,0.4-0.4,0.3-0.6S335,160.4,334.7,160.5z"/>
		<path class="st0" d="M342.1,157.6c-0.6,0.3-1.2,0.5-1.8,0.8c-0.3,0.1-0.4,0.4-0.3,0.7c0.1,0.2,0.3,0.3,0.5,0.3c0.1,0,0.1,0,0.2,0
			c0.6-0.3,1.2-0.5,1.8-0.8c0.3-0.1,0.4-0.4,0.3-0.7C342.7,157.6,342.4,157.4,342.1,157.6z"/>
		<path class="st0" d="M338.4,159.1c-0.6,0.2-1.2,0.5-1.9,0.7c-0.3,0.1-0.4,0.4-0.3,0.6c0.1,0.2,0.3,0.3,0.5,0.3c0.1,0,0.1,0,0.2,0
			c0.6-0.2,1.2-0.5,1.9-0.7c0.3-0.1,0.4-0.4,0.3-0.6C339,159.1,338.7,159,338.4,159.1z"/>
		<path class="st0" d="M383,133c-0.5,0.4-1,0.8-1.6,1.2c-0.2,0.2-0.3,0.5-0.1,0.7c0.1,0.1,0.2,0.2,0.4,0.2c0.1,0,0.2,0,0.3-0.1
			c0.5-0.4,1.1-0.8,1.6-1.2c0.2-0.2,0.3-0.5,0.1-0.7C383.6,132.9,383.2,132.8,383,133z"/>
		<path class="st0" d="M376.7,137.8c-0.5,0.4-1.1,0.8-1.6,1.2c-0.2,0.2-0.3,0.5-0.1,0.7c0.1,0.1,0.3,0.2,0.4,0.2
			c0.1,0,0.2,0,0.3-0.1c0.5-0.4,1.1-0.8,1.6-1.2c0.2-0.2,0.3-0.5,0.1-0.7C377.2,137.7,376.9,137.7,376.7,137.8z"/>
		<path class="st0" d="M401,117.2c-0.5,0.5-1,0.9-1.4,1.4c-0.2,0.2-0.2,0.5,0,0.7c0.1,0.1,0.2,0.2,0.4,0.2c0.1,0,0.3,0,0.3-0.1
			c0.5-0.5,1-0.9,1.4-1.4c0.2-0.2,0.2-0.5,0-0.7C401.5,117,401.2,117,401,117.2z"/>
		<path class="st0" d="M406.6,111.5c-0.5,0.5-0.9,1-1.4,1.4c-0.2,0.2-0.2,0.5,0,0.7c0.1,0.1,0.2,0.1,0.3,0.1c0.1,0,0.3-0.1,0.4-0.2
			c0.5-0.5,0.9-1,1.4-1.4c0.2-0.2,0.2-0.5,0-0.7C407.1,111.3,406.8,111.3,406.6,111.5z"/>
		<path class="st0" d="M414.7,102.6c-0.4,0.5-0.9,1-1.3,1.5c-0.2,0.2-0.2,0.5,0,0.7c0.1,0.1,0.2,0.1,0.3,0.1c0.1,0,0.3-0.1,0.4-0.2
			c0.4-0.5,0.9-1,1.3-1.5c0.2-0.2,0.2-0.5,0-0.7C415.2,102.4,414.8,102.4,414.7,102.6z"/>
		<path class="st0" d="M409.3,108.6c-0.5,0.5-0.9,1-1.4,1.5c-0.2,0.2-0.2,0.5,0,0.7c0.1,0.1,0.2,0.1,0.3,0.1c0.1,0,0.3-0.1,0.4-0.2
			c0.5-0.5,0.9-1,1.4-1.5c0.2-0.2,0.2-0.5,0-0.7C409.8,108.4,409.5,108.4,409.3,108.6z"/>
		<path class="st0" d="M398.1,120c-0.5,0.5-1,0.9-1.5,1.4c-0.2,0.2-0.2,0.5,0,0.7c0.1,0.1,0.2,0.2,0.4,0.2c0.1,0,0.2,0,0.3-0.1
			c0.5-0.5,1-0.9,1.5-1.4c0.2-0.2,0.2-0.5,0-0.7C398.6,119.8,398.3,119.8,398.1,120z"/>
		<path class="st0" d="M197.2,144.7c-0.6-0.4-1.1-0.7-1.7-1.1c-0.2-0.1-0.5-0.1-0.7,0.1c-0.1,0.2-0.1,0.5,0.1,0.7
			c0.6,0.4,1.1,0.7,1.7,1.1c0.1,0.1,0.2,0.1,0.3,0.1c0.2,0,0.3-0.1,0.4-0.2C197.5,145.1,197.4,144.8,197.2,144.7z"/>
		<path class="st0" d="M403.8,114.4c-0.5,0.5-0.9,0.9-1.4,1.4c-0.2,0.2-0.2,0.5,0,0.7c0.1,0.1,0.2,0.1,0.4,0.1s0.3,0,0.4-0.1
			c0.5-0.5,0.9-0.9,1.4-1.4c0.2-0.2,0.2-0.5,0-0.7S404,114.2,403.8,114.4z"/>
		<path class="st0" d="M386.1,130.5c-0.5,0.4-1,0.8-1.5,1.3c-0.2,0.2-0.3,0.5-0.1,0.7c0.1,0.1,0.2,0.2,0.4,0.2c0.1,0,0.2,0,0.3-0.1
			c0.5-0.4,1-0.8,1.6-1.3c0.2-0.2,0.2-0.5,0.1-0.7C386.7,130.4,386.4,130.3,386.1,130.5z"/>
		<path class="st0" d="M319.5,165.3c-0.6,0.2-1.3,0.3-1.9,0.5c-0.3,0.1-0.4,0.3-0.4,0.6c0.1,0.2,0.3,0.4,0.5,0.4c0,0,0.1,0,0.1,0
			c0.6-0.2,1.3-0.3,1.9-0.5c0.3-0.1,0.4-0.3,0.4-0.6C320,165.4,319.8,165.2,319.5,165.3z"/>
		<path class="st0" d="M395.2,122.7c-0.5,0.5-1,0.9-1.5,1.3c-0.2,0.2-0.2,0.5,0,0.7c0.1,0.1,0.2,0.2,0.4,0.2c0.1,0,0.2,0,0.3-0.1
			c0.5-0.4,1-0.9,1.5-1.3c0.2-0.2,0.2-0.5,0-0.7C395.7,122.5,395.4,122.5,395.2,122.7z"/>
		<path class="st0" d="M379.9,135.4c-0.5,0.4-1.1,0.8-1.6,1.2c-0.2,0.2-0.3,0.5-0.1,0.7c0.1,0.1,0.2,0.2,0.4,0.2
			c0.1,0,0.2,0,0.3-0.1c0.5-0.4,1.1-0.8,1.6-1.2c0.2-0.2,0.3-0.5,0.1-0.7C380.4,135.3,380.1,135.3,379.9,135.4z"/>
		<path class="st0" d="M392.2,125.3c-0.5,0.4-1,0.9-1.5,1.3c-0.2,0.2-0.2,0.5-0.1,0.7c0.1,0.1,0.2,0.2,0.4,0.2c0.1,0,0.2,0,0.3-0.1
			c0.5-0.4,1-0.9,1.5-1.3c0.2-0.2,0.2-0.5,0-0.7C392.7,125.2,392.4,125.2,392.2,125.3z"/>
		<path class="st0" d="M389.2,128c-0.5,0.4-1,0.9-1.5,1.3c-0.2,0.2-0.2,0.5-0.1,0.7c0.1,0.1,0.2,0.2,0.4,0.2c0.1,0,0.2,0,0.3-0.1
			c0.5-0.4,1-0.9,1.5-1.3c0.2-0.2,0.2-0.5,0.1-0.7C389.7,127.8,389.4,127.8,389.2,128z"/>
		<path class="st0" d="M412,105.6c-0.4,0.5-0.9,1-1.3,1.5c-0.2,0.2-0.2,0.5,0,0.7c0.1,0.1,0.2,0.1,0.3,0.1c0.1,0,0.3-0.1,0.4-0.2
			c0.4-0.5,0.9-1,1.3-1.5c0.2-0.2,0.2-0.5,0-0.7C412.5,105.4,412.2,105.4,412,105.6z"/>
		<path class="st0" d="M256.3,167.9c-0.7-0.1-1.3-0.2-2-0.4c-0.3,0-0.5,0.1-0.6,0.4c-0.1,0.3,0.1,0.5,0.4,0.6c0.7,0.1,1.3,0.2,2,0.4
			c0,0,0.1,0,0.1,0c0.2,0,0.4-0.2,0.5-0.4C256.8,168.2,256.6,167.9,256.3,167.9z"/>
		<path class="st0" d="M237,163.2c-0.6-0.2-1.3-0.4-1.9-0.6c-0.3-0.1-0.5,0.1-0.6,0.3c-0.1,0.3,0.1,0.5,0.3,0.6
			c0.6,0.2,1.3,0.4,1.9,0.6c0,0,0.1,0,0.1,0c0.2,0,0.4-0.1,0.5-0.4C237.4,163.5,237.2,163.2,237,163.2z"/>
		<path class="st0" d="M233.2,161.9c-0.6-0.2-1.3-0.4-1.9-0.7c-0.3-0.1-0.5,0-0.6,0.3c-0.1,0.3,0,0.5,0.3,0.6
			c0.6,0.2,1.3,0.4,1.9,0.7c0.1,0,0.1,0,0.2,0c0.2,0,0.4-0.1,0.5-0.3C233.6,162.3,233.4,162,233.2,161.9z"/>
		<path class="st0" d="M248.5,166.3c-0.6-0.1-1.3-0.3-1.9-0.5c-0.3-0.1-0.5,0.1-0.6,0.4c-0.1,0.3,0.1,0.5,0.4,0.6
			c0.7,0.2,1.3,0.3,2,0.5c0,0,0.1,0,0.1,0c0.2,0,0.4-0.2,0.5-0.4C249,166.6,248.8,166.3,248.5,166.3z"/>
		<path class="st0" d="M244.6,165.3c-0.6-0.2-1.3-0.3-1.9-0.5c-0.3-0.1-0.5,0.1-0.6,0.4c-0.1,0.3,0.1,0.5,0.4,0.6
			c0.6,0.2,1.3,0.3,1.9,0.5c0,0,0.1,0,0.1,0c0.2,0,0.4-0.2,0.5-0.4C245.1,165.7,244.9,165.4,244.6,165.3z"/>
		<path class="st0" d="M252.4,167.1c-0.7-0.1-1.3-0.3-2-0.4c-0.3-0.1-0.5,0.1-0.6,0.4c-0.1,0.3,0.1,0.5,0.4,0.6
			c0.7,0.1,1.3,0.3,2,0.4c0,0,0.1,0,0.1,0c0.2,0,0.4-0.2,0.5-0.4C252.9,167.4,252.7,167.2,252.4,167.1z"/>
		<path class="st0" d="M229.4,160.6c-0.6-0.2-1.2-0.5-1.9-0.7c-0.3-0.1-0.5,0-0.6,0.3c-0.1,0.3,0,0.5,0.3,0.6
			c0.6,0.2,1.3,0.5,1.9,0.7c0.1,0,0.1,0,0.2,0c0.2,0,0.4-0.1,0.5-0.3C229.8,161,229.7,160.7,229.4,160.6z"/>
		<path class="st0" d="M240.8,164.3c-0.6-0.2-1.3-0.4-1.9-0.6c-0.3-0.1-0.5,0.1-0.6,0.3c-0.1,0.3,0.1,0.5,0.3,0.6
			c0.6,0.2,1.3,0.4,1.9,0.6c0,0,0.1,0,0.1,0c0.2,0,0.4-0.1,0.5-0.4C241.2,164.7,241.1,164.4,240.8,164.3z"/>
		<path class="st0" d="M207.6,150.7c-0.6-0.3-1.2-0.6-1.8-1c-0.2-0.1-0.5,0-0.7,0.2c-0.1,0.2,0,0.5,0.2,0.7c0.6,0.3,1.2,0.6,1.8,1
			c0.1,0,0.2,0.1,0.2,0.1c0.2,0,0.3-0.1,0.4-0.3C207.9,151.2,207.8,150.9,207.6,150.7z"/>
		<path class="st0" d="M204.1,148.8c-0.6-0.3-1.2-0.7-1.7-1c-0.2-0.1-0.5-0.1-0.7,0.2c-0.1,0.2-0.1,0.5,0.2,0.7
			c0.6,0.3,1.2,0.7,1.7,1c0.1,0,0.2,0.1,0.2,0.1c0.2,0,0.3-0.1,0.4-0.3C204.4,149.2,204.3,148.9,204.1,148.8z"/>
		<path class="st0" d="M200.6,146.8c-0.6-0.3-1.1-0.7-1.7-1c-0.2-0.1-0.5-0.1-0.7,0.2c-0.1,0.2-0.1,0.5,0.2,0.7
			c0.6,0.4,1.1,0.7,1.7,1c0.1,0,0.2,0.1,0.3,0.1c0.2,0,0.3-0.1,0.4-0.2C200.9,147.2,200.8,146.9,200.6,146.8z"/>
		<path class="st0" d="M218.3,156.1c-0.6-0.3-1.2-0.6-1.8-0.8c-0.3-0.1-0.5,0-0.7,0.2s0,0.5,0.2,0.7c0.6,0.3,1.2,0.6,1.8,0.8
			c0.1,0,0.1,0,0.2,0c0.2,0,0.4-0.1,0.5-0.3C218.7,156.5,218.6,156.2,218.3,156.1z"/>
		<path class="st0" d="M225.7,159.2c-0.6-0.2-1.2-0.5-1.9-0.7c-0.3-0.1-0.5,0-0.7,0.3s0,0.5,0.3,0.7c0.6,0.3,1.2,0.5,1.9,0.7
			c0.1,0,0.1,0,0.2,0c0.2,0,0.4-0.1,0.5-0.3C226,159.6,225.9,159.3,225.7,159.2z"/>
		<path class="st0" d="M214.7,154.4c-0.6-0.3-1.2-0.6-1.8-0.9c-0.2-0.1-0.5,0-0.7,0.2c-0.1,0.2,0,0.5,0.2,0.7
			c0.6,0.3,1.2,0.6,1.8,0.9c0.1,0,0.1,0,0.2,0c0.2,0,0.4-0.1,0.5-0.3C215,154.8,214.9,154.5,214.7,154.4z"/>
		<path class="st0" d="M211.1,152.6c-0.6-0.3-1.2-0.6-1.8-0.9c-0.2-0.1-0.5,0-0.7,0.2c-0.1,0.2,0,0.5,0.2,0.7
			c0.6,0.3,1.2,0.6,1.8,0.9c0.1,0,0.2,0.1,0.2,0.1c0.2,0,0.4-0.1,0.4-0.3C211.4,153,211.3,152.7,211.1,152.6z"/>
		<path class="st0" d="M299.9,169c-0.7,0.1-1.3,0.2-2,0.2c-0.3,0-0.5,0.3-0.4,0.6c0,0.3,0.2,0.4,0.5,0.4c0,0,0,0,0.1,0
			c0.7-0.1,1.3-0.1,2-0.2c0.3,0,0.5-0.3,0.4-0.6S300.2,169,299.9,169z"/>
		<path class="st0" d="M315.6,166.2c-0.6,0.1-1.3,0.3-1.9,0.4c-0.3,0.1-0.4,0.3-0.4,0.6c0.1,0.2,0.3,0.4,0.5,0.4c0,0,0.1,0,0.1,0
			c0.7-0.1,1.3-0.3,2-0.4c0.3-0.1,0.4-0.3,0.4-0.6C316.2,166.3,315.9,166.2,315.6,166.2z"/>
		<path class="st0" d="M288,170c-0.7,0-1.3,0-2,0.1c-0.3,0-0.5,0.2-0.5,0.5c0,0.3,0.2,0.5,0.5,0.5c0,0,0,0,0,0c0.7,0,1.3,0,2-0.1
			c0.3,0,0.5-0.2,0.5-0.5C288.6,170.2,288.3,170,288,170z"/>
		<path class="st0" d="M292,169.7c-0.7,0-1.3,0.1-2,0.1c-0.3,0-0.5,0.3-0.5,0.5c0,0.3,0.2,0.5,0.5,0.5c0,0,0,0,0,0
			c0.7,0,1.3-0.1,2-0.1c0.3,0,0.5-0.3,0.5-0.5C292.5,169.9,292.3,169.7,292,169.7z"/>
		<path class="st0" d="M296,169.4c-0.7,0.1-1.3,0.1-2,0.2c-0.3,0-0.5,0.3-0.5,0.5c0,0.3,0.2,0.5,0.5,0.5c0,0,0,0,0,0
			c0.7-0.1,1.3-0.1,2-0.2c0.3,0,0.5-0.3,0.5-0.5C296.5,169.6,296.2,169.4,296,169.4z"/>
		<path class="st0" d="M311.7,167.1c-0.7,0.1-1.3,0.3-2,0.4c-0.3,0.1-0.5,0.3-0.4,0.6c0,0.2,0.3,0.4,0.5,0.4c0,0,0.1,0,0.1,0
			c0.7-0.1,1.3-0.3,2-0.4c0.3-0.1,0.4-0.3,0.4-0.6C312.3,167.2,312,167,311.7,167.1z"/>
		<path class="st0" d="M303.9,168.5c-0.7,0.1-1.3,0.2-2,0.3c-0.3,0-0.5,0.3-0.4,0.6c0,0.3,0.2,0.4,0.5,0.4c0,0,0,0,0.1,0
			c0.7-0.1,1.3-0.2,2-0.3c0.3,0,0.5-0.3,0.4-0.6C304.4,168.6,304.1,168.4,303.9,168.5z"/>
		<path class="st0" d="M307.8,167.8c-0.7,0.1-1.3,0.2-2,0.3c-0.3,0-0.5,0.3-0.4,0.6c0,0.2,0.3,0.4,0.5,0.4c0,0,0.1,0,0.1,0
			c0.7-0.1,1.3-0.2,2-0.3c0.3,0,0.5-0.3,0.4-0.6C308.3,168,308.1,167.8,307.8,167.8z"/>
		<path class="st0" d="M272.1,169.8c-0.7,0-1.3-0.1-2-0.1c-0.3,0-0.5,0.2-0.5,0.5s0.2,0.5,0.5,0.5c0.7,0.1,1.3,0.1,2,0.1
			c0,0,0,0,0,0c0.3,0,0.5-0.2,0.5-0.5C272.6,170,272.4,169.8,272.1,169.8z"/>
		<path class="st0" d="M268.2,169.4c-0.7-0.1-1.3-0.1-2-0.2c-0.3,0-0.5,0.2-0.5,0.4c0,0.3,0.2,0.5,0.4,0.6c0.7,0.1,1.3,0.1,2,0.2
			c0,0,0,0,0,0c0.3,0,0.5-0.2,0.5-0.5C268.6,169.7,268.4,169.5,268.2,169.4z"/>
		<path class="st0" d="M260.3,168.5c-0.7-0.1-1.3-0.2-2-0.3c-0.3,0-0.5,0.1-0.6,0.4c0,0.3,0.1,0.5,0.4,0.6c0.7,0.1,1.3,0.2,2,0.3
			c0,0,0,0,0.1,0c0.2,0,0.5-0.2,0.5-0.4C260.7,168.8,260.5,168.5,260.3,168.5z"/>
		<path class="st0" d="M284.1,170.1C284.1,170.1,284.1,170.1,284.1,170.1c-0.7,0-1.3,0-2,0c-0.3,0-0.5,0.2-0.5,0.5
			c0,0.3,0.2,0.5,0.5,0.5c0.7,0,1.3,0,2,0c0.3,0,0.5-0.2,0.5-0.5C284.6,170.3,284.3,170.1,284.1,170.1z"/>
		<path class="st0" d="M264.2,169c-0.7-0.1-1.3-0.2-2-0.3c-0.3,0-0.5,0.2-0.6,0.4c0,0.3,0.2,0.5,0.4,0.6c0.7,0.1,1.3,0.2,2,0.3
			c0,0,0,0,0.1,0c0.2,0,0.5-0.2,0.5-0.4C264.7,169.3,264.5,169,264.2,169z"/>
		<path class="st0" d="M276.1,170c-0.7,0-1.3-0.1-2-0.1c-0.3,0-0.5,0.2-0.5,0.5c0,0.3,0.2,0.5,0.5,0.5c0.7,0,1.3,0.1,2,0.1
			c0,0,0,0,0,0c0.3,0,0.5-0.2,0.5-0.5C276.6,170.2,276.4,170,276.1,170z"/>
		<path class="st0" d="M280.1,170.1c-0.7,0-1.3,0-2,0c0,0,0,0,0,0c-0.3,0-0.5,0.2-0.5,0.5c0,0.3,0.2,0.5,0.5,0.5c0.7,0,1.3,0,2,0
			c0,0,0,0,0,0c0.3,0,0.5-0.2,0.5-0.5C280.6,170.3,280.4,170.1,280.1,170.1z"/>
		<path class="st0" d="M445.6,65.9c-0.2-0.2-0.4-0.2-0.7-0.1l-37.8,14.7c-0.2,0.1-0.4,0.3-0.4,0.5c0,0.2,0.1,0.5,0.3,0.6l7.8,4.4
			l2.7,13.3c0,0.1,0,0.1,0.1,0.2c-0.2,0-0.3,0-0.5,0.2c-0.4,0.5-0.9,1-1.3,1.5c-0.2,0.2-0.2,0.5,0.1,0.7c0.1,0.1,0.2,0.1,0.3,0.1
			c0.1,0,0.3-0.1,0.4-0.2c0.4-0.5,0.9-1,1.3-1.5c0.1-0.1,0.1-0.3,0.1-0.5c0,0,0,0,0.1,0c0,0,0,0,0.1,0c0,0,0,0,0,0
			c0.1,0,0.2,0,0.3-0.1c0,0,0.1,0,0.1-0.1c0,0,0,0,0,0l5.9-5.9c0.2-0.2,0.2-0.6,0-0.9c-0.2-0.2-0.6-0.2-0.9,0l-4.6,4.6l1-8.6
			l14.1,7.8c0.1,0.1,0.3,0.1,0.4,0.1c0,0,0,0,0,0c0.1,0,0.3-0.1,0.3-0.3c0,0,0,0,0,0c0,0,0-0.1,0-0.1l10.7-29.7
			C445.8,66.4,445.8,66.1,445.6,65.9z M408.9,81.2l30.9-12l-24.3,15.7L408.9,81.2z M419.2,87.4c-0.1,0-0.1,0.1-0.1,0.2c0,0,0,0,0,0
			c0,0.1-0.1,0.2-0.1,0.2l-0.9,7.4l-1.9-9.3l21-13.6L419.2,87.4z M434.2,95.2l-13.5-7.4l23.1-19.5L434.2,95.2z"/>
	</g>
</g>
</svg>
