<?xml version="1.0" encoding="utf-8"?>
<!-- Generator: Adobe Illustrator 20.0.0, SVG Export Plug-In . SVG Version: 6.00 Build 0)  -->
<svg version="1.1" id="Warstwa_1" xmlns="http://www.w3.org/2000/svg" xmlns:xlink="http://www.w3.org/1999/xlink" x="0px" y="0px"
	 viewBox="0 0 224.3 64.3" style="enable-background:new 0 0 224.3 64.3;" xml:space="preserve">
<style type="text/css">
	.st0{fill:#FFFFFF;}
	.st1{fill:#F58120;}
	.st2{opacity:0.7;}
</style>
<g>
	<path class="st0" d="M52.9,47.2c-9.9,0-17.4-6.9-17.4-17.7s7.8-17.7,17.7-17.7s17.7,6.9,17.7,17.7S62.9,47.2,52.9,47.2z M52.9,39.6
		c4.6,0,9-3.3,9-10.2c0-6.9-4.3-10.2-8.9-10.2c-4.6,0-8.7,3.3-8.7,10.2C44.3,36.3,48.3,39.6,52.9,39.6z"/>
	<path class="st0" d="M96,11.7c8.8,0,15.7,6.9,15.7,17.6S104.8,47.2,96,47.2c-5.4,0-9.2-2.5-11.3-5.5v4.9H76V0.8h8.7v16.6
		C86.8,14.2,90.8,11.7,96,11.7z M93.7,19.4c-4.6,0-9.1,3.6-9.1,10.1s4.4,10.1,9.1,10.1s9.1-3.7,9.1-10.2
		C102.8,22.8,98.4,19.4,93.7,19.4z"/>
	<path class="st0" d="M136.8,11.7c8.8,0,15.7,6.9,15.7,17.6s-6.9,17.9-15.7,17.9c-5.4,0-9.2-2.5-11.3-5.5v4.9h-8.7V0.8h8.7v16.6
		C127.6,14.2,131.6,11.7,136.8,11.7z M134.5,19.4c-4.6,0-9.1,3.6-9.1,10.1s4.4,10.1,9.1,10.1s9.1-3.7,9.1-10.2
		C143.6,22.8,139.2,19.4,134.5,19.4z"/>
	<path class="st0" d="M170.7,47.2c-8.6,0-14.6-5-15-11.4h8.7c0.3,2.6,2.7,4.6,6.2,4.6c3.4,0,5.3-1.5,5.3-3.5
		c0-6.1-19.4-2.2-19.4-14.8c0-5.7,5.1-10.3,13.6-10.3c8.3,0,13.3,4.5,13.8,11.3h-8.3c-0.2-2.7-2.4-4.5-5.8-4.5
		c-3.2,0-4.9,1.3-4.9,3.3c0,6.3,19,2.4,19.3,14.9C184.2,42.7,179.1,47.2,170.7,47.2z"/>
	<path class="st0" d="M213.8,12.3h9.2l-21.3,50.6h-9.2l7.4-17.1l-13.8-33.5h9.7l8.9,24L213.8,12.3z"/>
</g>
<circle class="st1" cx="9" cy="18.8" r="6.5"/>
<g class="st2">
	<path class="st0" d="M25.7,62.9h-0.9v-6.5h0.8v1.2c0.4-0.8,1.1-1.3,2.2-1.3v0.9h-0.2c-1.1,0-2,0.5-2,2.1L25.7,62.9L25.7,62.9z"/>
	<path class="st0" d="M34.4,63c-1.9,0-3.2-1.3-3.2-3.4s1.3-3.4,3.2-3.4s3.1,1.4,3.1,3c0,0.3,0,0.4,0,0.7h-5.4
		c0.1,1.5,1.1,2.3,2.4,2.3c1.1,0,1.9-0.6,2.1-1.5h0.9C37.1,62,36.1,63,34.4,63z M32.1,59.2h4.6c0-1.5-1.1-2.3-2.3-2.3
		C33.2,57,32.2,57.7,32.1,59.2z"/>
	<path class="st0" d="M41.6,56.3l2.2,5.7l2.2-5.7h0.9l-2.6,6.5h-0.9l-2.6-6.5H41.6z"/>
	<path class="st0" d="M53.3,63c-1.9,0-3.2-1.3-3.2-3.4s1.3-3.4,3.2-3.4s3.1,1.4,3.1,3c0,0.3,0,0.4,0,0.7H51c0.1,1.5,1.1,2.3,2.4,2.3
		c1.1,0,1.9-0.6,2.1-1.5h0.9C55.9,62,54.9,63,53.3,63z M50.9,59.2h4.6c0-1.5-1.1-2.3-2.3-2.3C52,57,51,57.7,50.9,59.2z"/>
	<path class="st0" d="M61.1,62.9h-0.8v-6.5h0.8v1.2c0.4-0.8,1.1-1.3,2.2-1.3v0.9h-0.2c-1.1,0-2,0.5-2,2.1V62.9z"/>
	<path class="st0" d="M69.3,63c-1.5,0-2.5-0.7-2.6-1.9h0.9c0.1,0.7,0.7,1.2,1.8,1.2c0.9,0,1.5-0.5,1.5-1.1c0-1.6-3.9-0.7-3.9-3.1
		c0-1,0.9-1.8,2.3-1.8c1.4,0,2.3,0.7,2.4,2h-0.8c0-0.7-0.6-1.3-1.6-1.3c-0.9,0-1.4,0.5-1.4,1c0,1.8,3.9,0.8,3.9,3.1
		C71.6,62.2,70.6,63,69.3,63z"/>
	<path class="st0" d="M78.4,63c-1.9,0-3.2-1.3-3.2-3.4s1.3-3.4,3.2-3.4c1.9,0,3.1,1.4,3.1,3c0,0.3,0,0.4,0,0.7h-5.4
		c0.1,1.5,1.1,2.3,2.4,2.3c1.1,0,1.9-0.6,2.1-1.5h0.9C81.1,62,80,63,78.4,63z M76,59.2h4.6c0-1.5-1.1-2.3-2.3-2.3
		C77.2,57,76.1,57.7,76,59.2z"/>
	<path class="st0" d="M91.9,62.9h-0.8v-6.5h0.8v1.2c0.4-0.8,1.1-1.3,2.2-1.3v0.9h-0.2c-1.1,0-2,0.5-2,2.1V62.9z"/>
	<path class="st0" d="M100.7,63c-1.9,0-3.2-1.3-3.2-3.4s1.3-3.4,3.2-3.4c1.9,0,3.1,1.4,3.1,3c0,0.3,0,0.4,0,0.7h-5.4
		c0.1,1.5,1.1,2.3,2.4,2.3c1.1,0,1.9-0.6,2.1-1.5h0.9C103.4,62,102.3,63,100.7,63z M98.3,59.2h4.6c0-1.5-1.1-2.3-2.3-2.3
		C99.5,57,98.4,57.7,98.3,59.2z"/>
	<path class="st0" d="M110.5,56.2c1.6,0,2.7,0.9,3,2.2h-0.9c-0.2-0.9-1-1.5-2.1-1.5c-1.3,0-2.3,0.9-2.3,2.7c0,1.8,1,2.7,2.3,2.7
		c1.1,0,1.9-0.6,2.1-1.5h0.9c-0.3,1.3-1.4,2.2-3,2.2c-1.8,0-3.2-1.3-3.2-3.4C107.3,57.5,108.7,56.2,110.5,56.2z"/>
	<path class="st0" d="M118.3,62.9h-0.8v-6.5h0.8v1.2c0.4-0.8,1.1-1.3,2.2-1.3v0.9h-0.2c-1.1,0-2,0.5-2,2.1V62.9z"/>
	<path class="st0" d="M129.9,62.9h-0.8v-1.2c-0.4,0.8-1.3,1.3-2.2,1.3c-1.5,0-2.7-0.9-2.7-2.8v-3.8h0.8v3.7c0,1.5,0.8,2.2,2,2.2
		s2.1-0.8,2.1-2.4v-3.6h0.8L129.9,62.9L129.9,62.9z"/>
	<path class="st0" d="M134,54.5c0-0.4,0.3-0.6,0.6-0.6s0.6,0.3,0.6,0.6c0,0.4-0.3,0.6-0.6,0.6S134,54.8,134,54.5z M134.2,56.3h0.8
		v6.5h-0.8V56.3z"/>
	<path class="st0" d="M139.6,57h-0.9v-0.7h0.9v-1.6h0.9v1.6h1.8V57h-1.8v4.1c0,0.8,0.3,1.1,1,1.1h0.8v0.7h-0.9
		c-1.1,0-1.8-0.5-1.8-1.8V57z"/>
	<path class="st0" d="M155.6,59.1c0-1.5-0.8-2.2-1.9-2.2c-1.2,0-2,0.8-2,2.4v3.5h-0.9v-3.7c0-1.5-0.8-2.2-1.9-2.2
		c-1.2,0-2,0.8-2,2.4v3.5h-0.8v-6.5h0.8v1.1c0.4-0.8,1.2-1.2,2.2-1.2c1.1,0,2,0.5,2.4,1.6c0.4-1.1,1.3-1.6,2.4-1.6
		c1.5,0,2.6,0.9,2.6,2.8v3.8h-0.8v-3.7H155.6z"/>
	<path class="st0" d="M163.5,63c-1.9,0-3.2-1.3-3.2-3.4s1.3-3.4,3.2-3.4c1.9,0,3.1,1.4,3.1,3c0,0.3,0,0.4,0,0.7h-5.4
		c0.1,1.5,1.1,2.3,2.4,2.3c1.1,0,1.9-0.6,2.1-1.5h0.9C166.2,62,165.2,63,163.5,63z M161.2,59.2h4.6c0-1.5-1.1-2.3-2.3-2.3
		C162.3,57,161.3,57.7,161.2,59.2z"/>
	<path class="st0" d="M175.5,59.1c0-1.5-0.8-2.2-2-2.2s-2.1,0.8-2.1,2.4v3.6h-0.8v-6.5h0.8v1.1c0.4-0.8,1.3-1.2,2.2-1.2
		c1.5,0,2.7,0.9,2.7,2.8v3.8h-0.8L175.5,59.1L175.5,59.1z"/>
	<path class="st0" d="M180.8,57h-0.9v-0.7h0.9v-1.6h0.9v1.6h1.8V57h-1.8v4.1c0,0.8,0.3,1.1,1,1.1h0.8v0.7h-0.9
		c-1.1,0-1.8-0.5-1.8-1.8V57z"/>
</g>
<polygon class="st1" points="32.4,12.3 24.1,12.3 23.1,12.3 1.9,63 2.9,62.9 2.9,63 12.1,62.9 33.4,12.3 "/>
</svg>
