<?xml version="1.0" encoding="utf-8"?>
<!-- Generator: Adobe Illustrator 20.0.0, SVG Export Plug-In . SVG Version: 6.00 Build 0)  -->
<svg version="1.1" id="Warstwa_1" xmlns="http://www.w3.org/2000/svg" xmlns:xlink="http://www.w3.org/1999/xlink" x="0px" y="0px"
	 viewBox="0 0 224.3 64.3" style="enable-background:new 0 0 224.3 64.3;" xml:space="preserve">
<style type="text/css">
	.st0{fill:#F58120;}
	.st1{opacity:0.7;}
	.st2{fill:#6C6A7C;}
	.st3{fill:none;}
</style>
<g>
	<g>
		<path d="M52.6,47.5c-9.9,0-17.4-6.9-17.4-17.7S43,12,52.9,12s17.7,6.9,17.7,17.7S62.6,47.5,52.6,47.5z M52.6,39.8
			c4.6,0,9-3.3,9-10.2s-4.3-10.2-8.9-10.2S44,22.7,44,29.6S48,39.8,52.6,39.8z"/>
		<path d="M95.7,11.9c8.8,0,15.7,6.9,15.7,17.6s-6.9,17.9-15.7,17.9c-5.4,0-9.2-2.5-11.3-5.5v4.9h-8.7V1h8.7v16.6
			C86.5,14.4,90.5,11.9,95.7,11.9z M93.4,19.6c-4.6,0-9.1,3.6-9.1,10.1s4.4,10.1,9.1,10.1s9.1-3.7,9.1-10.2
			C102.5,23,98.1,19.6,93.4,19.6z"/>
		<path d="M136.5,11.9c8.8,0,15.7,6.9,15.7,17.6s-6.9,17.9-15.7,17.9c-5.4,0-9.2-2.5-11.3-5.5v4.9h-8.7V1h8.7v16.6
			C127.3,14.4,131.3,11.9,136.5,11.9z M134.2,19.6c-4.6,0-9.1,3.6-9.1,10.1s4.4,10.1,9.1,10.1s9.1-3.7,9.1-10.2
			C143.3,23,138.9,19.6,134.2,19.6z"/>
		<path d="M170.4,47.5c-8.6,0-14.6-5-15-11.4h8.7c0.3,2.6,2.7,4.6,6.2,4.6c3.4,0,5.3-1.5,5.3-3.5c0-6.1-19.4-2.2-19.4-14.8
			c0-5.7,5.1-10.3,13.6-10.3c8.3,0,13.3,4.5,13.8,11.3h-8.3c-0.2-2.7-2.4-4.5-5.8-4.5c-3.2,0-4.9,1.3-4.9,3.3
			c0,6.3,19,2.4,19.3,14.9C183.9,43,178.8,47.5,170.4,47.5z"/>
		<path d="M213.5,12.6h9.2l-21.3,50.6h-9.2l7.4-17.1l-13.8-33.5h9.7l8.9,24L213.5,12.6z"/>
	</g>
	<circle class="st0" cx="8.7" cy="19" r="6.5"/>
	<g class="st1">
		<path class="st2" d="M25.4,63.2h-0.9v-6.5h0.8v1.2c0.4-0.8,1.1-1.3,2.2-1.3v0.9h-0.2c-1.1,0-2,0.5-2,2.1L25.4,63.2L25.4,63.2z"/>
		<path class="st2" d="M34.1,63.3c-1.9,0-3.2-1.3-3.2-3.4s1.3-3.4,3.2-3.4s3.1,1.4,3.1,3c0,0.3,0,0.4,0,0.7h-5.4
			c0.1,1.5,1.1,2.3,2.4,2.3c1.1,0,1.9-0.6,2.1-1.5h0.9C36.8,62.3,35.8,63.3,34.1,63.3z M31.8,59.5h4.6c0-1.5-1.1-2.3-2.3-2.3
			C32.9,57.3,31.9,58,31.8,59.5z"/>
		<path class="st2" d="M41.3,56.5l2.2,5.7l2.2-5.7h0.9L44,63h-0.9l-2.6-6.5H41.3z"/>
		<path class="st2" d="M53,63.3c-1.9,0-3.2-1.3-3.2-3.4s1.3-3.4,3.2-3.4s3.1,1.4,3.1,3c0,0.3,0,0.4,0,0.7h-5.4
			c0.1,1.5,1.1,2.3,2.4,2.3c1.1,0,1.9-0.6,2.1-1.5h0.9C55.6,62.3,54.6,63.3,53,63.3z M50.6,59.5h4.6c0-1.5-1.1-2.3-2.3-2.3
			C51.7,57.3,50.7,58,50.6,59.5z"/>
		<path class="st2" d="M60.8,63.2H60v-6.5h0.8v1.2c0.4-0.8,1.1-1.3,2.2-1.3v0.9h-0.2c-1.1,0-2,0.5-2,2.1V63.2z"/>
		<path class="st2" d="M69,63.3c-1.5,0-2.5-0.7-2.6-1.9h0.9c0.1,0.7,0.7,1.2,1.8,1.2c0.9,0,1.5-0.5,1.5-1.1c0-1.6-3.9-0.7-3.9-3.1
			c0-1,0.9-1.8,2.3-1.8s2.3,0.7,2.4,2h-0.8c0-0.7-0.6-1.3-1.6-1.3c-0.9,0-1.4,0.5-1.4,1c0,1.8,3.9,0.8,3.9,3.1
			C71.3,62.5,70.3,63.3,69,63.3z"/>
		<path class="st2" d="M78.1,63.3c-1.9,0-3.2-1.3-3.2-3.4s1.3-3.4,3.2-3.4c1.9,0,3.1,1.4,3.1,3c0,0.3,0,0.4,0,0.7h-5.4
			c0.1,1.5,1.1,2.3,2.4,2.3c1.1,0,1.9-0.6,2.1-1.5h0.9C80.8,62.3,79.7,63.3,78.1,63.3z M75.7,59.5h4.6c0-1.5-1.1-2.3-2.3-2.3
			C76.9,57.3,75.8,58,75.7,59.5z"/>
		<path class="st2" d="M91.6,63.2h-0.8v-6.5h0.8v1.2c0.4-0.8,1.1-1.3,2.2-1.3v0.9h-0.2c-1.1,0-2,0.5-2,2.1V63.2z"/>
		<path class="st2" d="M100.4,63.3c-1.9,0-3.2-1.3-3.2-3.4s1.3-3.4,3.2-3.4c1.9,0,3.1,1.4,3.1,3c0,0.3,0,0.4,0,0.7h-5.4
			c0.1,1.5,1.1,2.3,2.4,2.3c1.1,0,1.9-0.6,2.1-1.5h0.9C103.1,62.3,102,63.3,100.4,63.3z M98,59.5h4.6c0-1.5-1.1-2.3-2.3-2.3
			C99.2,57.3,98.1,58,98,59.5z"/>
		<path class="st2" d="M110.2,56.5c1.6,0,2.7,0.9,3,2.2h-0.9c-0.2-0.9-1-1.5-2.1-1.5c-1.3,0-2.3,0.9-2.3,2.7s1,2.7,2.3,2.7
			c1.1,0,1.9-0.6,2.1-1.5h0.9c-0.3,1.3-1.4,2.2-3,2.2c-1.8,0-3.2-1.3-3.2-3.4S108.4,56.5,110.2,56.5z"/>
		<path class="st2" d="M118,63.2h-0.8v-6.5h0.8v1.2c0.4-0.8,1.1-1.3,2.2-1.3v0.9H120c-1.1,0-2,0.5-2,2.1V63.2z"/>
		<path class="st2" d="M129.6,63.2h-0.8V62c-0.4,0.8-1.3,1.3-2.2,1.3c-1.5,0-2.7-0.9-2.7-2.8v-3.8h0.8v3.7c0,1.5,0.8,2.2,2,2.2
			s2.1-0.8,2.1-2.4v-3.6h0.8L129.6,63.2L129.6,63.2z"/>
		<path class="st2" d="M133.7,54.8c0-0.4,0.3-0.6,0.6-0.6s0.6,0.3,0.6,0.6c0,0.4-0.3,0.6-0.6,0.6S133.7,55,133.7,54.8z M133.9,56.5
			h0.8V63h-0.8V56.5z"/>
		<path class="st2" d="M139.3,57.3h-0.9v-0.7h0.9V55h0.9v1.6h1.8v0.7h-1.8v4.1c0,0.8,0.3,1.1,1,1.1h0.8v0.7h-0.9
			c-1.1,0-1.8-0.5-1.8-1.8V57.3z"/>
		<path class="st2" d="M155.3,59.3c0-1.5-0.8-2.2-1.9-2.2c-1.2,0-2,0.8-2,2.4V63h-0.9v-3.7c0-1.5-0.8-2.2-1.9-2.2
			c-1.2,0-2,0.8-2,2.4V63h-0.8v-6.5h0.8v1.1c0.4-0.8,1.2-1.2,2.2-1.2c1.1,0,2,0.5,2.4,1.6c0.4-1.1,1.3-1.6,2.4-1.6
			c1.5,0,2.6,0.9,2.6,2.8V63h-0.8v-3.7C155.4,59.3,155.3,59.3,155.3,59.3z"/>
		<path class="st2" d="M163.2,63.3c-1.9,0-3.2-1.3-3.2-3.4s1.3-3.4,3.2-3.4s3.1,1.4,3.1,3c0,0.3,0,0.4,0,0.7h-5.4
			c0.1,1.5,1.1,2.3,2.4,2.3c1.1,0,1.9-0.6,2.1-1.5h0.9C165.9,62.3,164.9,63.3,163.2,63.3z M160.9,59.5h4.6c0-1.5-1.1-2.3-2.3-2.3
			C162,57.3,161,58,160.9,59.5z"/>
		<path class="st2" d="M175.2,59.3c0-1.5-0.8-2.2-2-2.2s-2.1,0.8-2.1,2.4v3.6h-0.8v-6.5h0.8v1.1c0.4-0.8,1.3-1.2,2.2-1.2
			c1.5,0,2.7,0.9,2.7,2.8v3.8h-0.8L175.2,59.3L175.2,59.3z"/>
		<path class="st2" d="M180.5,57.3h-0.9v-0.7h0.9V55h0.9v1.6h1.8v0.7h-1.8v4.1c0,0.8,0.3,1.1,1,1.1h0.8v0.7h-0.9
			c-1.1,0-1.8-0.5-1.8-1.8V57.3z"/>
	</g>
	<polygon class="st0" points="32.1,12.6 23.8,12.6 22.8,12.6 1.6,63.3 2.6,63.3 11.8,63.3 33.1,12.6 	"/>
</g>
</svg>
