<?xml version="1.0" encoding="utf-8"?>
<!-- Generator: Adobe Illustrator 20.0.0, SVG Export Plug-In . SVG Version: 6.00 Build 0)  -->
<svg version="1.1" id="Warstwa_1" xmlns="http://www.w3.org/2000/svg" xmlns:xlink="http://www.w3.org/1999/xlink" x="0px" y="0px"
	 viewBox="0 0 595.3 841.9" style="enable-background:new 0 0 595.3 841.9;" xml:space="preserve">
<style type="text/css">
	.st0{fill:#FFFFFF;}
	.st1{fill:#F58120;}
	.st2{opacity:0.7;}
</style>
<g>
	<path class="st0" d="M238.1,95.1c-9.9,0-17.4-6.9-17.4-17.7c0-10.8,7.8-17.7,17.7-17.7c9.9,0,17.7,6.9,17.7,17.7
		C256.1,88.2,248.1,95.1,238.1,95.1z M238.1,87.5c4.6,0,9-3.3,9-10.2c0-6.9-4.3-10.2-8.9-10.2c-4.6,0-8.7,3.3-8.7,10.2
		C229.5,84.2,233.5,87.5,238.1,87.5z"/>
	<path class="st0" d="M281.2,59.6c8.8,0,15.7,6.9,15.7,17.6c0,10.7-6.9,17.9-15.7,17.9c-5.4,0-9.2-2.5-11.3-5.5v4.9h-8.7V48.7h8.7
		v16.6C272,62.1,276,59.6,281.2,59.6z M278.9,67.3c-4.6,0-9.1,3.6-9.1,10.1c0,6.5,4.4,10.1,9.1,10.1c4.7,0,9.1-3.7,9.1-10.2
		C288,70.7,283.6,67.3,278.9,67.3z"/>
	<path class="st0" d="M322,59.6c8.8,0,15.7,6.9,15.7,17.6c0,10.7-6.9,17.9-15.7,17.9c-5.4,0-9.2-2.5-11.3-5.5v4.9H302V48.7h8.7v16.6
		C312.8,62.1,316.8,59.6,322,59.6z M319.7,67.3c-4.6,0-9.1,3.6-9.1,10.1c0,6.5,4.4,10.1,9.1,10.1c4.7,0,9.1-3.7,9.1-10.2
		C328.8,70.7,324.4,67.3,319.7,67.3z"/>
	<path class="st0" d="M355.9,95.1c-8.6,0-14.6-5-15-11.4h8.7c0.3,2.6,2.7,4.6,6.2,4.6c3.4,0,5.3-1.5,5.3-3.5
		c0-6.1-19.4-2.2-19.4-14.8c0-5.7,5.1-10.3,13.6-10.3c8.3,0,13.3,4.5,13.8,11.3h-8.3c-0.2-2.7-2.4-4.5-5.8-4.5
		c-3.2,0-4.9,1.3-4.9,3.3c0,6.3,19,2.4,19.3,14.9C369.4,90.6,364.3,95.1,355.9,95.1z"/>
	<path class="st0" d="M399,60.2h9.2l-21.3,50.6h-9.2l7.4-17.1l-13.8-33.5h9.7l8.9,24L399,60.2z"/>
</g>
<circle class="st1" cx="194.2" cy="66.7" r="6.5"/>
<g class="st2">
	<path class="st0" d="M210.9,110.8H210v-6.5h0.8v1.2c0.4-0.8,1.1-1.3,2.2-1.3v0.9h-0.2c-1.1,0-2,0.5-2,2.1V110.8z"/>
	<path class="st0" d="M219.6,110.9c-1.9,0-3.2-1.3-3.2-3.4c0-2.1,1.3-3.4,3.2-3.4c1.9,0,3.1,1.4,3.1,3c0,0.3,0,0.4,0,0.7h-5.4
		c0.1,1.5,1.1,2.3,2.4,2.3c1.1,0,1.9-0.6,2.1-1.5h0.9C222.3,109.9,221.3,110.9,219.6,110.9z M217.3,107.1h4.6c0-1.5-1.1-2.3-2.3-2.3
		C218.4,104.9,217.4,105.6,217.3,107.1z"/>
	<path class="st0" d="M226.8,104.2l2.2,5.7l2.2-5.7h0.9l-2.6,6.5h-0.9l-2.6-6.5H226.8z"/>
	<path class="st0" d="M238.5,110.9c-1.9,0-3.2-1.3-3.2-3.4c0-2.1,1.3-3.4,3.2-3.4c1.9,0,3.1,1.4,3.1,3c0,0.3,0,0.4,0,0.7h-5.4
		c0.1,1.5,1.1,2.3,2.4,2.3c1.1,0,1.9-0.6,2.1-1.5h0.9C241.1,109.9,240.1,110.9,238.5,110.9z M236.1,107.1h4.6c0-1.5-1.1-2.3-2.3-2.3
		C237.2,104.9,236.2,105.6,236.1,107.1z"/>
	<path class="st0" d="M246.3,110.8h-0.8v-6.5h0.8v1.2c0.4-0.8,1.1-1.3,2.2-1.3v0.9h-0.2c-1.1,0-2,0.5-2,2.1V110.8z"/>
	<path class="st0" d="M254.5,110.9c-1.5,0-2.5-0.7-2.6-1.9h0.9c0.1,0.7,0.7,1.2,1.8,1.2c0.9,0,1.5-0.5,1.5-1.1
		c0-1.6-3.9-0.7-3.9-3.1c0-1,0.9-1.8,2.3-1.8c1.4,0,2.3,0.7,2.4,2h-0.8c0-0.7-0.6-1.3-1.6-1.3c-0.9,0-1.4,0.5-1.4,1
		c0,1.8,3.9,0.8,3.9,3.1C256.8,110.1,255.8,110.9,254.5,110.9z"/>
	<path class="st0" d="M263.6,110.9c-1.9,0-3.2-1.3-3.2-3.4c0-2.1,1.3-3.4,3.2-3.4c1.9,0,3.1,1.4,3.1,3c0,0.3,0,0.4,0,0.7h-5.4
		c0.1,1.5,1.1,2.3,2.4,2.3c1.1,0,1.9-0.6,2.1-1.5h0.9C266.3,109.9,265.2,110.9,263.6,110.9z M261.2,107.1h4.6c0-1.5-1.1-2.3-2.3-2.3
		C262.4,104.9,261.3,105.6,261.2,107.1z"/>
	<path class="st0" d="M277.1,110.8h-0.8v-6.5h0.8v1.2c0.4-0.8,1.1-1.3,2.2-1.3v0.9h-0.2c-1.1,0-2,0.5-2,2.1V110.8z"/>
	<path class="st0" d="M285.9,110.9c-1.9,0-3.2-1.3-3.2-3.4c0-2.1,1.3-3.4,3.2-3.4c1.9,0,3.1,1.4,3.1,3c0,0.3,0,0.4,0,0.7h-5.4
		c0.1,1.5,1.1,2.3,2.4,2.3c1.1,0,1.9-0.6,2.1-1.5h0.9C288.6,109.9,287.5,110.9,285.9,110.9z M283.5,107.1h4.6c0-1.5-1.1-2.3-2.3-2.3
		C284.7,104.9,283.6,105.6,283.5,107.1z"/>
	<path class="st0" d="M295.7,104.1c1.6,0,2.7,0.9,3,2.2h-0.9c-0.2-0.9-1-1.5-2.1-1.5c-1.3,0-2.3,0.9-2.3,2.7c0,1.8,1,2.7,2.3,2.7
		c1.1,0,1.9-0.6,2.1-1.5h0.9c-0.3,1.3-1.4,2.2-3,2.2c-1.8,0-3.2-1.3-3.2-3.4C292.5,105.4,293.9,104.1,295.7,104.1z"/>
	<path class="st0" d="M303.5,110.8h-0.8v-6.5h0.8v1.2c0.4-0.8,1.1-1.3,2.2-1.3v0.9h-0.2c-1.1,0-2,0.5-2,2.1V110.8z"/>
	<path class="st0" d="M315.1,110.8h-0.8v-1.2c-0.4,0.8-1.3,1.3-2.2,1.3c-1.5,0-2.7-0.9-2.7-2.8v-3.8h0.8v3.7c0,1.5,0.8,2.2,2,2.2
		c1.2,0,2.1-0.8,2.1-2.4v-3.6h0.8V110.8z"/>
	<path class="st0" d="M319.2,102.4c0-0.4,0.3-0.6,0.6-0.6s0.6,0.3,0.6,0.6c0,0.4-0.3,0.6-0.6,0.6S319.2,102.7,319.2,102.4z
		 M319.4,104.2h0.8v6.5h-0.8V104.2z"/>
	<path class="st0" d="M324.8,104.9h-0.9v-0.7h0.9v-1.6h0.9v1.6h1.8v0.7h-1.8v4.1c0,0.8,0.3,1.1,1,1.1h0.8v0.7h-0.9
		c-1.1,0-1.8-0.5-1.8-1.8V104.9z"/>
	<path class="st0" d="M340.8,107c0-1.5-0.8-2.2-1.9-2.2c-1.2,0-2,0.8-2,2.4v3.5H336V107c0-1.5-0.8-2.2-1.9-2.2c-1.2,0-2,0.8-2,2.4
		v3.5h-0.8v-6.5h0.8v1.1c0.4-0.8,1.2-1.2,2.2-1.2c1.1,0,2,0.5,2.4,1.6c0.4-1.1,1.3-1.6,2.4-1.6c1.5,0,2.6,0.9,2.6,2.8v3.8h-0.8V107z
		"/>
	<path class="st0" d="M348.7,110.9c-1.9,0-3.2-1.3-3.2-3.4c0-2.1,1.3-3.4,3.2-3.4c1.9,0,3.1,1.4,3.1,3c0,0.3,0,0.4,0,0.7h-5.4
		c0.1,1.5,1.1,2.3,2.4,2.3c1.1,0,1.9-0.6,2.1-1.5h0.9C351.4,109.9,350.4,110.9,348.7,110.9z M346.4,107.1h4.6c0-1.5-1.1-2.3-2.3-2.3
		C347.5,104.9,346.5,105.6,346.4,107.1z"/>
	<path class="st0" d="M360.7,107c0-1.5-0.8-2.2-2-2.2c-1.2,0-2.1,0.8-2.1,2.4v3.6h-0.8v-6.5h0.8v1.1c0.4-0.8,1.3-1.2,2.2-1.2
		c1.5,0,2.7,0.9,2.7,2.8v3.8h-0.8V107z"/>
	<path class="st0" d="M366,104.9h-0.9v-0.7h0.9v-1.6h0.9v1.6h1.8v0.7h-1.8v4.1c0,0.8,0.3,1.1,1,1.1h0.8v0.7h-0.9
		c-1.1,0-1.8-0.5-1.8-1.8V104.9z"/>
</g>
<polygon class="st1" points="217.6,60.2 209.3,60.2 208.3,60.2 187.1,110.9 188.1,110.8 188.1,110.9 197.3,110.8 218.6,60.2 "/>
</svg>
