<?xml version="1.0" encoding="utf-8"?>
<!-- Generator: Adobe Illustrator 20.0.0, SVG Export Plug-In . SVG Version: 6.00 Build 0)  -->
<svg version="1.1" id="Warstwa_1" xmlns="http://www.w3.org/2000/svg" xmlns:xlink="http://www.w3.org/1999/xlink" x="0px" y="0px"
	 viewBox="0 0 480 480" style="enable-background:new 0 0 480 480;" xml:space="preserve">
<style type="text/css">
	.st0{fill:#382873;}
	.st1{fill:#705EA6;}
</style>
<g>
	<path class="st0" d="M0,88l0,384c0,4.4,3.6,8,8,8h384c4.4,0,8-3.6,8-8V280c0-4.4-3.6-8-8-8h-72c-0.9,0-1.7,0.1-2.5,0.4
		c-4.2,1.4-6.5,5.9-5.1,10.1l3.4,10.1c1.4,4.2,1.4,8.7,0,12.9c-3.6,10.9-15.3,16.9-26.2,13.3s-16.9-15.3-13.3-26.2l3.4-10.1
		c0.3-0.8,0.4-1.7,0.4-2.5c0-4.4-3.6-8-8-8h-64v-64c0-0.9-0.1-1.7-0.4-2.5c-1.4-4.2-5.9-6.5-10.1-5.1l-10.1,3.4
		c-4.2,1.4-8.7,1.4-12.9,0c-10.9-3.6-16.9-15.3-13.3-26.2c3.6-10.9,15.3-16.9,26.2-13.3l10.1,3.4c0.8,0.3,1.7,0.4,2.5,0.4
		c4.4,0,8-3.6,8-8V88c0-4.4-3.6-8-8-8H8C3.6,80,0,83.6,0,88z M192,219.1V272h-52.9c2.3-7.2,2.3-14.9,0-22.1
		c-6.1-19.4-26.8-30.1-46.2-24c-19.4,6.1-30.1,26.8-24,46.2H16V96h176v52.9c-15.3-4.9-32,0.6-41.3,13.6c-11.8,16.5-8,39.5,8.6,51.3
		C168.7,220.8,180.9,222.7,192,219.1z M384,464H208v-64c0-0.9-0.1-1.7-0.4-2.5c-1.4-4.2-5.9-6.5-10.1-5.1l-10.1,3.4
		c-4.2,1.4-8.7,1.4-12.9,0c-10.9-3.6-16.9-15.3-13.3-26.2c3.6-10.9,15.3-16.9,26.2-13.3l10.1,3.4c0.8,0.3,1.7,0.4,2.5,0.4
		c4.4,0,8-3.6,8-8v-64h52.9c-2.3,7.2-2.3,14.9,0,22.1c6.1,19.4,26.8,30.1,46.2,24c19.4-6.1,30.1-26.8,24-46.2H384V464z M16,288h64
		c0.9,0,1.7-0.1,2.5-0.4c4.2-1.4,6.5-5.9,5.1-10.1l-3.4-10.1c-1.4-4.2-1.4-8.7,0-12.9c3.6-10.9,15.3-16.9,26.2-13.3
		c10.9,3.6,16.9,15.3,13.3,26.2l-3.4,10.1c-0.3,0.8-0.4,1.7-0.4,2.5c0,4.4,3.6,8,8,8h64v52.9c-7.2-2.3-14.9-2.3-22.1,0
		c-19.4,6.1-30.1,26.8-24,46.2c6.1,19.4,26.8,30.1,46.2,24V464H16V288z"/>
	<path class="st1" d="M480,200V8c0-4.4-3.6-8-8-8L280,0c-4.4,0-8,3.6-8,8v60.9c-7.2-2.3-14.9-2.3-22.1,0
		c-19.4,6.1-30.1,26.8-24,46.2s26.8,30.1,46.2,24V200c0,4.4,3.6,8,8,8h60.9c-2.3,7.2-2.3,14.9,0,22.1c6.1,19.4,26.8,30.1,46.2,24
		c19.4-6.1,30.1-26.8,24-46.2H472C476.4,208,480,204.4,480,200z M464,192h-64c-0.9,0-1.7,0.1-2.5,0.4c-4.2,1.4-6.5,5.9-5.1,10.1
		l3.4,10.1c1.4,4.2,1.4,8.7,0,12.9c-3.6,10.9-15.3,16.9-26.2,13.3c-10.9-3.6-16.9-15.3-13.3-26.2l3.4-10.1c0.3-0.8,0.4-1.7,0.4-2.5
		c0-4.4-3.6-8-8-8h-64v-64c0-0.9-0.1-1.7-0.4-2.5c-1.4-4.2-5.9-6.5-10.1-5.1l-10.1,3.4c-4.2,1.4-8.7,1.4-12.9,0
		c-10.9-3.6-16.9-15.3-13.3-26.2s15.3-16.9,26.2-13.3l10.1,3.4c0.8,0.3,1.7,0.4,2.5,0.4c4.4,0,8-3.6,8-8V16h176V192z"/>
</g>
</svg>
