<?xml version="1.0" encoding="utf-8"?>
<!-- Generator: Adobe Illustrator 20.0.0, SVG Export Plug-In . SVG Version: 6.00 Build 0)  -->
<svg version="1.1" id="Warstwa_1" xmlns="http://www.w3.org/2000/svg" xmlns:xlink="http://www.w3.org/1999/xlink" x="0px" y="0px"
	 viewBox="0 0 472 400" style="enable-background:new 0 0 472 400;" xml:space="preserve">
<style type="text/css">
	.st0{fill:#97B3C4;}
	.st1{fill:#AEC5D6;}
</style>
<g>
	<g>
		<g>
			<g>
				<g>
					<path class="st0" d="M432,0H176c-22.1,0-40,17.9-40,40v17.7C59.2,67.6,0,124,0,192c0,61.9,50.1,116.4,120,131.7V392
						c0,3.4,2.2,6.5,5.4,7.6c3.2,1.1,6.8,0,8.9-2.7l54.8-71.3c56.6-8.8,101.4-42,120.6-85.6H325l60.5,84.6c1.5,2.1,3.9,3.4,6.5,3.4
						c0.8,0,1.7-0.1,2.4-0.4c3.3-1.1,5.6-4.1,5.6-7.6v-80h32c22.1,0,40-17.9,40-40V40C472,17.9,454.1,0,432,0L432,0z M183.7,310.2
						c-2.1,0.3-4,1.4-5.2,3.1L136,368.5v-51.4c0-3.9-2.8-7.2-6.6-7.9C63.7,297.4,16,248.1,16,192c0-66.2,64.6-120,144-120
						s144,53.8,144,120C304,250.8,253.4,300.6,183.7,310.2L183.7,310.2z M456,200c0,13.3-10.7,24-24,24h-32c-8.8,0-16,7.2-16,16v55
						l-46-64.4c-3-4.1-7.8-6.6-12.9-6.6h-9.6c3-10.4,4.5-21.2,4.6-32c0-75-71.8-136-160-136c-2.7,0-5.3,0.2-8,0.3V40
						c0-13.3,10.7-24,24-24h256c13.3,0,24,10.7,24,24V200z M456,200"/>
				</g>
			</g>
		</g>
	</g>
	<path class="st1" d="M120,152c0-13.3-10.7-24-24-24c-13.3,0-24,10.7-24,24s10.7,24,24,24C109.3,176,120,165.3,120,152L120,152z
		 M88,152c0-4.4,3.6-8,8-8c4.4,0,8,3.6,8,8s-3.6,8-8,8C91.6,160,88,156.4,88,152L88,152z M88,152"/>
	<path class="st1" d="M216,128c-13.3,0-24,10.7-24,24s10.7,24,24,24c13.3,0,24-10.7,24-24S229.3,128,216,128L216,128z M216,160
		c-4.4,0-8-3.6-8-8s3.6-8,8-8c4.4,0,8,3.6,8,8S220.4,160,216,160L216,160z M216,160"/>
	<path class="st1" d="M152,256c-30.9,0-56-21.5-56-48H80c0,35.3,32.3,64,72,64s72-28.7,72-64h-16C208,234.5,182.9,256,152,256
		L152,256z M152,256"/>
	<path class="st1" d="M336,96c-13.3,0-24,10.7-24,24c0,13.3,10.7,24,24,24c13.3,0,24-10.7,24-24C360,106.7,349.3,96,336,96L336,96z
		 M336,128c-4.4,0-8-3.6-8-8c0-4.4,3.6-8,8-8s8,3.6,8,8C344,124.4,340.4,128,336,128L336,128z M336,128"/>
	<path class="st1" d="M400,96c-13.3,0-24,10.7-24,24c0,13.3,10.7,24,24,24s24-10.7,24-24C424,106.7,413.3,96,400,96L400,96z
		 M400,128c-4.4,0-8-3.6-8-8c0-4.4,3.6-8,8-8s8,3.6,8,8C408,124.4,404.4,128,400,128L400,128z M400,128"/>
</g>
</svg>
