<?xml version="1.0" encoding="utf-8"?>
<!-- Generator: Adobe Illustrator 20.0.0, SVG Export Plug-In . SVG Version: 6.00 Build 0)  -->
<svg version="1.1" id="Warstwa_1" xmlns="http://www.w3.org/2000/svg" xmlns:xlink="http://www.w3.org/1999/xlink" x="0px" y="0px"
	 viewBox="0 0 368.3 480.4" style="enable-background:new 0 0 368.3 480.4;" xml:space="preserve">
<style type="text/css">
	.st0{fill:#AEC5D6;}
	.st1{fill:#97B3C4;}
</style>
<g>
	<g>
		<g>
			<g>
				<g>
					<g>
						<path class="st0" d="M152.1,425c-4.4,0-8,4-8,8h16C160.1,429,156.5,425,152.1,425z"/>
					</g>
					<g>
						<path class="st0" d="M120.1,425c-4.4,0-8,4-8,8h16C128.1,429,124.5,425,120.1,425z"/>
					</g>
					<g>
						<path class="st0" d="M88.1,425c-4.4,0-8,4-8,8h16C96.1,429,92.5,425,88.1,425z"/>
					</g>
					<g>
						<path class="st0" d="M248.2,425c-4.4,0-8,4-8,8h16C256.2,429,252.6,425,248.2,425z"/>
					</g>
					<g>
						<path class="st0" d="M280.2,425c-4.4,0-8,4-8,8h16C288.2,429,284.6,425,280.2,425z"/>
					</g>
					<g>
						<path class="st0" d="M216.2,425c-4.4,0-8,4-8,8h16C224.2,429,220.6,425,216.2,425z"/>
					</g>
					<g>
						<path class="st0" d="M184.1,425c-4.4,0-8,4-8,8h16C192.1,429,188.6,425,184.1,425z"/>
					</g>
				</g>
			</g>
			<g>
				<g>
					<path class="st0" d="M112.1,416.9c0,4.4-3.6,8-8,8c-4.4,0-8-3.6-8-8c0-4.5,3.6-8,8-8C108.5,408.9,112.1,412.4,112.1,416.9
						L112.1,416.9z M112.1,416.9"/>
				</g>
			</g>
			<g>
				<g>
					<path class="st0" d="M144.1,416.9c0,4.4-3.6,8-8,8c-4.5,0-8-3.6-8-8c0-4.5,3.6-8,8-8C140.5,408.9,144.1,412.4,144.1,416.9
						L144.1,416.9z M144.1,416.9"/>
				</g>
			</g>
			<g>
				<g>
					<path class="st0" d="M176.2,416.9c0,4.4-3.6,8-8,8c-4.4,0-8-3.6-8-8c0-4.5,3.6-8,8-8C172.6,408.9,176.2,412.4,176.2,416.9
						L176.2,416.9z M176.2,416.9"/>
				</g>
			</g>
			<g>
				<g>
					<path class="st0" d="M208.2,416.9c0,4.4-3.6,8-8,8c-4.4,0-8-3.6-8-8c0-4.5,3.6-8,8-8C204.6,408.9,208.2,412.4,208.2,416.9
						L208.2,416.9z M208.2,416.9"/>
				</g>
			</g>
			<g>
				<g>
					<path class="st0" d="M240.2,416.4c0,4.4-3.6,8-8,8c-4.4,0-8-3.6-8-8c0-4.5,3.6-8,8-8C236.6,408.3,240.2,411.9,240.2,416.4
						L240.2,416.4z M240.2,416.4"/>
				</g>
			</g>
			<g>
				<g>
					<path class="st0" d="M272.2,416.4c0,4.4-3.6,8-8,8c-4.4,0-8-3.6-8-8c0-4.5,3.6-8,8-8C268.7,408.3,272.2,411.9,272.2,416.4
						L272.2,416.4z M272.2,416.4"/>
				</g>
			</g>
			<g>
				<g>
					<path class="st0" d="M128.1,400.9c0,4.4-3.6,8-8,8c-4.4,0-8-3.6-8-8c0-4.4,3.6-8,8-8C124.5,392.9,128.1,396.5,128.1,400.9
						L128.1,400.9z M128.1,400.9"/>
				</g>
			</g>
			<g>
				<g>
					<path class="st0" d="M160.1,400.9c0,4.4-3.6,8-8,8c-4.4,0-8-3.6-8-8c0-4.4,3.6-8,8-8C156.5,392.9,160.1,396.5,160.1,400.9
						L160.1,400.9z M160.1,400.9"/>
				</g>
			</g>
			<g>
				<g>
					<path class="st0" d="M192.1,264.7c0,4.5-3.6,8-8,8c-4.4,0-8-3.6-8-8c0-4.4,3.6-8,8-8C188.6,256.8,192.1,260.3,192.1,264.7
						L192.1,264.7z M192.1,264.7"/>
				</g>
			</g>
			<g>
				<g>
					<path class="st0" d="M144.1,176.7c0,4.4-3.6,8-8,8c-4.5,0-8-3.6-8-8c0-4.5,3.6-8,8-8C140.5,168.7,144.1,172.3,144.1,176.7
						L144.1,176.7z M144.1,176.7"/>
				</g>
			</g>
			<g>
				<g>
					<path class="st0" d="M176.2,176.7c0,4.4-3.6,8-8,8c-4.4,0-8-3.6-8-8c0-4.5,3.6-8,8-8C172.6,168.7,176.2,172.3,176.2,176.7
						L176.2,176.7z M176.2,176.7"/>
				</g>
			</g>
			<g>
				<g>
					<path class="st0" d="M208.2,176.7c0,4.4-3.6,8-8,8c-4.4,0-8-3.6-8-8c0-4.5,3.6-8,8-8C204.6,168.7,208.2,172.3,208.2,176.7
						L208.2,176.7z M208.2,176.7"/>
				</g>
			</g>
			<g>
				<g>
					<path class="st0" d="M240.2,176.7c0,4.4-3.6,8-8,8c-4.4,0-8-3.6-8-8c0-4.5,3.6-8,8-8C236.6,168.7,240.2,172.3,240.2,176.7
						L240.2,176.7z M240.2,176.7"/>
				</g>
			</g>
			<g>
				<g>
					<path class="st0" d="M224.2,160.7c0,4.4-3.6,8-8,8c-4.5,0-8-3.6-8-8c0-4.4,3.6-8,8-8C220.6,152.7,224.2,156.3,224.2,160.7
						L224.2,160.7z M224.2,160.7"/>
				</g>
			</g>
			<g>
				<g>
					<path class="st0" d="M240.2,144.6c0,4.5-3.6,8-8,8c-4.4,0-8-3.6-8-8c0-4.4,3.6-8,8-8C236.6,136.7,240.2,140.2,240.2,144.6
						L240.2,144.6z M240.2,144.6"/>
				</g>
			</g>
			<g>
				<g>
					<path class="st0" d="M160.1,160.7c0,4.4-3.6,8-8,8c-4.4,0-8-3.6-8-8c0-4.4,3.6-8,8-8C156.5,152.7,160.1,156.3,160.1,160.7
						L160.1,160.7z M160.1,160.7"/>
				</g>
			</g>
			<g>
				<g>
					<path class="st0" d="M192.1,160.7c0,4.4-3.6,8-8,8c-4.4,0-8-3.6-8-8c0-4.4,3.6-8,8-8C188.6,152.7,192.1,156.3,192.1,160.7
						L192.1,160.7z M192.1,160.7"/>
				</g>
			</g>
			<g>
				<g>
					<path class="st0" d="M144.1,144.6c0,4.5-3.6,8-8,8c-4.5,0-8-3.6-8-8c0-4.4,3.6-8,8-8C140.5,136.7,144.1,140.2,144.1,144.6
						L144.1,144.6z M144.1,144.6"/>
				</g>
			</g>
			<g>
				<g>
					<path class="st0" d="M160.1,192.7c0,4.4-3.6,8-8,8c-4.4,0-8-3.6-8-8c0-4.4,3.6-8,8-8C156.5,184.7,160.1,188.3,160.1,192.7
						L160.1,192.7z M160.1,192.7"/>
				</g>
			</g>
			<g>
				<g>
					<path class="st0" d="M176.2,208.7c0,4.4-3.6,8-8,8c-4.4,0-8-3.6-8-8c0-4.4,3.6-8,8-8C172.6,200.7,176.2,204.3,176.2,208.7
						L176.2,208.7z M176.2,208.7"/>
				</g>
			</g>
			<g>
				<g>
					<path class="st0" d="M208.2,208.7c0,4.4-3.6,8-8,8c-4.4,0-8-3.6-8-8c0-4.4,3.6-8,8-8C204.6,200.7,208.2,204.3,208.2,208.7
						L208.2,208.7z M208.2,208.7"/>
				</g>
			</g>
			<g>
				<g>
					<path class="st0" d="M192.1,192.7c0,4.4-3.6,8-8,8c-4.4,0-8-3.6-8-8c0-4.4,3.6-8,8-8C188.6,184.7,192.1,188.3,192.1,192.7
						L192.1,192.7z M192.1,192.7"/>
				</g>
			</g>
			<g>
				<g>
					<path class="st0" d="M224.2,192.7c0,4.4-3.6,8-8,8c-4.5,0-8-3.6-8-8c0-4.4,3.6-8,8-8C220.6,184.7,224.2,188.3,224.2,192.7
						L224.2,192.7z M224.2,192.7"/>
				</g>
			</g>
			<g>
				<g>
					<path class="st0" d="M192.1,288.8c0,4.4-3.6,8-8,8c-4.4,0-8-3.6-8-8c0-4.4,3.6-8,8-8C188.6,280.8,192.1,284.4,192.1,288.8
						L192.1,288.8z M192.1,288.8"/>
				</g>
			</g>
			<g>
				<g>
					<path class="st0" d="M192.1,312.8c0,4.4-3.6,8-8,8c-4.4,0-8-3.6-8-8c0-4.4,3.6-8,8-8C188.6,304.8,192.1,308.4,192.1,312.8
						L192.1,312.8z M192.1,312.8"/>
				</g>
			</g>
			<g>
				<g>
					<path class="st0" d="M192.1,336.8c0,4.4-3.6,8-8,8c-4.4,0-8-3.6-8-8c0-4.5,3.6-8,8-8C188.6,328.8,192.1,332.4,192.1,336.8
						L192.1,336.8z M192.1,336.8"/>
				</g>
			</g>
			<g>
				<g>
					<path class="st0" d="M192.1,360.8c0,4.4-3.6,8-8,8c-4.4,0-8-3.6-8-8c0-4.4,3.6-8,8-8C188.6,352.8,192.1,356.4,192.1,360.8
						L192.1,360.8z M192.1,360.8"/>
				</g>
			</g>
			<g>
				<g>
					<path class="st0" d="M192.1,384.8c0,4.5-3.6,8-8,8c-4.4,0-8-3.6-8-8c0-4.4,3.6-8,8-8C188.6,376.9,192.1,380.4,192.1,384.8
						L192.1,384.8z M192.1,384.8"/>
				</g>
			</g>
			<g>
				<g>
					<path class="st0" d="M224.2,400.3c0,4.4-3.6,8-8,8c-4.5,0-8-3.6-8-8c0-4.4,3.6-8,8-8C220.6,392.3,224.2,395.9,224.2,400.3
						L224.2,400.3z M224.2,400.3"/>
				</g>
			</g>
			<g>
				<g>
					<path class="st0" d="M256.2,400.3c0,4.4-3.6,8-8,8c-4.4,0-8-3.6-8-8c0-4.4,3.6-8,8-8C252.6,392.3,256.2,395.9,256.2,400.3
						L256.2,400.3z M256.2,400.3"/>
				</g>
			</g>
		</g>
	</g>
	<path class="st1" d="M344.3,432.3h-40v-48c0-60.8-33.2-115.6-85.8-144.1c52.6-28.5,85.8-83.3,85.8-144.1V48h40
		c13.3,0,24.1-10.8,24.1-24c0-13.2-10.8-24-24.1-24H24C10.8,0,0,10.8,0,24c0,13.3,10.8,24,24,24h40v48.1
		c0,60.8,33.2,115.6,85.8,144.1C97.3,268.7,64,323.5,64,384.3v48H24c-13.2,0-24,10.8-24,24.1c0,13.2,10.8,24,24,24h320.3
		c13.3,0,24.1-10.8,24.1-24C368.3,443.1,357.5,432.3,344.3,432.3L344.3,432.3z M24,32c-4.4,0-8-3.6-8-8c0-4.4,3.6-8,8-8h320.3
		c4.4,0,8,3.6,8,8c0,4.4-3.6,8-8,8H24z M80.1,96.1V48h208.2v48.1c0,59.5-35.1,112.7-89.7,136.1h-28.8
		C115.2,208.8,80.1,155.6,80.1,96.1L80.1,96.1z M80.1,384.3c0-59.5,35.1-112.7,89.7-136.1h28.8c54.5,23.4,89.7,76.6,89.7,136.1v48
		H80.1V384.3z M344.3,464.4H24c-4.4,0-8-3.6-8-8c0-4.4,3.6-8,8-8h320.3c4.4,0,8,3.6,8,8C352.3,460.8,348.7,464.4,344.3,464.4
		L344.3,464.4z M344.3,464.4"/>
</g>
</svg>
