<?xml version="1.0" encoding="utf-8"?>
<!-- Generator: Adobe Illustrator 20.0.0, SVG Export Plug-In . SVG Version: 6.00 Build 0)  -->
<svg version="1.1" id="Warstwa_1" xmlns="http://www.w3.org/2000/svg" xmlns:xlink="http://www.w3.org/1999/xlink" x="0px" y="0px"
	 viewBox="0 0 368.3 480.4" style="enable-background:new 0 0 368.3 480.4;" xml:space="preserve">
<style type="text/css">
	.st0{fill:#705EA6;}
	.st1{fill:#382873;}
</style>
<g>
	<g>
		<path class="st0" d="M152.1,425.3c-4.4,0-8,3.6-8,8h16C160.1,428.9,156.5,425.3,152.1,425.3z"/>
		<path class="st0" d="M120.1,425.3c-4.4,0-8,3.6-8,8h16C128.1,428.9,124.5,425.3,120.1,425.3z"/>
		<path class="st0" d="M88.1,425.3c-4.4,0-8,3.6-8,8h16C96.1,428.9,92.5,425.3,88.1,425.3z"/>
		<path class="st0" d="M248.2,425.3c-4.4,0-8,3.6-8,8h16C256.2,428.9,252.6,425.3,248.2,425.3z"/>
		<path class="st0" d="M280.2,425.3c-4.4,0-8,3.6-8,8h16C288.2,428.9,284.6,425.3,280.2,425.3z"/>
		<path class="st0" d="M216.2,425.3c-4.4,0-8,3.6-8,8h16C224.2,428.9,220.6,425.3,216.2,425.3z"/>
		<path class="st0" d="M184.1,425.3c-4.4,0-8,3.6-8,8h16C192.1,428.9,188.6,425.3,184.1,425.3z"/>
	</g>
	<path class="st0" d="M112.1,416.4c0,4.4-3.6,8-8,8c-4.4,0-8-3.6-8-8c0-4.5,3.6-8,8-8C108.5,408.3,112.1,411.9,112.1,416.4
		L112.1,416.4z M112.1,416.4"/>
	<path class="st0" d="M144.1,416.4c0,4.4-3.6,8-8,8c-4.5,0-8-3.6-8-8c0-4.5,3.6-8,8-8C140.5,408.3,144.1,411.9,144.1,416.4
		L144.1,416.4z M144.1,416.4"/>
	<path class="st0" d="M176.2,416.4c0,4.4-3.6,8-8,8c-4.4,0-8-3.6-8-8c0-4.5,3.6-8,8-8C172.6,408.3,176.2,411.9,176.2,416.4
		L176.2,416.4z M176.2,416.4"/>
	<path class="st0" d="M208.2,416.4c0,4.4-3.6,8-8,8c-4.4,0-8-3.6-8-8c0-4.5,3.6-8,8-8C204.6,408.3,208.2,411.9,208.2,416.4
		L208.2,416.4z M208.2,416.4"/>
	<path class="st0" d="M240.2,416.4c0,4.4-3.6,8-8,8c-4.4,0-8-3.6-8-8c0-4.5,3.6-8,8-8C236.6,408.3,240.2,411.9,240.2,416.4
		L240.2,416.4z M240.2,416.4"/>
	<path class="st0" d="M272.2,416.4c0,4.4-3.6,8-8,8c-4.4,0-8-3.6-8-8c0-4.5,3.6-8,8-8C268.7,408.3,272.2,411.9,272.2,416.4
		L272.2,416.4z M272.2,416.4"/>
	<path class="st0" d="M128.1,400.3c0,4.4-3.6,8-8,8c-4.4,0-8-3.6-8-8c0-4.4,3.6-8,8-8C124.5,392.3,128.1,395.9,128.1,400.3
		L128.1,400.3z M128.1,400.3"/>
	<path class="st0" d="M160.1,400.3c0,4.4-3.6,8-8,8c-4.4,0-8-3.6-8-8c0-4.4,3.6-8,8-8C156.5,392.3,160.1,395.9,160.1,400.3
		L160.1,400.3z M160.1,400.3"/>
	<path class="st0" d="M192.1,264.2c0,4.5-3.6,8-8,8c-4.4,0-8-3.6-8-8c0-4.4,3.6-8,8-8C188.6,256.2,192.1,259.8,192.1,264.2
		L192.1,264.2z M192.1,264.2"/>
	<path class="st0" d="M144.1,176.2c0,4.4-3.6,8-8,8c-4.5,0-8-3.6-8-8c0-4.5,3.6-8,8-8C140.5,168.1,144.1,171.7,144.1,176.2
		L144.1,176.2z M144.1,176.2"/>
	<path class="st0" d="M176.2,176.2c0,4.4-3.6,8-8,8c-4.4,0-8-3.6-8-8c0-4.5,3.6-8,8-8C172.6,168.1,176.2,171.7,176.2,176.2
		L176.2,176.2z M176.2,176.2"/>
	<path class="st0" d="M208.2,176.2c0,4.4-3.6,8-8,8c-4.4,0-8-3.6-8-8c0-4.5,3.6-8,8-8C204.6,168.1,208.2,171.7,208.2,176.2
		L208.2,176.2z M208.2,176.2"/>
	<path class="st0" d="M240.2,176.2c0,4.4-3.6,8-8,8c-4.4,0-8-3.6-8-8c0-4.5,3.6-8,8-8C236.6,168.1,240.2,171.7,240.2,176.2
		L240.2,176.2z M240.2,176.2"/>
	<path class="st0" d="M224.2,160.1c0,4.4-3.6,8-8,8c-4.5,0-8-3.6-8-8c0-4.4,3.6-8,8-8C220.6,152.1,224.2,155.7,224.2,160.1
		L224.2,160.1z M224.2,160.1"/>
	<path class="st0" d="M240.2,144.1c0,4.5-3.6,8-8,8c-4.4,0-8-3.6-8-8c0-4.4,3.6-8,8-8C236.6,136.1,240.2,139.7,240.2,144.1
		L240.2,144.1z M240.2,144.1"/>
	<path class="st0" d="M160.1,160.1c0,4.4-3.6,8-8,8c-4.4,0-8-3.6-8-8c0-4.4,3.6-8,8-8C156.5,152.1,160.1,155.7,160.1,160.1
		L160.1,160.1z M160.1,160.1"/>
	<path class="st0" d="M192.1,160.1c0,4.4-3.6,8-8,8c-4.4,0-8-3.6-8-8c0-4.4,3.6-8,8-8C188.6,152.1,192.1,155.7,192.1,160.1
		L192.1,160.1z M192.1,160.1"/>
	<path class="st0" d="M144.1,144.1c0,4.5-3.6,8-8,8c-4.5,0-8-3.6-8-8c0-4.4,3.6-8,8-8C140.5,136.1,144.1,139.7,144.1,144.1
		L144.1,144.1z M144.1,144.1"/>
	<path class="st0" d="M160.1,192.1c0,4.4-3.6,8-8,8c-4.4,0-8-3.6-8-8c0-4.4,3.6-8,8-8C156.5,184.1,160.1,187.7,160.1,192.1
		L160.1,192.1z M160.1,192.1"/>
	<path class="st0" d="M176.2,208.2c0,4.4-3.6,8-8,8c-4.4,0-8-3.6-8-8c0-4.4,3.6-8,8-8C172.6,200.2,176.2,203.8,176.2,208.2
		L176.2,208.2z M176.2,208.2"/>
	<path class="st0" d="M208.2,208.2c0,4.4-3.6,8-8,8c-4.4,0-8-3.6-8-8c0-4.4,3.6-8,8-8C204.6,200.2,208.2,203.8,208.2,208.2
		L208.2,208.2z M208.2,208.2"/>
	<path class="st0" d="M192.1,192.1c0,4.4-3.6,8-8,8c-4.4,0-8-3.6-8-8c0-4.4,3.6-8,8-8C188.6,184.1,192.1,187.7,192.1,192.1
		L192.1,192.1z M192.1,192.1"/>
	<path class="st0" d="M224.2,192.1c0,4.4-3.6,8-8,8c-4.5,0-8-3.6-8-8c0-4.4,3.6-8,8-8C220.6,184.1,224.2,187.7,224.2,192.1
		L224.2,192.1z M224.2,192.1"/>
	<path class="st0" d="M192.1,288.2c0,4.4-3.6,8-8,8c-4.4,0-8-3.6-8-8c0-4.4,3.6-8,8-8C188.6,280.2,192.1,283.8,192.1,288.2
		L192.1,288.2z M192.1,288.2"/>
	<path class="st0" d="M192.1,312.2c0,4.4-3.6,8-8,8c-4.4,0-8-3.6-8-8c0-4.4,3.6-8,8-8C188.6,304.2,192.1,307.8,192.1,312.2
		L192.1,312.2z M192.1,312.2"/>
	<path class="st0" d="M192.1,336.3c0,4.4-3.6,8-8,8c-4.4,0-8-3.6-8-8c0-4.5,3.6-8,8-8C188.6,328.3,192.1,331.8,192.1,336.3
		L192.1,336.3z M192.1,336.3"/>
	<path class="st0" d="M192.1,360.3c0,4.4-3.6,8-8,8c-4.4,0-8-3.6-8-8c0-4.4,3.6-8,8-8C188.6,352.3,192.1,355.9,192.1,360.3
		L192.1,360.3z M192.1,360.3"/>
	<path class="st0" d="M192.1,384.3c0,4.5-3.6,8-8,8c-4.4,0-8-3.6-8-8c0-4.4,3.6-8,8-8C188.6,376.3,192.1,379.9,192.1,384.3
		L192.1,384.3z M192.1,384.3"/>
	<path class="st0" d="M224.2,400.3c0,4.4-3.6,8-8,8c-4.5,0-8-3.6-8-8c0-4.4,3.6-8,8-8C220.6,392.3,224.2,395.9,224.2,400.3
		L224.2,400.3z M224.2,400.3"/>
	<path class="st0" d="M256.2,400.3c0,4.4-3.6,8-8,8c-4.4,0-8-3.6-8-8c0-4.4,3.6-8,8-8C252.6,392.3,256.2,395.9,256.2,400.3
		L256.2,400.3z M256.2,400.3"/>
	<path class="st1" d="M344.3,432.3h-40v-48c0-60.8-33.2-115.6-85.8-144.1c52.6-28.5,85.8-83.3,85.8-144.1V48h40
		c13.3,0,24.1-10.8,24.1-24c0-13.2-10.8-24-24.1-24H24C10.8,0,0,10.8,0,24c0,13.3,10.8,24,24,24h40v48.1
		c0,60.8,33.2,115.6,85.8,144.1C97.3,268.7,64,323.5,64,384.3v48H24c-13.2,0-24,10.8-24,24.1c0,13.2,10.8,24,24,24h320.3
		c13.3,0,24.1-10.8,24.1-24C368.3,443.1,357.5,432.3,344.3,432.3L344.3,432.3z M24,32c-4.4,0-8-3.6-8-8c0-4.4,3.6-8,8-8h320.3
		c4.4,0,8,3.6,8,8c0,4.4-3.6,8-8,8H24z M80.1,96.1V48h208.2v48.1c0,59.5-35.1,112.7-89.7,136.1h-28.8
		C115.2,208.8,80.1,155.6,80.1,96.1L80.1,96.1z M80.1,384.3c0-59.5,35.1-112.7,89.7-136.1h28.8c54.5,23.4,89.7,76.6,89.7,136.1v48
		H80.1V384.3z M344.3,464.4H24c-4.4,0-8-3.6-8-8c0-4.4,3.6-8,8-8h320.3c4.4,0,8,3.6,8,8C352.3,460.8,348.7,464.4,344.3,464.4
		L344.3,464.4z M344.3,464.4"/>
</g>
</svg>
