<?xml version="1.0" encoding="utf-8"?>
<!-- Generator: Adobe Illustrator 20.0.0, SVG Export Plug-In . SVG Version: 6.00 Build 0)  -->
<svg version="1.1" id="Warstwa_1" xmlns="http://www.w3.org/2000/svg" xmlns:xlink="http://www.w3.org/1999/xlink" x="0px" y="0px"
	 viewBox="0 0 611.7 623.4" style="enable-background:new 0 0 611.7 623.4;" xml:space="preserve">
<style type="text/css">
	.st0{fill:#13212E;}
</style>
<g>
	<polygon class="st0" points="125.4,232.4 122,235.8 118.6,232.4 114.5,236.5 117.9,239.9 114.5,243.3 118.6,247.4 122,244 
		125.4,247.4 129.5,243.3 126.1,239.9 129.5,236.5 	"/>
	<polygon class="st0" points="85.3,398.6 81.9,402 78.5,398.6 74.4,402.7 77.8,406.1 74.4,409.5 78.5,413.5 81.9,410.2 85.3,413.5 
		89.4,409.5 86,406.1 89.4,402.7 	"/>
	<polygon class="st0" points="319,110 319,105.2 323.7,105.2 323.7,99.4 319,99.4 319,94.7 313.2,94.7 313.2,99.4 308.4,99.4 
		308.4,105.2 313.2,105.2 313.2,110 	"/>
	<polygon class="st0" points="353.1,532.7 349.7,536.1 346.3,532.7 342.2,536.8 345.6,540.2 342.2,543.6 346.3,547.6 349.7,544.3 
		353.1,547.6 357.2,543.6 353.8,540.2 357.2,536.8 	"/>
	<polygon class="st0" points="534.8,393.2 531.4,396.6 528,393.2 523.9,397.3 527.3,400.6 523.9,404 528,408.1 531.4,404.7 
		534.8,408.1 538.9,404 535.5,400.6 538.9,397.3 	"/>
	<polygon class="st0" points="606.8,279.1 603.5,282.5 600.1,279.1 596,283.2 599.4,286.6 596,290 600.1,294.1 603.5,290.7 
		606.8,294.1 610.9,290 607.5,286.6 610.9,283.2 	"/>
	<path class="st0" d="M152.6,384.8c-1.6,0-2.8,1.3-2.8,2.8v13.5c0,1.6,1.3,2.8,2.8,2.8s2.8-1.3,2.8-2.8v-13.5
		C155.4,386.1,154.1,384.8,152.6,384.8z"/>
	<path class="st0" d="M155.4,333.8c0-1.6-1.3-2.8-2.8-2.8s-2.8,1.3-2.8,2.8v13.5c0,1.6,1.3,2.8,2.8,2.8s2.8-1.3,2.8-2.8V333.8z"/>
	<path class="st0" d="M218.3,267.6c1.6,0,2.8-1.3,2.8-2.8c0-1.6-1.3-2.8-2.8-2.8h-13.5c-1.6,0-2.8,1.3-2.8,2.8
		c0,1.6,1.3,2.8,2.8,2.8H218.3z"/>
	<path class="st0" d="M248.1,264.7c0-1.6-1.3-2.8-2.8-2.8h-13.5c-1.6,0-2.8,1.3-2.8,2.8c0,1.6,1.3,2.8,2.8,2.8h13.5
		C246.8,267.6,248.1,266.3,248.1,264.7z"/>
	<path class="st0" d="M155.4,360.7c0-1.6-1.3-2.8-2.8-2.8s-2.8,1.3-2.8,2.8v13.5c0,1.6,1.3,2.8,2.8,2.8s2.8-1.3,2.8-2.8V360.7z"/>
	<path class="st0" d="M155.4,279.9c0-1.6-1.3-2.8-2.8-2.8s-2.8,1.3-2.8,2.8v13.5c0,1.6,1.3,2.8,2.8,2.8s2.8-1.3,2.8-2.8V279.9z"/>
	<path class="st0" d="M155.4,306.8c0-1.6-1.3-2.8-2.8-2.8s-2.8,1.3-2.8,2.8v13.5c0,1.6,1.3,2.8,2.8,2.8s2.8-1.3,2.8-2.8V306.8z"/>
	<path class="st0" d="M167.2,264.7c0-1.6-1.3-2.8-2.8-2.8h-11.8c-1.6,0-2.8,1.3-2.8,2.8v1.7c0,1.6,1.3,2.8,2.8,2.8
		c1.1,0,2.1-0.7,2.6-1.7h9.2C166,267.6,167.2,266.3,167.2,264.7z"/>
	<path class="st0" d="M352.6,0h-73.1v49h73.1V0z M346.8,43.2h-61.5V5.8h61.5V43.2z"/>
	<path class="st0" d="M316.1,42c9.6,0,17.5-7.8,17.5-17.5c0-9.6-7.8-17.5-17.5-17.5c-9.6,0-17.5,7.8-17.5,17.5
		C298.6,34.1,306.4,42,316.1,42z M316.1,12.8c6.5,0,11.7,5.3,11.7,11.7c0,6.5-5.2,11.7-11.7,11.7s-11.7-5.3-11.7-11.7
		C304.4,18,309.6,12.8,316.1,12.8z"/>
	<rect x="281.3" y="54.3" class="st0" width="68.4" height="5.8"/>
	<rect x="281.3" y="69.9" class="st0" width="68.4" height="5.8"/>
	<path class="st0" d="M505.1,456.6l51.7,51.7l34.6-34.6l-51.7-51.7L505.1,456.6z M556.7,500l-43.5-43.5l26.5-26.5l43.5,43.5
		L556.7,500z"/>
	<path class="st0" d="M535.9,477.4c3.3,3.3,7.7,5.1,12.4,5.1s9.1-1.8,12.4-5.1c6.8-6.8,6.8-17.9,0-24.7c-3.3-3.3-7.7-5.1-12.4-5.1
		s-9.1,1.8-12.4,5.1C529,459.5,529,470.6,535.9,477.4z M539.9,456.8c2.2-2.2,5.2-3.4,8.3-3.4c3.1,0,6.1,1.2,8.3,3.4
		c4.6,4.6,4.6,12,0,16.6c-2.2,2.2-5.2,3.4-8.3,3.4c-3.1,0-6.1-1.2-8.3-3.4C535.4,468.8,535.4,461.4,539.9,456.8z"/>
	
		<rect x="521.8" y="453.6" transform="matrix(0.7071 -0.7071 0.7071 0.7071 -191.2731 513.8563)" class="st0" width="5.8" height="68.4"/>
	
		<rect x="510.8" y="464.6" transform="matrix(0.7071 -0.7071 0.7071 0.7071 -202.2413 509.3253)" class="st0" width="5.8" height="68.4"/>
	<circle class="st0" cx="194.1" cy="85.7" r="4.5"/>
	<path class="st0" d="M226.4,588.8l34.6,34.6l51.7-51.7l-34.6-34.6L226.4,588.8z M261.1,615.3l-26.5-26.5l43.5-43.5l26.5,26.5
		L261.1,615.3z"/>
	<path class="st0" d="M257.2,567.9c-3.3,3.3-5.1,7.7-5.1,12.4c0,4.7,1.8,9.1,5.1,12.4c3.3,3.3,7.7,5.1,12.4,5.1s9.1-1.8,12.4-5.1
		c3.3-3.3,5.1-7.7,5.1-12.4c0-4.7-1.8-9.1-5.1-12.4c-3.3-3.3-7.7-5.1-12.4-5.1S260.5,564.6,257.2,567.9z M281.3,580.3
		c0,3.1-1.2,6.1-3.4,8.3c-2.2,2.2-5.1,3.4-8.3,3.4s-6.1-1.2-8.3-3.4c-2.2-2.2-3.4-5.2-3.4-8.3c0-3.1,1.2-6.1,3.4-8.3
		c2.2-2.2,5.2-3.4,8.3-3.4c3.1,0,6.1,1.2,8.3,3.4C280.1,574.2,281.3,577.2,281.3,580.3z"/>
	<circle class="st0" cx="424.1" cy="122.6" r="4.2"/>
	<path class="st0" d="M45.8,102.7h60.7c0.5,2.3,1.5,4.4,3,6.2v80.8h71.2v67.5l0,4.7h-2.7c-1.6,0-2.8,1.3-2.8,2.8
		c0,1.6,1.3,2.8,2.8,2.8h13.5c1.6,0,2.8-1.3,2.8-2.8c0-1.6-1.3-2.8-2.8-2.8h-4.9l0.5-89c0-5.8,1.8-9.1,3.5-10.9
		c0.9-0.8,2-1.5,3.2-2.1h8.8v68.2l7.2,6.9l6.2-7.3l-1.4-67.9h2v-20.2h0v-1l5.8,0.9c1,0.2,2,0.2,3,0.2c3.3,0,6.4-0.8,9.1-2.3v18.2
		c0,1,0.5,1.9,1.3,2.4c-1.1,6,2.6,14,9.4,19.8c3.3,2.8,7.2,5.1,11,7.4c0.1,0.1,0.2,0.1,0.3,0.2v79.7l0,0c0.2,1.4,1.2,2.4,2.6,2.4
		h8.1c0.1,1.4,1.4,2.6,2.8,2.6c1.6,0,2.8-1.3,2.8-2.8v-2.6c0-1.6-1.3-2.8-2.8-2.8h-7.8V189c5.1,3.4,9.3,7.2,11.1,13
		c0.4,1.3,1.1,10.6,1.6,17.3c0.4,4.5,0.7,9.1,1.1,12.5c0.4,3.8,0.6,6,1.3,7.2c-0.2,1-0.3,2.1-0.2,3.1l0.2,4
		c0.3,7.4,6.4,13.2,13.8,13.2c0.2,0,0.4,0,0.7,0c7.6-0.4,13.6-6.9,13.2-14.5l-0.2-4c0-0.7-0.1-1.4-0.3-2.1l0.1,0l-5-48.5l-0.7-0.7
		c-13.2-13.8-28.2-26-42.4-34.3c-4.6-2.7-8.7-4.1-12-4.1c-1.6,0-3,0.3-4.3,0.9v-17.5c0-0.7,0-1.2-0.1-1.5c2.1-2.6,3.6-5.8,4.2-9.3
		l9-57.4c0.8-5.1-0.4-10.1-3.4-14.3c-3-4.2-7.5-6.9-12.5-7.7l-34.9-5.5c-2.5-9.4-11-16.1-20.9-16.1c-11.9,0-21.7,9.7-21.7,21.7
		c0,10.2,7,18.8,16.7,21.1L174.2,79h-8.2v-0.9c0-1.6-1.3-2.8-2.8-2.8h-42.2v-1.9c0-1.6-1.3-2.8-2.8-2.8H45.8c-1.6,0-2.8,1.3-2.8,2.8
		v26.5C42.9,101.4,44.2,102.7,45.8,102.7z M298.6,241.1l0.2,4c0.2,4.5-3.2,8.3-7.7,8.5c-0.1,0-0.3,0-0.4,0c-4.3,0-7.9-3.4-8.1-7.7
		l-0.2-4c0-0.7,0-1.3,0.2-1.9c4.2-0.2,11.5-0.6,15.6-0.8C298.4,239.7,298.6,240.4,298.6,241.1z M241.3,158.6
		c0.3-0.8,0.8-1.7,2.9-1.7c1.6,0,4.5,0.6,9.1,3.3c13.4,7.9,27.7,19.5,40.4,32.6l4.2,40.5c-4.3,0.2-12.2,0.7-16.3,0.9
		c-0.4-3.4-0.9-10.1-1.3-15.3c-0.9-11.7-1.4-17-1.9-18.5c-3.1-10.2-11.5-15.2-19.7-20c-3.7-2.2-7.2-4.3-10.2-6.8
		C242.6,168.5,240.1,161.8,241.3,158.6z M180.6,170.8v13.2h-65.4v-72h15.1v57.8h50.3C180.7,170.1,180.6,170.4,180.6,170.8z
		 M238.3,122.8c-1,6.6-6.6,11.3-13.2,11.3c-0.7,0-1.4-0.1-2.1-0.2l-37-5.9c-7.3-1.2-12.3-8-11.1-15.4L189,116l1.3-5.6l-14.7-3.5
		l2-12.7h6.4c1.6,0,2.8-1.3,2.8-2.8v-9.5c0-1.6-1.3-2.8-2.8-2.8h-4l2-12.6l39,7.2c-0.7,6.4-1.5,22.1,6.2,31.4
		c3.2,3.9,7.5,6.1,12.7,6.8L238.3,122.8z M165.4,44.4c0-8.8,7.1-15.9,15.9-15.9c7.8,0,14.4,5.6,15.7,13.3l0.3,2.1l38.9,6.2
		c3.5,0.6,6.7,2.5,8.8,5.4c2.1,2.9,3,6.4,2.4,10l-6.4,40.7c-3.8-0.5-6.9-2.1-9.2-4.8c-4-4.7-5.1-12-5.3-18.2c0.4,0,0.7,0.1,1,0.1
		c5.9,0,11-3.9,11.3-4.1l-1.8-2.3l0,0l0,0l-1.8-2.3c-0.1,0-4.6,3.4-8.7,2.8c0.1-1.6,0.2-2.9,0.3-3.9c8-3.1,9.2-12.3,8.6-17l-5.7,0.7
		c1,8.1-4,10.6-5.7,11.1l-47.5-8.7C170,57.6,165.4,51.5,165.4,44.4z M165.9,84.7h15.3v3.8h-15.3V84.7z M165.9,95.2v-0.9h5.9
		l-2.7,17.5c-1.7,10.5,5.5,20.3,15.9,22l25.6,4.1v2h0V153h-11.2c-2.4,0-4.7,0.4-6.8,1.2l-0.1,0c-0.3,0.1-4.1,1-7.2,4.9
		c-1.3,1.4-2.4,3.1-3.2,4.9h-45.9v-57.5c1.1-2,1.7-4.2,1.7-6.6c0-0.6-0.1-1.3-0.1-1.9h25.3C164.6,98,165.9,96.7,165.9,95.2z
		 M121.5,80.9h38.8v0.9v9.5v0.9h-38.8V80.9z M120.9,99.9V98h11c0.1,0.6,0.2,1.2,0.2,1.9c0,2.6-1.2,4.8-3.1,6.3h-14.1
		c-1.1-0.9-2-2.1-2.5-3.5h5.6C119.6,102.7,120.9,101.4,120.9,99.9z M48.6,76.2h66.6V97H48.6V76.2z"/>
	<path class="st0" d="M173,298c0,10,8.1,18.1,18.1,18.1s18.1-8.1,18.1-18.1c0-10-8.1-18.1-18.1-18.1S173,288,173,298z M203.6,298
		c0,6.9-5.6,12.4-12.4,12.4s-12.4-5.6-12.4-12.4c0-6.9,5.6-12.4,12.4-12.4S203.6,291.1,203.6,298z"/>
	<path class="st0" d="M235.6,329c0-1.6-1.3-2.8-2.8-2.8H173c-1.6,0-2.8,1.3-2.8,2.8c0,1.6,1.3,2.8,2.8,2.8h59.8
		C234.3,331.9,235.6,330.6,235.6,329z"/>
	<path class="st0" d="M226.4,342.4c0-1.6-1.3-2.8-2.8-2.8h-51.2c-1.6,0-2.8,1.3-2.8,2.8c0,1.6,1.3,2.8,2.8,2.8h51.2
		C225.2,345.2,226.4,343.9,226.4,342.4z"/>
	<path class="st0" d="M221.2,354.1H173c-1.6,0-2.8,1.3-2.8,2.8c0,1.6,1.3,2.8,2.8,2.8h48.2c1.6,0,2.8-1.3,2.8-2.8
		C224,355.4,222.8,354.1,221.2,354.1z"/>
	<path class="st0" d="M30.7,286.5l53.1,12.5c0.2,0.1,0.4,0.1,0.6,0.1c0,0,0,0,0,0c1.6,0,2.8-1.3,2.8-2.8c0-0.4-0.1-0.7-0.2-1
		l-12.5-53.2c0-0.1,0-0.1,0-0.2c-1.5-7.2-5-13.8-10.3-19c-7.1-7.1-16.6-11-26.7-11s-19.5,3.9-26.7,11c-14.7,14.7-14.7,38.6,0,53.3
		C16.4,281.5,23.3,285.1,30.7,286.5z M15,226.8c6-6,14.1-9.4,22.6-9.4s16.6,3.3,22.6,9.4c4.5,4.5,7.5,10.2,8.8,16.4
		c0,0.1,0.1,0.2,0.1,0.3l11.5,48.9l-48.8-11.4c-6.4-1.2-12.2-4.2-16.8-8.8C2.6,259.6,2.6,239.3,15,226.8z"/>
	<path class="st0" d="M37.4,266c4.5,0,8.7-1.7,11.9-4.9c6.6-6.6,6.6-17.2,0-23.8c-3.2-3.2-7.4-4.9-11.9-4.9c-4.5,0-8.7,1.7-11.9,4.9
		c-6.6,6.6-6.6,17.2,0,23.8C28.7,264.2,32.9,266,37.4,266z M29.5,241.3c2.1-2.1,4.9-3.3,7.9-3.3c3,0,5.8,1.2,7.9,3.3
		c4.3,4.3,4.3,11.4,0,15.7c-2.1,2.1-4.9,3.3-7.9,3.3c-3,0-5.8-1.2-7.9-3.3C25.2,252.7,25.2,245.6,29.5,241.3z"/>
	<path class="st0" d="M547.4,201c-5.4,5.4-9,12.3-10.4,19.7l-12.5,53.1c-0.2,1,0.1,2,0.8,2.7c0.5,0.5,1.3,0.8,2,0.8
		c0.2,0,0.4,0,0.6-0.1l53.6-12.6c0.1,0,0.1,0,0.2,0c7.2-1.5,13.8-5,19-10.3c7.1-7.1,11-16.6,11-26.7c0-10.1-3.9-19.5-11-26.7
		c-7.1-7.1-16.6-11-26.7-11C563.9,189.9,554.5,193.8,547.4,201z M606,227.6c0,8.6-3.3,16.6-9.4,22.6c-4.5,4.5-10.2,7.5-16.4,8.8
		c-0.1,0-0.2,0.1-0.3,0.1l-48.8,11.5l11.4-48.8c1.2-6.4,4.2-12.2,8.8-16.8c6-6,14.1-9.4,22.6-9.4c8.6,0,16.6,3.3,22.6,9.4
		C602.7,211,606,219.1,606,227.6z"/>
	<path class="st0" d="M562.4,239.3c3.2,3.2,7.4,4.9,11.9,4.9c4.5,0,8.7-1.7,11.9-4.9c6.6-6.6,6.6-17.2,0-23.8
		c-3.2-3.2-7.4-4.9-11.9-4.9c-4.5,0-8.7,1.7-11.9,4.9C555.8,222,555.8,232.7,562.4,239.3z M566.4,219.5c2.1-2.1,4.9-3.3,7.9-3.3
		c3,0,5.8,1.2,7.9,3.3c4.3,4.3,4.3,11.4,0,15.7c-2.1,2.1-4.9,3.3-7.9,3.3c-3,0-5.8-1.2-7.9-3.3C562.1,230.9,562.1,223.8,566.4,219.5
		z"/>
	<path class="st0" d="M508,233.8c-2.9-1.3-5.9-2-9-2c-8.6,0-16.4,5-19.9,12.9c-1.8,4.1-2.4,8.5-1.6,12.7l3.9,29.5
		c0.1,1,0.8,1.8,1.6,2.2c0.4,0.2,0.8,0.3,1.2,0.3c0.6,0,1.1-0.2,1.6-0.5l24.9-16.7c0,0,0.1,0,0.1-0.1c3.6-2.3,6.4-5.5,8.2-9.4
		c2.4-5.3,2.6-11.3,0.5-16.7C517.4,240.5,513.3,236.2,508,233.8z M513.7,260.4c-1.3,2.9-3.5,5.4-6.2,7.1c-0.1,0-0.2,0.1-0.2,0.2
		l-21,14.1l-3.3-25.1c-0.6-3.2-0.2-6.5,1.2-9.5c2.6-5.8,8.4-9.5,14.8-9.5c2.3,0,4.5,0.5,6.7,1.4c3.9,1.8,6.9,5,8.5,9
		C515.6,252,515.5,256.4,513.7,260.4z"/>
	<path class="st0" d="M503.4,244c-1.4-0.6-2.8-0.9-4.3-0.9c-4.1,0-7.9,2.4-9.5,6.2c-2.4,5.3,0,11.5,5.2,13.9
		c1.4,0.6,2.8,0.9,4.3,0.9c4.1,0,7.9-2.4,9.5-6.2c1.2-2.5,1.2-5.4,0.3-8C507.9,247.2,505.9,245.1,503.4,244z M503.4,255.5
		c-0.8,1.7-2.5,2.8-4.4,2.8c-0.7,0-1.3-0.1-2-0.4c-2.4-1.1-3.5-3.9-2.4-6.3c0.8-1.7,2.5-2.8,4.4-2.8c0.7,0,1.3,0.1,2,0.4
		c1.2,0.5,2.1,1.5,2.5,2.7C504,253,503.9,254.3,503.4,255.5z"/>
	<path class="st0" d="M177.9,516.6c-0.1-1-0.8-1.8-1.6-2.2c-0.9-0.4-1.9-0.3-2.8,0.2l-24.9,16.7c0,0-0.1,0-0.1,0.1
		c-3.6,2.3-6.4,5.5-8.2,9.4c-2.4,5.3-2.6,11.3-0.5,16.7c2.1,5.5,6.1,9.8,11.5,12.2c2.9,1.3,5.9,1.9,9,1.9c0,0,0,0,0,0
		c8.6,0,16.4-5,19.9-12.9c1.8-4.1,2.4-8.5,1.6-12.7L177.9,516.6z M174.9,556.5c-2.6,5.8-8.4,9.5-14.8,9.5h0c-2.3,0-4.5-0.5-6.7-1.4
		c-3.9-1.8-6.9-5-8.5-9c-1.5-4-1.4-8.4,0.4-12.4c1.3-2.9,3.5-5.4,6.2-7.1c0.1-0.1,0.2-0.1,0.2-0.2l21-14.1l3.3,25.1
		C176.7,550.2,176.3,553.5,174.9,556.5z"/>
	<path class="st0" d="M164.4,540.5c-1.4-0.6-2.8-0.9-4.3-0.9c-4.1,0-7.9,2.4-9.5,6.2c-2.4,5.3,0,11.5,5.2,13.9
		c1.4,0.6,2.8,0.9,4.3,0.9c4.1,0,7.9-2.4,9.5-6.2C172,549.1,169.7,542.9,164.4,540.5z M164.5,552c-0.8,1.7-2.5,2.8-4.4,2.8
		c-0.7,0-1.3-0.1-2-0.4c-2.4-1.1-3.5-3.9-2.4-6.3c0.8-1.7,2.5-2.8,4.4-2.8c0.7,0,1.3,0.1,2,0.4C164.5,546.8,165.5,549.6,164.5,552z"
		/>
	<path class="st0" d="M55.4,170.7c0,8.8,7.2,16,16,16s16-7.2,16-16c0-8.8-7.2-16-16-16S55.4,161.9,55.4,170.7z M81.6,170.7
		c0,5.6-4.6,10.2-10.2,10.2c-5.6,0-10.2-4.6-10.2-10.2c0-5.6,4.6-10.2,10.2-10.2C77,160.6,81.6,165.1,81.6,170.7z"/>
	<path class="st0" d="M24.4,351.7c-8.8,0-16,7.2-16,16c0,8.8,7.2,16,16,16s16-7.2,16-16C40.4,358.9,33.2,351.7,24.4,351.7z
		 M24.4,377.8c-5.6,0-10.2-4.6-10.2-10.2c0-5.6,4.6-10.2,10.2-10.2s10.2,4.6,10.2,10.2C34.6,373.3,30,377.8,24.4,377.8z"/>
	<path class="st0" d="M413.3,524.2c-8.8,0-16,7.2-16,16c0,8.8,7.2,16,16,16s16-7.2,16-16C429.3,531.4,422.1,524.2,413.3,524.2z
		 M413.3,550.4c-5.6,0-10.2-4.6-10.2-10.2c0-5.6,4.6-10.2,10.2-10.2s10.2,4.6,10.2,10.2C423.5,545.8,418.9,550.4,413.3,550.4z"/>
	<path class="st0" d="M560.4,320.2c0-8.8-7.2-16-16-16s-16,7.2-16,16c0,8.8,7.2,16,16,16S560.4,329.1,560.4,320.2z M534.3,320.2
		c0-5.6,4.6-10.2,10.2-10.2c5.6,0,10.2,4.6,10.2,10.2c0,5.6-4.6,10.2-10.2,10.2C538.8,330.4,534.3,325.9,534.3,320.2z"/>
	<path class="st0" d="M466.8,62.1c8.8,0,16-7.2,16-16c0-8.8-7.2-16-16-16s-16,7.2-16,16C450.9,54.9,458,62.1,466.8,62.1z
		 M466.8,35.9c5.6,0,10.2,4.6,10.2,10.2c0,5.6-4.6,10.2-10.2,10.2s-10.2-4.6-10.2-10.2C456.6,40.5,461.2,35.9,466.8,35.9z"/>
	<path class="st0" d="M269.3,412l-3.2,3.1c1.3,1.3,2.5,2.8,3.7,4.2l3.5-2.8C272,415,270.7,413.5,269.3,412z"/>
	<path class="st0" d="M257.7,407.9c0,0,1.8,1.2,4.3,3.4l2.9-3.4c-2.8-2.4-4.7-3.7-4.8-3.7L257.7,407.9z"/>
	<path class="st0" d="M273,423.8c1,1.6,1.9,3.2,2.7,4.8l4-1.9c-0.8-1.8-1.8-3.6-2.9-5.3L273,423.8z"/>
	<path class="st0" d="M209.6,486.9c1.8,0.8,3.7,1.5,5.7,2l1.3-4.3c-1.8-0.5-3.5-1.2-5.2-1.9L209.6,486.9z"/>
	<path class="st0" d="M221.1,490.3c1.9,0.4,3.9,0.6,5.9,0.8l0.4-4.5c-1.9-0.2-3.7-0.4-5.5-0.7L221.1,490.3z"/>
	<polygon class="st0" points="192.9,470.4 194.9,469.4 194.9,469.4 	"/>
	<path class="st0" d="M190.9,471.5c0,0.1,1.2,2.3,3.8,5.1l3.3-3c-2.2-2.3-3.1-4.1-3.1-4.1L190.9,471.5z"/>
	<path class="st0" d="M199.2,480.7c1.6,1.2,3.2,2.4,5,3.4l2.3-3.9c-1.6-0.9-3.1-2-4.5-3.1L199.2,480.7z"/>
	<path class="st0" d="M348.6,453.7c-4.2-1-8.4-2.4-12.3-4c-1.5-0.6-3.1,0.1-3.7,1.5c-0.6,1.4,0.1,3.1,1.5,3.7
		c4.3,1.8,8.7,3.3,13.2,4.3c0.2,0.1,0.4,0.1,0.7,0.1c1.3,0,2.5-0.9,2.8-2.2C351.1,455.6,350.1,454,348.6,453.7z"/>
	<path class="st0" d="M420.9,434.3c-3.2,3-6.6,5.7-10.1,8.1c-1.3,0.9-1.7,2.6-0.8,3.9c0.5,0.8,1.4,1.3,2.4,1.3
		c0.5,0,1.1-0.2,1.6-0.5c3.8-2.6,7.5-5.5,10.9-8.7c1.1-1.1,1.2-2.9,0.1-4C423.9,433.3,422.1,433.3,420.9,434.3z"/>
	<path class="st0" d="M440.5,412.6c-1.4-0.7-3.1-0.2-3.8,1.2c-2,3.8-4.4,7.5-7,10.9c-1,1.2-0.7,3,0.5,4c0.5,0.4,1.1,0.6,1.7,0.6
		c0.9,0,1.7-0.4,2.3-1.1c2.8-3.7,5.3-7.6,7.5-11.7C442.4,415,441.9,413.3,440.5,412.6z"/>
	<path class="st0" d="M399.5,448.8c-3.9,1.8-8.1,3.3-12.2,4.4c-1.5,0.4-2.4,2-2,3.5c0.3,1.3,1.5,2.1,2.7,2.1c0.2,0,0.5,0,0.7-0.1
		c4.5-1.2,8.9-2.8,13.1-4.7c1.4-0.6,2.1-2.3,1.4-3.8C402.6,448.8,400.9,448.1,399.5,448.8z"/>
	<path class="st0" d="M446.8,360c-1.5,0.3-2.6,1.7-2.3,3.3c0.7,4.2,1.1,8.6,1.2,12.9c0,1.6,1.3,2.8,2.8,2.8c0,0,0,0,0,0
		c1.6,0,2.8-1.3,2.8-2.9c0-4.7-0.5-9.3-1.3-13.9C449.9,360.8,448.4,359.7,446.8,360z"/>
	<path class="st0" d="M443.9,352.6c0.3,0,0.6-0.1,0.9-0.2c1.5-0.5,2.3-2.1,1.7-3.6c-1.5-4.4-3.5-8.6-5.7-12.7
		c-0.8-1.4-2.5-1.9-3.9-1.1c-1.4,0.8-1.9,2.5-1.1,3.9c2.1,3.8,3.9,7.8,5.3,11.8C441.7,351.9,442.8,352.6,443.9,352.6z"/>
	<path class="st0" d="M374.4,455.4c-2.5,0.2-5,0.4-7.5,0.4c-1.8,0-3.6-0.1-5.5-0.2c-1.6-0.1-2.9,1.1-3,2.6c-0.1,1.6,1.1,2.9,2.6,3
		c1.9,0.1,3.9,0.3,5.8,0.2c2.7,0,5.4-0.1,8.1-0.4c1.6-0.2,2.7-1.5,2.6-3.1C377.4,456.4,376,455.3,374.4,455.4z"/>
	<path class="st0" d="M448,386.8c-1.6-0.3-3,0.8-3.2,2.4c-0.7,4.3-1.7,8.5-3.1,12.6c-0.5,1.5,0.3,3.1,1.8,3.6
		c0.3,0.1,0.6,0.1,0.9,0.1c1.2,0,2.3-0.8,2.7-1.9c1.5-4.4,2.6-8.9,3.3-13.5C450.6,388.5,449.6,387.1,448,386.8z"/>
	<path class="st0" d="M296.3,335.7c-1.4-0.7-3.1-0.2-3.9,1.2c-2.2,4.1-4.1,8.4-5.6,12.8c-0.5,1.5,0.3,3.1,1.8,3.6
		c0.3,0.1,0.6,0.2,0.9,0.2c1.2,0,2.3-0.7,2.7-1.9c1.4-4.1,3.2-8.1,5.2-11.9C298.2,338.1,297.7,336.4,296.3,335.7z"/>
	<path class="st0" d="M346.5,300.7c0.2,0,0.5,0,0.7-0.1c4.2-1.1,8.5-1.8,12.8-2.2c1.6-0.1,2.7-1.5,2.6-3.1c-0.1-1.6-1.5-2.7-3.1-2.6
		c-4.6,0.4-9.2,1.2-13.7,2.3c-1.5,0.4-2.4,1.9-2,3.5C344.1,299.8,345.2,300.7,346.5,300.7z"/>
	<path class="st0" d="M324.8,443.6c-3.6-2.3-7.1-4.9-10.4-7.8c-1.2-1-3-0.9-4,0.2c-1,1.2-0.9,3,0.2,4c3.5,3.1,7.2,5.9,11.1,8.4
		c0.5,0.3,1,0.4,1.5,0.4c0.9,0,1.9-0.5,2.4-1.3C326.5,446.2,326.1,444.5,324.8,443.6z"/>
	<path class="st0" d="M373,298.3c4.3,0.3,8.6,1,12.8,2.1c0.2,0.1,0.5,0.1,0.7,0.1c1.3,0,2.4-0.9,2.8-2.2c0.4-1.5-0.6-3.1-2.1-3.4
		c-4.5-1.1-9.1-1.8-13.7-2.2c-1.6-0.1-2.9,1.1-3.1,2.6C370.3,296.9,371.4,298.2,373,298.3z"/>
	<path class="st0" d="M322,311.5c0.5,0,1.1-0.2,1.6-0.5c3.6-2.4,7.4-4.5,11.4-6.2c1.4-0.6,2.1-2.3,1.4-3.8c-0.6-1.4-2.3-2.1-3.8-1.4
		c-4.2,1.9-8.3,4.1-12.2,6.7c-1.3,0.9-1.7,2.6-0.8,3.9C320.2,311.1,321.1,311.5,322,311.5z"/>
	<path class="st0" d="M313.3,319.1c1.2-1.1,1.2-2.9,0.2-4c-1.1-1.2-2.9-1.2-4-0.2c-3.4,3.1-6.6,6.6-9.4,10.3c-1,1.2-0.7,3,0.5,4
		c0.5,0.4,1.1,0.6,1.7,0.6c0.8,0,1.7-0.4,2.2-1.1C307.2,325.2,310.2,322,313.3,319.1z"/>
	<path class="st0" d="M286.7,360.7c-1.5-0.3-3,0.8-3.3,2.3c-0.8,4.6-1.1,9.2-1.1,13.9c0,0.5,0,1,0,1.6c0,1.6,1.3,2.8,2.8,2.8
		c0,0,0,0,0.1,0c1.6,0,2.8-1.3,2.8-2.9c0-0.5,0-1,0-1.5c0-4.3,0.4-8.7,1.1-12.9C289.3,362.5,288.3,361,286.7,360.7z"/>
	<path class="st0" d="M398.1,304.6c4,1.7,7.8,3.8,11.5,6.1c0.5,0.3,1,0.5,1.5,0.5c0.9,0,1.8-0.5,2.4-1.3c0.9-1.3,0.5-3.1-0.8-3.9
		c-3.9-2.5-8-4.7-12.3-6.6c-1.4-0.6-3.1,0-3.7,1.5C396,302.3,396.7,303.9,398.1,304.6z"/>
	<path class="st0" d="M465.1,312.5l3.2-3.2l-18.7-5l3.3-3.3l-2.8-2.8l-3.3,3.3l-5-18.7l-3.2,3.2l5,18.7l-3.2,3.2l-5-18.7l-3.2,3.2
		l5,18.7l-3.2,3.2l-5-18.7l-3.2,3.2l4.7,17.7l-2.3,2.3c-1.5-1.5-3-3-4.5-4.4c-1.2-1.1-3-1-4,0.2c-1.1,1.2-1,3,0.2,4
		c1.5,1.4,2.9,2.8,4.3,4.3l-29.3,29.3c-6.9-7.8-16.9-12.7-28-12.7c-20.6,0-37.4,16.8-37.4,37.4c0,20.6,16.8,37.5,37.4,37.5
		c20.6,0,37.4-16.8,37.4-37.5c0-7.4-2.2-14.4-5.9-20.2l29.6-29.6c0.3,0.3,0.5,0.6,0.8,0.9c0.6,0.7,1.4,1.1,2.2,1.1
		c0.6,0,1.2-0.2,1.8-0.6c1.2-1,1.4-2.8,0.5-4c-0.4-0.5-0.8-1-1.2-1.5l2.5-2.5l17.7,4.7l3.2-3.2l-18.7-5l3.2-3.2l18.7,5l3.2-3.2
		l-18.7-5l3.2-3.2L465.1,312.5z M398.6,377c0,17.5-14.2,31.8-31.8,31.8c-17.5,0-31.8-14.2-31.8-31.8c0-17.5,14.2-31.8,31.8-31.8
		c9.6,0,18.2,4.3,24,11l-21.3,21.3c-1.1,1.1-1.1,2.9,0,4c0.6,0.6,1.3,0.8,2,0.8s1.5-0.3,2-0.8l20.6-20.6
		C397,365.6,398.6,371.1,398.6,377z"/>
	<path class="st0" d="M574.4,106.5h-72.3c-1.6,0-2.8,1.3-2.8,2.8v1.9h-41.6c-1.6,0-2.8,1.3-2.8,2.8v0.9h-12.3l-1.8-11.3
		c0.3-0.1,0.6-0.2,0.9-0.2l0,0l0,0c8.6-2.4,14.6-10.2,14.6-19.4c0-11.1-9.1-20.2-20.2-20.2c-8.6,0-16.1,5.7-19.2,14.4
		c-8.2-6.1-18.1-9.4-28.4-9.4c-25.6,0-46.4,20.3-47.5,45.5c-1.3-0.2-2.7-0.4-4.1-0.4c-12.4,0-22.6,9.4-24,21.4c0,0,0,0-0.1,0
		c-9.5,0-17.3,7.7-17.3,17.2c0,9.5,7.7,17.2,17.3,17.2c6.7,0,12.4-3.8,15.3-9.3c2.7,1.1,5.7,1.7,8.7,1.7c7.4,0,14-3.3,18.4-8.6
		c5.2,4,12,6.8,20.4,8.6c3.5,0.7,6.8,1.1,9.6,1.1c3.8,0,6.4-0.7,8.3-1.5c2,5,6.2,8.7,11.3,10.3v12.5v0.5v1.8l1.6,0.8
		c18.4,8.9,27.2,22.3,27.8,31.5c0.5,7.5-3.7,14.2-12.3,19.9l-1.4,1l1.8,19.6c-14.3-6.8-30-11.1-46.6-12.2c-2.3-10.6-6-18-6.3-18.5
		l-5.1,2.7c0.1,0.1,3.3,6.4,5.4,15.6c-0.9,0-1.9,0-2.8,0c-6.9,0-13.6,0.6-20.2,1.6c0-0.4,0.1-0.9,0.1-1.3c0.5-6.7,1.3-16,1.6-17.3
		c2.4-8.1,9.6-12.3,17.1-16.7c3.8-2.2,7.6-4.5,11-7.4c7.3-6.3,11.1-15.2,9-21.3c-1.2-3.5-4.3-5.5-8.3-5.5c-3.4,0-7.4,1.4-12,4.1
		c-14.1,8.3-29.1,20.5-42.4,34.3l-0.7,0.7l-4,38.4c-17.4,7.1-33,17.9-45.7,31.4v-7.5c0-1.6-1.3-2.8-2.8-2.8s-2.8,1.3-2.8,2.8v13.5
		c0,0.2,0,0.3,0,0.4c-17.3,21-28.1,47.5-29.4,76.5c-2.6-0.3-5.1-0.4-7.7-0.4c-1.9,0-3.8,0.1-5.7,0.2c0,0,0-0.1,0-0.1
		c0-1.6-1.3-2.8-2.8-2.8H173c-1.6,0-2.8,1.3-2.8,2.8c0,1.6,1.3,2.8,2.8,2.8h35.8c-18.7,5.3-35,17.6-45.2,34.6c-1.5,2.5-2.8,5-4,7.6
		h-4.2v-1.4c0-1.6-1.3-2.8-2.8-2.8s-2.8,1.3-2.8,2.8v4.2c0,1.6,1.3,2.8,2.8,2.8h4.8c-4,11.2-5.3,23-4,34.4l-97.7,24.8
		c-0.7,0.2-1.4,0.7-1.7,1.3c-0.4,0.6-0.5,1.4-0.3,2.2l3.7,14.5c0.3,1.3,1.5,2.1,2.8,2.1c0.2,0,0.5,0,0.7-0.1l92.6-23.5
		c1.5-0.4,2.4-1.9,2.1-3.5c-0.4-1.5-1.9-2.4-3.5-2.1l-89.8,22.8l-2.3-9l94.4-24c3.9,21,16.5,40.2,36.2,52
		c11.9,7.1,25.5,10.8,39.2,10.8c27,0,52.3-14.4,66.1-37.6c0.3-0.4,0.5-0.9,0.7-1.3c20.3,13.2,44.5,20.9,70.4,20.9
		c71.5,0,129.6-58.1,129.6-129.6c0-49.2-27.5-92.1-68-114l-1.8-19.8c11.8-8.4,13.9-17.7,13.5-24.2c0-0.4-0.1-0.7-0.1-1.1h71.8v-72
		c1.7-2,2.9-4.5,3.2-7.3h59.4c1.6,0,2.8-1.3,2.8-2.8v-26.5C577.2,107.7,575.9,106.5,574.4,106.5z M327.6,221
		c12.7-13.1,27-24.7,40.4-32.6c4.6-2.7,7.5-3.3,9.1-3.3c2,0,2.6,0.9,2.9,1.7c1.1,3.3-1.3,9.9-7.3,15c-2.9,2.5-6.4,4.6-10.1,6.8
		c-8.1,4.8-16.6,9.8-19.7,20c-0.5,1.5-0.9,6.8-1.9,18.5c-0.1,0.9-0.2,1.9-0.2,2.9c-5.7,1.2-11.3,2.7-16.7,4.6L327.6,221z
		 M290.8,484.1c-12.8,21.5-36.2,34.8-61.2,34.8c-12.7,0-25.3-3.5-36.3-10c-30.6-18.2-42.6-55.9-29.6-87.9c0.6-0.5,1-1.3,1-2.1
		c0,0,0-0.1,0-0.1c1.1-2.5,2.4-5,3.8-7.4c12.8-21.5,36.2-34.8,61.2-34.8c12.7,0,25.3,3.5,36.3,10c16.3,9.7,27.9,25.2,32.6,43.6
		C303.3,448.6,300.5,467.7,290.8,484.1z M490.8,377c0,68.3-55.6,123.9-123.9,123.9c-25,0-48.3-7.5-67.8-20.3c7.4-15.6,9.3-33,5.5-50
		c0.2-0.1,0.3-0.1,0.5-0.3c1.2-1,1.4-2.8,0.4-4c-1.2-1.5-2.4-3-3.4-4.6c-2.3-6.5-5.5-12.6-9.3-18.1c-1.4-4-2.6-8.1-3.3-12.3
		c-0.3-1.5-1.8-2.6-3.3-2.3c-1.5,0.3-2.6,1.8-2.3,3.3c0.1,0.3,0.1,0.6,0.2,0.8c-4.4-4.4-9.5-8.3-15-11.6c-8-4.8-16.8-8-25.8-9.6
		c2.6-66,57.1-119,123.7-119C435.2,253,490.8,308.6,490.8,377z M499.2,116.9v11.4h-38.4c0.1-0.3,0.2-0.6,0.2-0.9v-9.5
		c0-0.3-0.1-0.6-0.2-0.9H499.2z M454.8,120.6v3.8h-14.7v-3.8H454.8z M312.9,164.5c-6.5,0-11.9-5.3-11.9-11.8
		c0-6.5,5.3-11.8,11.9-11.8c0,0,0,0,0,0c0.8,7.2,4.8,13.4,10.5,17.3C321.5,161.9,317.5,164.5,312.9,164.5z M337,156.8
		c-10.3,0-18.8-8.4-18.8-18.7c0-10.3,8.4-18.7,18.8-18.7c10.3,0,18.8,8.4,18.8,18.7C355.7,148.5,347.3,156.8,337,156.8z
		 M397.9,157.1c-0.2-1.2-1.1-2.2-2.3-2.4c-0.1,0-0.3,0-0.4,0c-1,0-1.9,0.5-2.3,1.4c-0.3,0.3-2.1,2-7.5,2c-2.5,0-5.3-0.3-8.5-1
		c-7.8-1.7-13.9-4.2-18.5-7.8c1.7-3.3,2.7-7.1,2.7-11.1c0-10-6.1-18.5-14.8-22.2c0.3-23,19.1-41.7,42.2-41.7c9.9,0,19.4,3.5,27,9.8
		c0.6,1.1,1.6,1.6,2.5,1.6c2.4,0,3.1-2.5,3.4-3.7c1.6-6.3,6.7-12.6,14.6-12.6c8.2,0,14.8,6.6,14.8,14.8c0,6.7-4.3,12.3-10.4,14.1
		l-44.3,8.1c-6.1-1.9-5.3-10-5.3-10.4l-2.5-0.3l-2.9-0.3c-0.5,4.4,0.6,12.9,8,15.8c0.1,0.9,0.2,2.1,0.3,3.6c-3.8,0.5-8-2.5-8.1-2.6
		c0,0,0,0,0,0l-1.5,2l-1.7,2.3c0.3,0.2,5,3.8,10.5,3.8c0.3,0,0.7,0,1,0c-0.2,5.7-1.2,12.5-4.9,16.9c-2.6,3.1-6.1,4.6-10.8,4.6l0,5.4
		c6.3-0.1,11.3-2.3,14.8-6.6c7.2-8.6,6.5-23.2,5.8-29.2l36.4-6.7L437,115c-1.5,0.1-2.6,1.3-2.6,2.8v9.5c0,1.6,1.3,2.8,2.8,2.8h2.2
		l1.9,12.1l-13.7,3.3l1.2,5.2l13.2-3.2c1.1,6.8-3.6,13.2-10.4,14.3c-0.1,0-0.2,0-0.3,0.1l-19.4,5.4c-0.6,0.1-1.2,0.1-1.8,0.1
		C404,167.6,398.9,163.2,397.9,157.1z M424.8,192.9c-4.3-3.7-9.2-7-14-9.5V173c0.8,0,1.5-0.1,2.3-0.2c0.1,0,0.2,0,0.3-0.1l19.4-5.5
		c9.7-1.6,16.2-10.8,14.7-20.4l-2.6-16.6h9.9v0.9c0,1.6,1.3,2.8,2.8,2.8h26.1c-0.2,1-0.3,2-0.3,3c0,2.5,0.7,4.8,1.8,6.8v48.4
		l-60.4-0.3L424.8,192.9z M506,212.1h-67.3c-1.8-5.1-5-10-9-14.4l61.2,0.3v-35.9H506V212.1z M508,141.5h-17.5
		c-0.9-1.3-1.4-2.8-1.4-4.5c0-1.1,0.2-2.1,0.6-3h9.5v1.9c0,1.6,1.3,2.8,2.8,2.8h7.1C508.9,139.7,508.5,140.6,508,141.5z M571.5,133
		h-66.6v-1.9V114v-1.9h66.6V133z"/>
</g>
</svg>
