<?xml version="1.0" encoding="utf-8"?>
<!-- Generator: Adobe Illustrator 20.0.0, SVG Export Plug-In . SVG Version: 6.00 Build 0)  -->
<svg version="1.1" id="Layer_1" xmlns="http://www.w3.org/2000/svg" xmlns:xlink="http://www.w3.org/1999/xlink" x="0px" y="0px"
	 viewBox="0 0 408.6 416.4" style="enable-background:new 0 0 408.6 416.4;" xml:space="preserve">
<style type="text/css">
	.st0{fill:#5F4E9C;}
</style>
<g>
	<polygon class="st0" points="83.8,155.3 81.5,157.5 79.2,155.3 76.5,158 78.8,160.2 76.5,162.5 79.2,165.2 81.5,163 83.8,165.2 
		86.5,162.5 84.2,160.2 86.5,158 	"/>
	<polygon class="st0" points="83.8,155.3 81.5,157.5 79.2,155.3 76.5,158 78.8,160.2 76.5,162.5 79.2,165.2 81.5,163 83.8,165.2 
		86.5,162.5 84.2,160.2 86.5,158 	"/>
	<polygon class="st0" points="57,266.3 54.7,268.5 52.5,266.3 49.7,269 52,271.2 49.7,273.5 52.5,276.2 54.7,274 57,276.2 
		59.7,273.5 57.4,271.2 59.7,269 	"/>
	<polygon class="st0" points="57,266.3 54.7,268.5 52.5,266.3 49.7,269 52,271.2 49.7,273.5 52.5,276.2 54.7,274 57,276.2 
		59.7,273.5 57.4,271.2 59.7,269 	"/>
	<polygon class="st0" points="213.1,73.5 213.1,70.3 216.3,70.3 216.3,66.4 213.1,66.4 213.1,63.2 209.2,63.2 209.2,66.4 206,66.4 
		206,70.3 209.2,70.3 209.2,73.5 	"/>
	<polygon class="st0" points="213.1,73.5 213.1,70.3 216.3,70.3 216.3,66.4 213.1,66.4 213.1,63.2 209.2,63.2 209.2,66.4 206,66.4 
		206,70.3 209.2,70.3 209.2,73.5 	"/>
	<polygon class="st0" points="235.9,355.8 233.6,358.1 231.3,355.8 228.6,358.6 230.9,360.8 228.6,363.1 231.3,365.8 233.6,363.6 
		235.9,365.8 238.6,363.1 236.3,360.8 238.6,358.6 	"/>
	<polygon class="st0" points="235.9,355.8 233.6,358.1 231.3,355.8 228.6,358.6 230.9,360.8 228.6,363.1 231.3,365.8 233.6,363.6 
		235.9,365.8 238.6,363.1 236.3,360.8 238.6,358.6 	"/>
	<polygon class="st0" points="357.2,262.6 355,264.9 352.7,262.6 350,265.4 352.2,267.6 350,269.9 352.7,272.6 355,270.3 
		357.2,272.6 359.9,269.9 357.7,267.6 359.9,265.4 	"/>
	<polygon class="st0" points="357.2,262.6 355,264.9 352.7,262.6 350,265.4 352.2,267.6 350,269.9 352.7,272.6 355,270.3 
		357.2,272.6 359.9,269.9 357.7,267.6 359.9,265.4 	"/>
	<polygon class="st0" points="405.3,186.5 403.1,188.7 400.8,186.5 398.1,189.2 400.4,191.4 398.1,193.7 400.8,196.4 403.1,194.2 
		405.3,196.4 408.1,193.7 405.8,191.4 408.1,189.2 	"/>
	<polygon class="st0" points="405.3,186.5 403.1,188.7 400.8,186.5 398.1,189.2 400.4,191.4 398.1,193.7 400.8,196.4 403.1,194.2 
		405.3,196.4 408.1,193.7 405.8,191.4 408.1,189.2 	"/>
	<path class="st0" d="M101.9,257c-1,0-1.9,0.9-1.9,1.9v9c0,1,0.9,1.9,1.9,1.9s1.9-0.9,1.9-1.9v-9C103.8,257.9,103,257,101.9,257z"/>
	<path class="st0" d="M101.9,257c-1,0-1.9,0.9-1.9,1.9v9c0,1,0.9,1.9,1.9,1.9s1.9-0.9,1.9-1.9v-9C103.8,257.9,103,257,101.9,257z"/>
	<path class="st0" d="M103.8,222.9c0-1-0.9-1.9-1.9-1.9s-1.9,0.9-1.9,1.9v9c0,1,0.9,1.9,1.9,1.9s1.9-0.9,1.9-1.9V222.9z"/>
	<path class="st0" d="M103.8,222.9c0-1-0.9-1.9-1.9-1.9s-1.9,0.9-1.9,1.9v9c0,1,0.9,1.9,1.9,1.9s1.9-0.9,1.9-1.9V222.9z"/>
	<path class="st0" d="M145.8,178.7c1,0,1.9-0.9,1.9-1.9c0-1-0.9-1.9-1.9-1.9h-9c-1,0-1.9,0.9-1.9,1.9c0,1,0.9,1.9,1.9,1.9H145.8z"/>
	<path class="st0" d="M145.8,178.7c1,0,1.9-0.9,1.9-1.9c0-1-0.9-1.9-1.9-1.9h-9c-1,0-1.9,0.9-1.9,1.9c0,1,0.9,1.9,1.9,1.9H145.8z"/>
	<path class="st0" d="M165.7,176.8c0-1-0.9-1.9-1.9-1.9h-9c-1,0-1.9,0.9-1.9,1.9c0,1,0.9,1.9,1.9,1.9h9
		C164.9,178.7,165.7,177.9,165.7,176.8z"/>
	<path class="st0" d="M165.7,176.8c0-1-0.9-1.9-1.9-1.9h-9c-1,0-1.9,0.9-1.9,1.9c0,1,0.9,1.9,1.9,1.9h9
		C164.9,178.7,165.7,177.9,165.7,176.8z"/>
	<path class="st0" d="M103.8,240.9c0-1-0.9-1.9-1.9-1.9s-1.9,0.9-1.9,1.9v9c0,1,0.9,1.9,1.9,1.9s1.9-0.9,1.9-1.9V240.9z"/>
	<path class="st0" d="M103.8,240.9c0-1-0.9-1.9-1.9-1.9s-1.9,0.9-1.9,1.9v9c0,1,0.9,1.9,1.9,1.9s1.9-0.9,1.9-1.9V240.9z"/>
	<path class="st0" d="M103.8,186.9c0-1-0.9-1.9-1.9-1.9s-1.9,0.9-1.9,1.9v9c0,1,0.9,1.9,1.9,1.9s1.9-0.9,1.9-1.9V186.9z"/>
	<path class="st0" d="M103.8,186.9c0-1-0.9-1.9-1.9-1.9s-1.9,0.9-1.9,1.9v9c0,1,0.9,1.9,1.9,1.9s1.9-0.9,1.9-1.9V186.9z"/>
	<path class="st0" d="M103.8,204.9c0-1-0.9-1.9-1.9-1.9s-1.9,0.9-1.9,1.9v9c0,1,0.9,1.9,1.9,1.9s1.9-0.9,1.9-1.9V204.9z"/>
	<path class="st0" d="M103.8,204.9c0-1-0.9-1.9-1.9-1.9s-1.9,0.9-1.9,1.9v9c0,1,0.9,1.9,1.9,1.9s1.9-0.9,1.9-1.9V204.9z"/>
	<path class="st0" d="M111.7,176.8c0-1-0.9-1.9-1.9-1.9h-7.9c-1,0-1.9,0.9-1.9,1.9v1.1c0,1,0.9,1.9,1.9,1.9c0.8,0,1.4-0.5,1.7-1.1
		h6.2C110.9,178.7,111.7,177.9,111.7,176.8z"/>
	<path class="st0" d="M111.7,176.8c0-1-0.9-1.9-1.9-1.9h-7.9c-1,0-1.9,0.9-1.9,1.9v1.1c0,1,0.9,1.9,1.9,1.9c0.8,0,1.4-0.5,1.7-1.1
		h6.2C110.9,178.7,111.7,177.9,111.7,176.8z"/>
	<path class="st0" d="M235.5,0h-48.8v32.7h48.8V0z M231.7,28.9h-41.1v-25h41.1V28.9z"/>
	<path class="st0" d="M235.5,0h-48.8v32.7h48.8V0z M231.7,28.9h-41.1v-25h41.1V28.9z"/>
	<path class="st0" d="M211.1,28c6.4,0,11.7-5.2,11.7-11.7c0-6.4-5.2-11.7-11.7-11.7s-11.7,5.2-11.7,11.7
		C199.5,22.8,204.7,28,211.1,28z M211.1,8.5c4.3,0,7.8,3.5,7.8,7.8c0,4.3-3.5,7.8-7.8,7.8s-7.8-3.5-7.8-7.8
		C203.3,12,206.8,8.5,211.1,8.5z"/>
	<path class="st0" d="M211.1,28c6.4,0,11.7-5.2,11.7-11.7c0-6.4-5.2-11.7-11.7-11.7s-11.7,5.2-11.7,11.7
		C199.5,22.8,204.7,28,211.1,28z M211.1,8.5c4.3,0,7.8,3.5,7.8,7.8c0,4.3-3.5,7.8-7.8,7.8s-7.8-3.5-7.8-7.8
		C203.3,12,206.8,8.5,211.1,8.5z"/>
	<rect x="187.9" y="36.3" class="st0" width="45.7" height="3.9"/>
	<rect x="187.9" y="36.3" class="st0" width="45.7" height="3.9"/>
	<rect x="187.9" y="46.7" class="st0" width="45.7" height="3.9"/>
	<rect x="187.9" y="46.7" class="st0" width="45.7" height="3.9"/>
	<path class="st0" d="M337.4,305l34.5,34.5l23.1-23.1l-34.5-34.5L337.4,305z M371.9,334L342.8,305l17.7-17.7l29.1,29.1L371.9,334z"
		/>
	<path class="st0" d="M337.4,305l34.5,34.5l23.1-23.1l-34.5-34.5L337.4,305z M371.9,334L342.8,305l17.7-17.7l29.1,29.1L371.9,334z"
		/>
	<path class="st0" d="M357.9,318.9c2.2,2.2,5.1,3.4,8.3,3.4s6.1-1.2,8.3-3.4c4.6-4.6,4.6-12,0-16.5c-2.2-2.2-5.1-3.4-8.3-3.4
		s-6.1,1.2-8.3,3.4C353.4,306.9,353.4,314.4,357.9,318.9z M360.7,305.1c1.5-1.5,3.4-2.3,5.5-2.3s4.1,0.8,5.5,2.3c3,3,3,8,0,11.1
		c-1.5,1.5-3.4,2.3-5.5,2.3c-2.1,0-4.1-0.8-5.5-2.3C357.6,313.1,357.6,308.2,360.7,305.1z"/>
	<path class="st0" d="M357.9,318.9c2.2,2.2,5.1,3.4,8.3,3.4s6.1-1.2,8.3-3.4c4.6-4.6,4.6-12,0-16.5c-2.2-2.2-5.1-3.4-8.3-3.4
		s-6.1,1.2-8.3,3.4C353.4,306.9,353.4,314.4,357.9,318.9z M360.7,305.1c1.5-1.5,3.4-2.3,5.5-2.3s4.1,0.8,5.5,2.3c3,3,3,8,0,11.1
		c-1.5,1.5-3.4,2.3-5.5,2.3c-2.1,0-4.1-0.8-5.5-2.3C357.6,313.1,357.6,308.2,360.7,305.1z"/>
	
		<rect x="348.5" y="303" transform="matrix(0.7071 -0.7071 0.7071 0.7071 -127.7654 343.2427)" class="st0" width="3.9" height="45.7"/>
	
		<rect x="348.5" y="303" transform="matrix(0.7071 -0.7071 0.7071 0.7071 -127.7654 343.2427)" class="st0" width="3.9" height="45.7"/>
	
		<rect x="341.2" y="310.3" transform="matrix(0.7071 -0.7071 0.7071 0.7071 -135.092 340.2161)" class="st0" width="3.9" height="45.7"/>
	
		<rect x="341.2" y="310.3" transform="matrix(0.7071 -0.7071 0.7071 0.7071 -135.092 340.2161)" class="st0" width="3.9" height="45.7"/>
	<circle class="st0" cx="129.7" cy="57.3" r="3"/>
	<circle class="st0" cx="129.7" cy="57.3" r="3"/>
	<path class="st0" d="M151.3,393.3l23.1,23.1l34.5-34.5l-23.1-23.1L151.3,393.3z M174.4,411l-17.7-17.7l29.1-29.1l17.7,17.7
		L174.4,411z"/>
	<path class="st0" d="M151.3,393.3l23.1,23.1l34.5-34.5l-23.1-23.1L151.3,393.3z M174.4,411l-17.7-17.7l29.1-29.1l17.7,17.7
		L174.4,411z"/>
	<path class="st0" d="M171.8,379.4c-2.2,2.2-3.4,5.1-3.4,8.3c0,3.1,1.2,6.1,3.4,8.3c2.2,2.2,5.1,3.4,8.3,3.4s6.1-1.2,8.3-3.4
		c2.2-2.2,3.4-5.1,3.4-8.3c0-3.1-1.2-6.1-3.4-8.3c-2.2-2.2-5.1-3.4-8.3-3.4S174,377.2,171.8,379.4z M187.9,387.6
		c0,2.1-0.8,4.1-2.3,5.5c-1.5,1.5-3.4,2.3-5.5,2.3s-4.1-0.8-5.5-2.3c-1.5-1.5-2.3-3.4-2.3-5.5s0.8-4.1,2.3-5.5
		c1.5-1.5,3.4-2.3,5.5-2.3c2.1,0,4.1,0.8,5.5,2.3C187.1,383.6,187.9,385.5,187.9,387.6z"/>
	<path class="st0" d="M171.8,379.4c-2.2,2.2-3.4,5.1-3.4,8.3c0,3.1,1.2,6.1,3.4,8.3c2.2,2.2,5.1,3.4,8.3,3.4s6.1-1.2,8.3-3.4
		c2.2-2.2,3.4-5.1,3.4-8.3c0-3.1-1.2-6.1-3.4-8.3c-2.2-2.2-5.1-3.4-8.3-3.4S174,377.2,171.8,379.4z M187.9,387.6
		c0,2.1-0.8,4.1-2.3,5.5c-1.5,1.5-3.4,2.3-5.5,2.3s-4.1-0.8-5.5-2.3c-1.5-1.5-2.3-3.4-2.3-5.5s0.8-4.1,2.3-5.5
		c1.5-1.5,3.4-2.3,5.5-2.3c2.1,0,4.1,0.8,5.5,2.3C187.1,383.6,187.9,385.5,187.9,387.6z"/>
	<circle class="st0" cx="283.3" cy="81.9" r="2.8"/>
	<circle class="st0" cx="283.3" cy="81.9" r="2.8"/>
	<path class="st0" d="M30.6,68.6h40.5c0.3,1.5,1,3,2,4.1v54h47.5v45.1l0,3.1h-1.8c-1,0-1.9,0.9-1.9,1.9c0,1,0.9,1.9,1.9,1.9h9
		c1,0,1.9-0.9,1.9-1.9c0-1-0.9-1.9-1.9-1.9h-3.3l0.3-59.4c0-3.9,1.2-6.1,2.3-7.3c0.6-0.6,1.3-1,2.1-1.4h5.9v45.6l4.8,4.6l4.1-4.9
		l-1-45.4h1.3V93.3h0v-0.7l3.9,0.6c0.7,0.1,1.4,0.2,2,0.2c2.2,0,4.3-0.6,6.1-1.5v12.2c0,0.7,0.3,1.2,0.8,1.6
		c-0.7,4,1.7,9.4,6.3,13.2c2.2,1.9,4.8,3.4,7.3,4.9c0.1,0,0.1,0.1,0.2,0.1v53.2l0,0c0.1,0.9,0.8,1.6,1.7,1.6h5.4
		c0.1,1,0.9,1.7,1.9,1.7c1,0,1.9-0.9,1.9-1.9v-1.7c0-1-0.9-1.9-1.9-1.9h-5.2v-48.7c3.4,2.2,6.2,4.8,7.4,8.7
		c0.2,0.9,0.7,7.1,1.1,11.6c0.2,3,0.5,6.1,0.7,8.3c0.2,2.5,0.4,4,0.9,4.8c-0.1,0.7-0.2,1.4-0.1,2.1l0.1,2.7c0.2,4.9,4.3,8.8,9.2,8.8
		c0.1,0,0.3,0,0.4,0c5.1-0.2,9.1-4.6,8.8-9.7l-0.1-2.7c0-0.5-0.1-0.9-0.2-1.4l0.1,0l-3.4-32.4l-0.5-0.5
		c-8.8-9.2-18.9-17.4-28.3-22.9c-3.1-1.8-5.8-2.7-8-2.7c-1.1,0-2,0.2-2.9,0.6V89.9c0-0.4,0-0.8,0-1c1.4-1.7,2.4-3.8,2.8-6.2l6-38.3
		c0.5-3.4-0.3-6.8-2.3-9.5c-2-2.8-5-4.6-8.4-5.1l-23.3-3.7c-1.7-6.3-7.3-10.7-14-10.7c-8,0-14.5,6.5-14.5,14.5
		c0,6.8,4.7,12.6,11.1,14.1l-1.4,9.1h-5.5v-0.6c0-1-0.9-1.9-1.9-1.9H80.8V49c0-1-0.9-1.9-1.9-1.9H30.6c-1,0-1.9,0.9-1.9,1.9v17.7
		C28.7,67.8,29.5,68.6,30.6,68.6z M77,122.9V74.8h10.1v38.6h33.6c0,0.2,0,0.5,0,0.7v8.8H77z M140.7,93.3L140.7,93.3l0,8.8h-7.5
		c-1.6,0-3.1,0.3-4.5,0.8l-0.1,0c-0.2,0-2.7,0.6-4.8,3.3c-0.9,1-1.6,2.1-2.1,3.3H91V71.1c0.7-1.3,1.2-2.8,1.2-4.4
		c0-0.4,0-0.8-0.1-1.2h16.9c1,0,1.9-0.9,1.9-1.9v-0.6h3.9l-1.8,11.7c-1.1,7,3.7,13.6,10.7,14.7l17.1,2.7V93.3z M194.4,169.4
		c-0.1,0-0.2,0-0.3,0c-2.9,0-5.3-2.3-5.4-5.1l-0.1-2.7c0-0.4,0-0.9,0.1-1.3c2.8-0.2,7.7-0.4,10.4-0.6c0.1,0.4,0.2,0.9,0.2,1.3
		l0.1,2.7C199.7,166.7,197.4,169.2,194.4,169.4z M163.1,104.8c1.1,0,3,0.4,6.1,2.2c9,5.3,18.5,13,27,21.8l2.8,27
		c-2.9,0.2-8.2,0.4-10.9,0.6c-0.3-2.3-0.6-6.7-0.9-10.2c-0.6-7.8-0.9-11.4-1.2-12.4c-2.1-6.8-7.7-10.2-13.1-13.4
		c-2.5-1.5-4.8-2.9-6.8-4.5c-4-3.4-5.6-7.9-4.9-10C161.4,105.4,161.7,104.8,163.1,104.8z M110.5,29.6c0-5.9,4.8-10.6,10.6-10.6
		c5.2,0,9.6,3.7,10.5,8.9l0.2,1.4l26,4.1c2.4,0.4,4.4,1.7,5.8,3.6c1.4,1.9,2,4.3,1.6,6.7l-4.3,27.2c-2.6-0.3-4.6-1.4-6.1-3.2
		c-2.6-3.2-3.4-8-3.5-12.1c0.2,0,0.5,0,0.7,0c3.9,0,7.3-2.6,7.5-2.7l-1.2-1.5l0,0l0,0l-1.2-1.5c0,0-3,2.3-5.8,1.9
		c0.1-1.1,0.2-1.9,0.2-2.6c5.3-2.1,6.1-8.2,5.8-11.3l-3.8,0.5c0.6,5.4-2.7,7.1-3.8,7.4L118,39.8C113.6,38.4,110.5,34.4,110.5,29.6z
		 M121.6,44.4l26.1,4.8c-0.5,4.3-1,14.8,4.2,21c2.1,2.6,5,4.1,8.5,4.6l-1.2,7.3c-0.7,4.4-4.4,7.6-8.8,7.6c-0.5,0-1,0-1.4-0.1
		l-24.7-3.9c-4.9-0.8-8.2-5.4-7.4-10.3l9.5,2.3l0.9-3.8l-9.8-2.3l1.3-8.5h4.3c1,0,1.9-0.9,1.9-1.9v-6.4c0-1-0.9-1.9-1.9-1.9h-2.7
		L121.6,44.4z M121,56.6v2.6h-10.2v-2.6H121z M81.1,54H107v0.6V61v0.6H81.1V54z M88.1,65.5c0.1,0.4,0.2,0.8,0.2,1.2
		c0,1.7-0.8,3.2-2,4.2h-9.4c-0.7-0.6-1.3-1.4-1.7-2.3h3.8c1,0,1.9-0.9,1.9-1.9v-1.2H88.1z M32.5,50.9H77v13.9H32.5V50.9z"/>
	<polygon class="st0" points="138.2,151.1 138.2,105.2 140.1,105.2 141.1,151.1 139.8,152.6 	"/>
	<path class="st0" d="M115.6,199c0,6.7,5.4,12.1,12.1,12.1s12.1-5.4,12.1-12.1c0-6.7-5.4-12.1-12.1-12.1S115.6,192.4,115.6,199z
		 M136,199c0,4.6-3.7,8.3-8.3,8.3c-4.6,0-8.3-3.7-8.3-8.3c0-4.6,3.7-8.3,8.3-8.3C132.3,190.7,136,194.5,136,199z"/>
	<path class="st0" d="M115.6,199c0,6.7,5.4,12.1,12.1,12.1s12.1-5.4,12.1-12.1c0-6.7-5.4-12.1-12.1-12.1S115.6,192.4,115.6,199z
		 M136,199c0,4.6-3.7,8.3-8.3,8.3c-4.6,0-8.3-3.7-8.3-8.3c0-4.6,3.7-8.3,8.3-8.3C132.3,190.7,136,194.5,136,199z"/>
	<path class="st0" d="M157.4,219.8c0-1-0.9-1.9-1.9-1.9h-39.9c-1,0-1.9,0.9-1.9,1.9c0,1,0.9,1.9,1.9,1.9h39.9
		C156.5,221.7,157.4,220.8,157.4,219.8z"/>
	<path class="st0" d="M157.4,219.8c0-1-0.9-1.9-1.9-1.9h-39.9c-1,0-1.9,0.9-1.9,1.9c0,1,0.9,1.9,1.9,1.9h39.9
		C156.5,221.7,157.4,220.8,157.4,219.8z"/>
	<path class="st0" d="M151.2,228.7c0-1-0.9-1.9-1.9-1.9h-34.2c-1,0-1.9,0.9-1.9,1.9c0,1,0.9,1.9,1.9,1.9h34.2
		C150.4,230.6,151.2,229.7,151.2,228.7z"/>
	<path class="st0" d="M151.2,228.7c0-1-0.9-1.9-1.9-1.9h-34.2c-1,0-1.9,0.9-1.9,1.9c0,1,0.9,1.9,1.9,1.9h34.2
		C150.4,230.6,151.2,229.7,151.2,228.7z"/>
	<path class="st0" d="M147.8,236.5h-32.2c-1,0-1.9,0.9-1.9,1.9c0,1,0.9,1.9,1.9,1.9h32.2c1,0,1.9-0.9,1.9-1.9
		C149.7,237.4,148.8,236.5,147.8,236.5z"/>
	<path class="st0" d="M147.8,236.5h-32.2c-1,0-1.9,0.9-1.9,1.9c0,1,0.9,1.9,1.9,1.9h32.2c1,0,1.9-0.9,1.9-1.9
		C149.7,237.4,148.8,236.5,147.8,236.5z"/>
	<path class="st0" d="M20.5,191.4l35.5,8.3c0.1,0,0.3,0,0.4,0c0,0,0,0,0,0c1,0,1.9-0.9,1.9-1.9c0-0.2,0-0.5-0.1-0.7l-8.3-35.5
		c0,0,0-0.1,0-0.1c-1-4.8-3.4-9.2-6.9-12.7c-4.8-4.8-11.1-7.4-17.8-7.4c-6.7,0-13.1,2.6-17.8,7.4c-9.8,9.8-9.8,25.8,0,35.6
		C11,188,15.6,190.4,20.5,191.4z M10.1,151.5c4-4,9.4-6.3,15.1-6.3s11.1,2.2,15.1,6.3c3,3,5,6.8,5.9,10.9c0,0.1,0,0.2,0.1,0.2
		l7.7,32.6l-32.6-7.6c-4.3-0.8-8.1-2.8-11.2-5.9C1.7,173.4,1.7,159.8,10.1,151.5z"/>
	<path class="st0" d="M20.5,191.4l35.5,8.3c0.1,0,0.3,0,0.4,0c0,0,0,0,0,0c1,0,1.9-0.9,1.9-1.9c0-0.2,0-0.5-0.1-0.7l-8.3-35.5
		c0,0,0-0.1,0-0.1c-1-4.8-3.4-9.2-6.9-12.7c-4.8-4.8-11.1-7.4-17.8-7.4c-6.7,0-13.1,2.6-17.8,7.4c-9.8,9.8-9.8,25.8,0,35.6
		C11,188,15.6,190.4,20.5,191.4z M10.1,151.5c4-4,9.4-6.3,15.1-6.3s11.1,2.2,15.1,6.3c3,3,5,6.8,5.9,10.9c0,0.1,0,0.2,0.1,0.2
		l7.7,32.6l-32.6-7.6c-4.3-0.8-8.1-2.8-11.2-5.9C1.7,173.4,1.7,159.8,10.1,151.5z"/>
	<path class="st0" d="M25,177.7c3,0,5.8-1.2,7.9-3.3c4.4-4.4,4.4-11.5,0-15.9c-2.1-2.1-4.9-3.3-7.9-3.3c-3,0-5.8,1.2-7.9,3.3
		c-4.4,4.4-4.4,11.5,0,15.9C19.2,176.5,22,177.7,25,177.7z M19.7,161.2c1.4-1.4,3.3-2.2,5.3-2.2c2,0,3.9,0.8,5.3,2.2
		c2.9,2.9,2.9,7.6,0,10.5c-1.4,1.4-3.3,2.2-5.3,2.2c-2,0-3.9-0.8-5.3-2.2C16.8,168.8,16.8,164.1,19.7,161.2z"/>
	<path class="st0" d="M25,177.7c3,0,5.8-1.2,7.9-3.3c4.4-4.4,4.4-11.5,0-15.9c-2.1-2.1-4.9-3.3-7.9-3.3c-3,0-5.8,1.2-7.9,3.3
		c-4.4,4.4-4.4,11.5,0,15.9C19.2,176.5,22,177.7,25,177.7z M19.7,161.2c1.4-1.4,3.3-2.2,5.3-2.2c2,0,3.9,0.8,5.3,2.2
		c2.9,2.9,2.9,7.6,0,10.5c-1.4,1.4-3.3,2.2-5.3,2.2c-2,0-3.9-0.8-5.3-2.2C16.8,168.8,16.8,164.1,19.7,161.2z"/>
	<path class="st0" d="M365.6,134.2c-3.6,3.6-6,8.2-6.9,13.1l-8.3,35.5c-0.2,0.6,0,1.3,0.5,1.8c0.4,0.4,0.8,0.6,1.3,0.6
		c0.1,0,0.3,0,0.4,0l35.8-8.4c0,0,0.1,0,0.1,0c4.8-1,9.2-3.4,12.7-6.9c4.8-4.8,7.4-11.1,7.4-17.8c0-6.7-2.6-13.1-7.4-17.8
		c-4.8-4.8-11.1-7.4-17.8-7.4C376.7,126.9,370.4,129.5,365.6,134.2z M404.8,152.1c0,5.7-2.2,11.1-6.3,15.1c-3,3-6.8,5-10.9,5.8
		c-0.1,0-0.2,0-0.2,0.1l-32.6,7.7l7.6-32.6c0.8-4.3,2.8-8.1,5.9-11.2c4-4,9.4-6.3,15.1-6.3c5.7,0,11.1,2.2,15.1,6.3
		C402.6,141,404.8,146.3,404.8,152.1z"/>
	<path class="st0" d="M365.6,134.2c-3.6,3.6-6,8.2-6.9,13.1l-8.3,35.5c-0.2,0.6,0,1.3,0.5,1.8c0.4,0.4,0.8,0.6,1.3,0.6
		c0.1,0,0.3,0,0.4,0l35.8-8.4c0,0,0.1,0,0.1,0c4.8-1,9.2-3.4,12.7-6.9c4.8-4.8,7.4-11.1,7.4-17.8c0-6.7-2.6-13.1-7.4-17.8
		c-4.8-4.8-11.1-7.4-17.8-7.4C376.7,126.9,370.4,129.5,365.6,134.2z M404.8,152.1c0,5.7-2.2,11.1-6.3,15.1c-3,3-6.8,5-10.9,5.8
		c-0.1,0-0.2,0-0.2,0.1l-32.6,7.7l7.6-32.6c0.8-4.3,2.8-8.1,5.9-11.2c4-4,9.4-6.3,15.1-6.3c5.7,0,11.1,2.2,15.1,6.3
		C402.6,141,404.8,146.3,404.8,152.1z"/>
	<path class="st0" d="M375.7,159.8c2.1,2.1,4.9,3.3,7.9,3.3s5.8-1.2,7.9-3.3c4.4-4.4,4.4-11.5,0-15.9c-2.1-2.1-4.9-3.3-7.9-3.3
		c-3,0-5.8,1.2-7.9,3.3C371.3,148.3,371.3,155.4,375.7,159.8z M378.4,146.6c1.4-1.4,3.3-2.2,5.3-2.2s3.9,0.8,5.3,2.2
		c2.9,2.9,2.9,7.6,0,10.5c-1.4,1.4-3.3,2.2-5.3,2.2s-3.9-0.8-5.3-2.2C375.5,154.2,375.5,149.5,378.4,146.6z"/>
	<path class="st0" d="M375.7,159.8c2.1,2.1,4.9,3.3,7.9,3.3s5.8-1.2,7.9-3.3c4.4-4.4,4.4-11.5,0-15.9c-2.1-2.1-4.9-3.3-7.9-3.3
		c-3,0-5.8,1.2-7.9,3.3C371.3,148.3,371.3,155.4,375.7,159.8z M378.4,146.6c1.4-1.4,3.3-2.2,5.3-2.2s3.9,0.8,5.3,2.2
		c2.9,2.9,2.9,7.6,0,10.5c-1.4,1.4-3.3,2.2-5.3,2.2s-3.9-0.8-5.3-2.2C375.5,154.2,375.5,149.5,378.4,146.6z"/>
	<path class="st0" d="M339.3,156.2c-1.9-0.9-3.9-1.3-6-1.3c-5.7,0-11,3.4-13.3,8.6c-1.2,2.7-1.6,5.7-1.1,8.5l2.6,19.7
		c0.1,0.7,0.5,1.2,1.1,1.5c0.3,0.1,0.5,0.2,0.8,0.2c0.4,0,0.7-0.1,1.1-0.3l16.7-11.2c0,0,0,0,0.1,0c2.4-1.5,4.3-3.7,5.5-6.3
		c1.6-3.6,1.7-7.5,0.4-11.2C345.6,160.7,342.9,157.8,339.3,156.2z M343.1,173.9c-0.9,2-2.3,3.6-4.1,4.7c-0.1,0-0.1,0.1-0.2,0.1
		l-14,9.4l-2.2-16.8c-0.4-2.2-0.1-4.4,0.8-6.4c1.7-3.9,5.6-6.4,9.9-6.4c1.5,0,3,0.3,4.4,1c2.6,1.2,4.6,3.3,5.7,6
		C344.4,168.4,344.3,171.3,343.1,173.9z"/>
	<path class="st0" d="M339.3,156.2c-1.9-0.9-3.9-1.3-6-1.3c-5.7,0-11,3.4-13.3,8.6c-1.2,2.7-1.6,5.7-1.1,8.5l2.6,19.7
		c0.1,0.7,0.5,1.2,1.1,1.5c0.3,0.1,0.5,0.2,0.8,0.2c0.4,0,0.7-0.1,1.1-0.3l16.7-11.2c0,0,0,0,0.1,0c2.4-1.5,4.3-3.7,5.5-6.3
		c1.6-3.6,1.7-7.5,0.4-11.2C345.6,160.7,342.9,157.8,339.3,156.2z M343.1,173.9c-0.9,2-2.3,3.6-4.1,4.7c-0.1,0-0.1,0.1-0.2,0.1
		l-14,9.4l-2.2-16.8c-0.4-2.2-0.1-4.4,0.8-6.4c1.7-3.9,5.6-6.4,9.9-6.4c1.5,0,3,0.3,4.4,1c2.6,1.2,4.6,3.3,5.7,6
		C344.4,168.4,344.3,171.3,343.1,173.9z"/>
	<path class="st0" d="M336.2,163c-0.9-0.4-1.9-0.6-2.9-0.6c-2.7,0-5.2,1.6-6.4,4.1c-1.6,3.5,0,7.7,3.5,9.3c0.9,0.4,1.9,0.6,2.9,0.6
		c2.7,0,5.2-1.6,6.4-4.1c0.8-1.7,0.8-3.6,0.2-5.4C339.2,165.1,337.9,163.7,336.2,163z M336.3,170.7c-0.5,1.1-1.7,1.9-2.9,1.9
		c-0.5,0-0.9-0.1-1.3-0.3c-1.6-0.7-2.3-2.6-1.6-4.2c0.5-1.1,1.7-1.9,2.9-1.9c0.5,0,0.9,0.1,1.3,0.3c0.8,0.4,1.4,1,1.7,1.8
		C336.6,169,336.6,169.9,336.3,170.7z"/>
	<path class="st0" d="M336.2,163c-0.9-0.4-1.9-0.6-2.9-0.6c-2.7,0-5.2,1.6-6.4,4.1c-1.6,3.5,0,7.7,3.5,9.3c0.9,0.4,1.9,0.6,2.9,0.6
		c2.7,0,5.2-1.6,6.4-4.1c0.8-1.7,0.8-3.6,0.2-5.4C339.2,165.1,337.9,163.7,336.2,163z M336.3,170.7c-0.5,1.1-1.7,1.9-2.9,1.9
		c-0.5,0-0.9-0.1-1.3-0.3c-1.6-0.7-2.3-2.6-1.6-4.2c0.5-1.1,1.7-1.9,2.9-1.9c0.5,0,0.9,0.1,1.3,0.3c0.8,0.4,1.4,1,1.7,1.8
		C336.6,169,336.6,169.9,336.3,170.7z"/>
	<path class="st0" d="M118.8,345.1c-0.1-0.7-0.5-1.2-1.1-1.5c-0.6-0.3-1.3-0.2-1.8,0.2l-16.7,11.2c0,0,0,0-0.1,0
		c-2.4,1.5-4.3,3.7-5.5,6.3c-1.6,3.6-1.7,7.5-0.4,11.2c1.4,3.7,4.1,6.5,7.6,8.2c1.9,0.9,3.9,1.3,6,1.3c0,0,0,0,0,0
		c5.7,0,11-3.4,13.3-8.6c1.2-2.7,1.6-5.7,1.1-8.5L118.8,345.1z M116.8,371.7c-1.7,3.9-5.6,6.4-9.9,6.4h0c-1.5,0-3-0.3-4.4-1
		c-2.6-1.2-4.6-3.3-5.7-6c-1-2.7-0.9-5.6,0.3-8.3c0.9-2,2.3-3.6,4.1-4.7c0.1,0,0.1-0.1,0.2-0.1l14-9.4l2.2,16.8
		C118,367.5,117.8,369.7,116.8,371.7z"/>
	<path class="st0" d="M118.8,345.1c-0.1-0.7-0.5-1.2-1.1-1.5c-0.6-0.3-1.3-0.2-1.8,0.2l-16.7,11.2c0,0,0,0-0.1,0
		c-2.4,1.5-4.3,3.7-5.5,6.3c-1.6,3.6-1.7,7.5-0.4,11.2c1.4,3.7,4.1,6.5,7.6,8.2c1.9,0.9,3.9,1.3,6,1.3c0,0,0,0,0,0
		c5.7,0,11-3.4,13.3-8.6c1.2-2.7,1.6-5.7,1.1-8.5L118.8,345.1z M116.8,371.7c-1.7,3.9-5.6,6.4-9.9,6.4h0c-1.5,0-3-0.3-4.4-1
		c-2.6-1.2-4.6-3.3-5.7-6c-1-2.7-0.9-5.6,0.3-8.3c0.9-2,2.3-3.6,4.1-4.7c0.1,0,0.1-0.1,0.2-0.1l14-9.4l2.2,16.8
		C118,367.5,117.8,369.7,116.8,371.7z"/>
	<path class="st0" d="M109.8,361c-0.9-0.4-1.9-0.6-2.9-0.6c-2.7,0-5.2,1.6-6.4,4.1c-1.6,3.5,0,7.7,3.5,9.3c0.9,0.4,1.9,0.6,2.9,0.6
		c2.7,0,5.2-1.6,6.4-4.1C114.9,366.8,113.3,362.6,109.8,361z M109.9,368.7c-0.5,1.1-1.7,1.9-2.9,1.9c-0.5,0-0.9-0.1-1.3-0.3
		c-1.6-0.7-2.3-2.6-1.6-4.2c0.5-1.1,1.7-1.9,2.9-1.9c0.5,0,0.9,0.1,1.3,0.3C109.9,365.2,110.6,367.1,109.9,368.7z"/>
	<path class="st0" d="M109.8,361c-0.9-0.4-1.9-0.6-2.9-0.6c-2.7,0-5.2,1.6-6.4,4.1c-1.6,3.5,0,7.7,3.5,9.3c0.9,0.4,1.9,0.6,2.9,0.6
		c2.7,0,5.2-1.6,6.4-4.1C114.9,366.8,113.3,362.6,109.8,361z M109.9,368.7c-0.5,1.1-1.7,1.9-2.9,1.9c-0.5,0-0.9-0.1-1.3-0.3
		c-1.6-0.7-2.3-2.6-1.6-4.2c0.5-1.1,1.7-1.9,2.9-1.9c0.5,0,0.9,0.1,1.3,0.3C109.9,365.2,110.6,367.1,109.9,368.7z"/>
	<path class="st0" d="M47.7,103.4c-5.9,0-10.7,4.8-10.7,10.7c0,5.9,4.8,10.7,10.7,10.7c5.9,0,10.7-4.8,10.7-10.7
		C58.3,108.2,53.6,103.4,47.7,103.4z M47.7,120.9c-3.8,0-6.8-3.1-6.8-6.8c0-3.8,3.1-6.8,6.8-6.8c3.8,0,6.8,3.1,6.8,6.8
		C54.5,117.8,51.4,120.9,47.7,120.9z"/>
	<path class="st0" d="M47.7,103.4c-5.9,0-10.7,4.8-10.7,10.7c0,5.9,4.8,10.7,10.7,10.7c5.9,0,10.7-4.8,10.7-10.7
		C58.3,108.2,53.6,103.4,47.7,103.4z M47.7,120.9c-3.8,0-6.8-3.1-6.8-6.8c0-3.8,3.1-6.8,6.8-6.8c3.8,0,6.8,3.1,6.8,6.8
		C54.5,117.8,51.4,120.9,47.7,120.9z"/>
	<path class="st0" d="M16.3,234.9c-5.9,0-10.7,4.8-10.7,10.7c0,5.9,4.8,10.7,10.7,10.7c5.9,0,10.7-4.8,10.7-10.7
		C27,239.7,22.2,234.9,16.3,234.9z M16.3,252.4c-3.8,0-6.8-3.1-6.8-6.8c0-3.8,3.1-6.8,6.8-6.8c3.8,0,6.8,3.1,6.8,6.8
		C23.1,249.3,20.1,252.4,16.3,252.4z"/>
	<path class="st0" d="M16.3,234.9c-5.9,0-10.7,4.8-10.7,10.7c0,5.9,4.8,10.7,10.7,10.7c5.9,0,10.7-4.8,10.7-10.7
		C27,239.7,22.2,234.9,16.3,234.9z M16.3,252.4c-3.8,0-6.8-3.1-6.8-6.8c0-3.8,3.1-6.8,6.8-6.8c3.8,0,6.8,3.1,6.8,6.8
		C23.1,249.3,20.1,252.4,16.3,252.4z"/>
	<path class="st0" d="M276.1,350.2c-5.9,0-10.7,4.8-10.7,10.7c0,5.9,4.8,10.7,10.7,10.7s10.7-4.8,10.7-10.7
		C286.7,354.9,281.9,350.2,276.1,350.2z M276.1,367.6c-3.8,0-6.8-3.1-6.8-6.8c0-3.8,3.1-6.8,6.8-6.8s6.8,3.1,6.8,6.8
		C282.9,364.6,279.8,367.6,276.1,367.6z"/>
	<path class="st0" d="M276.1,350.2c-5.9,0-10.7,4.8-10.7,10.7c0,5.9,4.8,10.7,10.7,10.7s10.7-4.8,10.7-10.7
		C286.7,354.9,281.9,350.2,276.1,350.2z M276.1,367.6c-3.8,0-6.8-3.1-6.8-6.8c0-3.8,3.1-6.8,6.8-6.8s6.8,3.1,6.8,6.8
		C282.9,364.6,279.8,367.6,276.1,367.6z"/>
	<path class="st0" d="M374.4,213.9c0-5.9-4.8-10.7-10.7-10.7S353,208,353,213.9c0,5.9,4.8,10.7,10.7,10.7S374.4,219.8,374.4,213.9z
		 M356.9,213.9c0-3.8,3.1-6.8,6.8-6.8s6.8,3.1,6.8,6.8c0,3.8-3.1,6.8-6.8,6.8S356.9,217.7,356.9,213.9z"/>
	<path class="st0" d="M374.4,213.9c0-5.9-4.8-10.7-10.7-10.7S353,208,353,213.9c0,5.9,4.8,10.7,10.7,10.7S374.4,219.8,374.4,213.9z
		 M356.9,213.9c0-3.8,3.1-6.8,6.8-6.8s6.8,3.1,6.8,6.8c0,3.8-3.1,6.8-6.8,6.8S356.9,217.7,356.9,213.9z"/>
	<path class="st0" d="M311.8,41.5c5.9,0,10.7-4.8,10.7-10.7c0-5.9-4.8-10.7-10.7-10.7s-10.7,4.8-10.7,10.7
		C301.2,36.7,306,41.5,311.8,41.5z M311.8,24c3.8,0,6.8,3.1,6.8,6.8c0,3.8-3.1,6.8-6.8,6.8s-6.8-3.1-6.8-6.8
		C305,27,308.1,24,311.8,24z"/>
	<path class="st0" d="M311.8,41.5c5.9,0,10.7-4.8,10.7-10.7c0-5.9-4.8-10.7-10.7-10.7s-10.7,4.8-10.7,10.7
		C301.2,36.7,306,41.5,311.8,41.5z M311.8,24c3.8,0,6.8,3.1,6.8,6.8c0,3.8-3.1,6.8-6.8,6.8s-6.8-3.1-6.8-6.8
		C305,27,308.1,24,311.8,24z"/>
	<path class="st0" d="M179.9,275.2l-2.2,2.1c0.9,0.9,1.7,1.8,2.5,2.8l2.3-1.9C181.7,277.2,180.8,276.2,179.9,275.2z"/>
	<path class="st0" d="M179.9,275.2l-2.2,2.1c0.9,0.9,1.7,1.8,2.5,2.8l2.3-1.9C181.7,277.2,180.8,276.2,179.9,275.2z"/>
	<path class="st0" d="M172.1,272.5c0,0,1.2,0.8,2.9,2.3l2-2.3c-1.8-1.6-3.2-2.5-3.2-2.5L172.1,272.5z"/>
	<path class="st0" d="M172.1,272.5c0,0,1.2,0.8,2.9,2.3l2-2.3c-1.8-1.6-3.2-2.5-3.2-2.5L172.1,272.5z"/>
	<path class="st0" d="M182.3,283.1c0.7,1.1,1.3,2.1,1.8,3.2l2.7-1.3c-0.6-1.2-1.2-2.4-2-3.5L182.3,283.1z"/>
	<path class="st0" d="M182.3,283.1c0.7,1.1,1.3,2.1,1.8,3.2l2.7-1.3c-0.6-1.2-1.2-2.4-2-3.5L182.3,283.1z"/>
	<path class="st0" d="M140,325.2c1.2,0.5,2.5,1,3.8,1.4l0.8-2.9c-1.2-0.4-2.4-0.8-3.5-1.2L140,325.2z"/>
	<path class="st0" d="M140,325.2c1.2,0.5,2.5,1,3.8,1.4l0.8-2.9c-1.2-0.4-2.4-0.8-3.5-1.2L140,325.2z"/>
	<path class="st0" d="M147.7,327.5c1.3,0.2,2.6,0.4,4,0.5l0.3-3c-1.3-0.1-2.5-0.3-3.7-0.5L147.7,327.5z"/>
	<path class="st0" d="M147.7,327.5c1.3,0.2,2.6,0.4,4,0.5l0.3-3c-1.3-0.1-2.5-0.3-3.7-0.5L147.7,327.5z"/>
	<polygon class="st0" points="128.8,314.2 130.2,313.5 130.2,313.5 	"/>
	<polygon class="st0" points="128.8,314.2 130.2,313.5 130.2,313.5 	"/>
	<path class="st0" d="M127.5,314.9c0,0.1,0.8,1.5,2.5,3.4l2.2-2c-1.4-1.6-2.1-2.7-2.1-2.8L127.5,314.9z"/>
	<path class="st0" d="M127.5,314.9c0,0.1,0.8,1.5,2.5,3.4l2.2-2c-1.4-1.6-2.1-2.7-2.1-2.8L127.5,314.9z"/>
	<path class="st0" d="M133.1,321.1c1,0.8,2.2,1.6,3.4,2.3l1.5-2.6c-1.1-0.6-2.1-1.3-3-2.1L133.1,321.1z"/>
	<path class="st0" d="M133.1,321.1c1,0.8,2.2,1.6,3.4,2.3l1.5-2.6c-1.1-0.6-2.1-1.3-3-2.1L133.1,321.1z"/>
	<polygon class="st0" points="130.2,313.5 130.2,313.5 130.2,313.5 	"/>
	<polygon class="st0" points="130.2,313.5 130.2,313.5 130.2,313.5 	"/>
	<path class="st0" d="M232.9,303.1c-2.8-0.7-5.6-1.6-8.2-2.7c-1-0.4-2.1,0-2.5,1c-0.4,1,0,2.1,1,2.5c2.9,1.2,5.8,2.2,8.8,2.9
		c0.1,0,0.3,0.1,0.4,0.1c0.9,0,1.6-0.6,1.8-1.5C234.5,304.3,233.9,303.3,232.9,303.1z"/>
	<path class="st0" d="M232.9,303.1c-2.8-0.7-5.6-1.6-8.2-2.7c-1-0.4-2.1,0-2.5,1c-0.4,1,0,2.1,1,2.5c2.9,1.2,5.8,2.2,8.8,2.9
		c0.1,0,0.3,0.1,0.4,0.1c0.9,0,1.6-0.6,1.8-1.5C234.5,304.3,233.9,303.3,232.9,303.1z"/>
	<path class="st0" d="M281.2,290.1c-2.1,2-4.4,3.8-6.8,5.4c-0.9,0.6-1.1,1.8-0.5,2.6c0.4,0.5,1,0.8,1.6,0.8c0.4,0,0.7-0.1,1.1-0.3
		c2.6-1.7,5-3.7,7.3-5.8c0.8-0.7,0.8-1.9,0.1-2.7C283.1,289.4,281.9,289.4,281.2,290.1z"/>
	<path class="st0" d="M281.2,290.1c-2.1,2-4.4,3.8-6.8,5.4c-0.9,0.6-1.1,1.8-0.5,2.6c0.4,0.5,1,0.8,1.6,0.8c0.4,0,0.7-0.1,1.1-0.3
		c2.6-1.7,5-3.7,7.3-5.8c0.8-0.7,0.8-1.9,0.1-2.7C283.1,289.4,281.9,289.4,281.2,290.1z"/>
	<path class="st0" d="M294.2,275.6c-0.9-0.5-2.1-0.1-2.6,0.8c-1.3,2.6-2.9,5-4.7,7.3c-0.6,0.8-0.5,2,0.4,2.7
		c0.3,0.3,0.7,0.4,1.2,0.4c0.6,0,1.1-0.3,1.5-0.7c1.9-2.5,3.6-5.1,5-7.8C295.5,277.2,295.1,276.1,294.2,275.6z"/>
	<path class="st0" d="M294.2,275.6c-0.9-0.5-2.1-0.1-2.6,0.8c-1.3,2.6-2.9,5-4.7,7.3c-0.6,0.8-0.5,2,0.4,2.7
		c0.3,0.3,0.7,0.4,1.2,0.4c0.6,0,1.1-0.3,1.5-0.7c1.9-2.5,3.6-5.1,5-7.8C295.5,277.2,295.1,276.1,294.2,275.6z"/>
	<path class="st0" d="M266.8,299.8c-2.6,1.2-5.4,2.2-8.2,2.9c-1,0.3-1.6,1.3-1.3,2.3c0.2,0.8,1,1.4,1.8,1.4c0.2,0,0.3,0,0.5-0.1
		c3-0.8,5.9-1.9,8.8-3.1c1-0.4,1.4-1.6,0.9-2.5C268.9,299.8,267.8,299.3,266.8,299.8z"/>
	<path class="st0" d="M266.8,299.8c-2.6,1.2-5.4,2.2-8.2,2.9c-1,0.3-1.6,1.3-1.3,2.3c0.2,0.8,1,1.4,1.8,1.4c0.2,0,0.3,0,0.5-0.1
		c3-0.8,5.9-1.9,8.8-3.1c1-0.4,1.4-1.6,0.9-2.5C268.9,299.8,267.8,299.3,266.8,299.8z"/>
	<path class="st0" d="M298.5,240.5c-1,0.2-1.7,1.2-1.5,2.2c0.5,2.8,0.8,5.7,0.8,8.6c0,1,0.9,1.9,1.9,1.9c0,0,0,0,0,0
		c1,0,1.9-0.9,1.9-1.9c0-3.1-0.3-6.2-0.8-9.3C300.5,241,299.5,240.3,298.5,240.5z"/>
	<path class="st0" d="M298.5,240.5c-1,0.2-1.7,1.2-1.5,2.2c0.5,2.8,0.8,5.7,0.8,8.6c0,1,0.9,1.9,1.9,1.9c0,0,0,0,0,0
		c1,0,1.9-0.9,1.9-1.9c0-3.1-0.3-6.2-0.8-9.3C300.5,241,299.5,240.3,298.5,240.5z"/>
	<path class="st0" d="M296.5,235.6c0.2,0,0.4,0,0.6-0.1c1-0.3,1.5-1.4,1.2-2.4c-1-2.9-2.3-5.8-3.8-8.5c-0.5-0.9-1.7-1.3-2.6-0.7
		c-0.9,0.5-1.3,1.7-0.7,2.6c1.4,2.5,2.6,5.2,3.5,7.9C295,235.1,295.8,235.6,296.5,235.6z"/>
	<path class="st0" d="M296.5,235.6c0.2,0,0.4,0,0.6-0.1c1-0.3,1.5-1.4,1.2-2.4c-1-2.9-2.3-5.8-3.8-8.5c-0.5-0.9-1.7-1.3-2.6-0.7
		c-0.9,0.5-1.3,1.7-0.7,2.6c1.4,2.5,2.6,5.2,3.5,7.9C295,235.1,295.8,235.6,296.5,235.6z"/>
	<path class="st0" d="M250.1,304.2c-1.7,0.2-3.4,0.2-5,0.2c-1.2,0-2.4,0-3.6-0.1c-1.1-0.1-2,0.7-2,1.8c-0.1,1,0.7,2,1.8,2
		c1.3,0.1,2.6,0.2,3.9,0.1c1.8,0,3.6-0.1,5.4-0.3c1-0.1,1.8-1,1.7-2.1C252.1,304.9,251.2,304.1,250.1,304.2z"/>
	<path class="st0" d="M250.1,304.2c-1.7,0.2-3.4,0.2-5,0.2c-1.2,0-2.4,0-3.6-0.1c-1.1-0.1-2,0.7-2,1.8c-0.1,1,0.7,2,1.8,2
		c1.3,0.1,2.6,0.2,3.9,0.1c1.8,0,3.6-0.1,5.4-0.3c1-0.1,1.8-1,1.7-2.1C252.1,304.9,251.2,304.1,250.1,304.2z"/>
	<path class="st0" d="M299.3,258.4c-1-0.2-2,0.5-2.2,1.6c-0.4,2.9-1.1,5.7-2,8.4c-0.3,1,0.2,2.1,1.2,2.4c0.2,0.1,0.4,0.1,0.6,0.1
		c0.8,0,1.5-0.5,1.8-1.3c1-2.9,1.7-6,2.2-9C301,259.5,300.3,258.5,299.3,258.4z"/>
	<path class="st0" d="M299.3,258.4c-1-0.2-2,0.5-2.2,1.6c-0.4,2.9-1.1,5.7-2,8.4c-0.3,1,0.2,2.1,1.2,2.4c0.2,0.1,0.4,0.1,0.6,0.1
		c0.8,0,1.5-0.5,1.8-1.3c1-2.9,1.7-6,2.2-9C301,259.5,300.3,258.5,299.3,258.4z"/>
	<path class="st0" d="M197.9,224.2c-0.9-0.5-2.1-0.2-2.6,0.8c-1.5,2.7-2.7,5.6-3.7,8.5c-0.3,1,0.2,2.1,1.2,2.4
		c0.2,0.1,0.4,0.1,0.6,0.1c0.8,0,1.5-0.5,1.8-1.3c0.9-2.7,2.1-5.4,3.5-7.9C199.2,225.9,198.8,224.7,197.9,224.2z"/>
	<path class="st0" d="M197.9,224.2c-0.9-0.5-2.1-0.2-2.6,0.8c-1.5,2.7-2.7,5.6-3.7,8.5c-0.3,1,0.2,2.1,1.2,2.4
		c0.2,0.1,0.4,0.1,0.6,0.1c0.8,0,1.5-0.5,1.8-1.3c0.9-2.7,2.1-5.4,3.5-7.9C199.2,225.9,198.8,224.7,197.9,224.2z"/>
	<path class="st0" d="M231.5,200.8c0.2,0,0.3,0,0.5-0.1c2.8-0.7,5.7-1.2,8.6-1.5c1-0.1,1.8-1,1.7-2.1c-0.1-1-1-1.8-2.1-1.7
		c-3.1,0.3-6.2,0.8-9.2,1.6c-1,0.3-1.6,1.3-1.4,2.3C229.8,200.3,230.6,200.8,231.5,200.8z"/>
	<path class="st0" d="M231.5,200.8c0.2,0,0.3,0,0.5-0.1c2.8-0.7,5.7-1.2,8.6-1.5c1-0.1,1.8-1,1.7-2.1c-0.1-1-1-1.8-2.1-1.7
		c-3.1,0.3-6.2,0.8-9.2,1.6c-1,0.3-1.6,1.3-1.4,2.3C229.8,200.3,230.6,200.8,231.5,200.8z"/>
	<path class="st0" d="M216.9,296.3c-2.4-1.5-4.8-3.3-6.9-5.2c-0.8-0.7-2-0.6-2.7,0.2c-0.7,0.8-0.6,2,0.2,2.7
		c2.3,2.1,4.8,3.9,7.4,5.6c0.3,0.2,0.7,0.3,1,0.3c0.6,0,1.2-0.3,1.6-0.9C218.1,298.1,217.8,296.9,216.9,296.3z"/>
	<path class="st0" d="M216.9,296.3c-2.4-1.5-4.8-3.3-6.9-5.2c-0.8-0.7-2-0.6-2.7,0.2c-0.7,0.8-0.6,2,0.2,2.7
		c2.3,2.1,4.8,3.9,7.4,5.6c0.3,0.2,0.7,0.3,1,0.3c0.6,0,1.2-0.3,1.6-0.9C218.1,298.1,217.8,296.9,216.9,296.3z"/>
	<path class="st0" d="M249.2,199.3c2.9,0.2,5.8,0.7,8.6,1.4c0.2,0,0.3,0.1,0.5,0.1c0.9,0,1.6-0.6,1.8-1.4c0.3-1-0.4-2-1.4-2.3
		c-3-0.7-6.1-1.2-9.2-1.5c-1.1-0.1-2,0.7-2,1.7C247.3,198.3,248.1,199.2,249.2,199.3z"/>
	<path class="st0" d="M249.2,199.3c2.9,0.2,5.8,0.7,8.6,1.4c0.2,0,0.3,0.1,0.5,0.1c0.9,0,1.6-0.6,1.8-1.4c0.3-1-0.4-2-1.4-2.3
		c-3-0.7-6.1-1.2-9.2-1.5c-1.1-0.1-2,0.7-2,1.7C247.3,198.3,248.1,199.2,249.2,199.3z"/>
	<path class="st0" d="M215.1,208.1c0.4,0,0.7-0.1,1-0.3c2.4-1.6,5-3,7.6-4.2c1-0.4,1.4-1.5,1-2.5c-0.4-1-1.5-1.4-2.5-1
		c-2.8,1.3-5.6,2.8-8.2,4.5c-0.9,0.6-1.1,1.8-0.5,2.6C213.9,207.8,214.5,208.1,215.1,208.1z"/>
	<path class="st0" d="M215.1,208.1c0.4,0,0.7-0.1,1-0.3c2.4-1.6,5-3,7.6-4.2c1-0.4,1.4-1.5,1-2.5c-0.4-1-1.5-1.4-2.5-1
		c-2.8,1.3-5.6,2.8-8.2,4.5c-0.9,0.6-1.1,1.8-0.5,2.6C213.9,207.8,214.5,208.1,215.1,208.1z"/>
	<path class="st0" d="M209.3,213.1c0.8-0.7,0.8-1.9,0.1-2.7s-1.9-0.8-2.7-0.1c-2.3,2.1-4.4,4.4-6.3,6.9c-0.6,0.8-0.5,2,0.3,2.7
		c0.3,0.3,0.8,0.4,1.2,0.4c0.6,0,1.1-0.3,1.5-0.7C205.2,217.2,207.2,215.1,209.3,213.1z"/>
	<path class="st0" d="M209.3,213.1c0.8-0.7,0.8-1.9,0.1-2.7s-1.9-0.8-2.7-0.1c-2.3,2.1-4.4,4.4-6.3,6.9c-0.6,0.8-0.5,2,0.3,2.7
		c0.3,0.3,0.8,0.4,1.2,0.4c0.6,0,1.1-0.3,1.5-0.7C205.2,217.2,207.2,215.1,209.3,213.1z"/>
	<path class="st0" d="M191.5,241c-1-0.2-2,0.5-2.2,1.6c-0.5,3-0.8,6.2-0.8,9.3c0,0.3,0,0.7,0,1c0,1,0.9,1.9,1.9,1.9c0,0,0,0,0,0
		c1,0,1.9-0.9,1.9-1.9c0-0.3,0-0.7,0-1c0-2.9,0.2-5.8,0.7-8.6C193.3,242.1,192.6,241.1,191.5,241z"/>
	<path class="st0" d="M191.5,241c-1-0.2-2,0.5-2.2,1.6c-0.5,3-0.8,6.2-0.8,9.3c0,0.3,0,0.7,0,1c0,1,0.9,1.9,1.9,1.9c0,0,0,0,0,0
		c1,0,1.9-0.9,1.9-1.9c0-0.3,0-0.7,0-1c0-2.9,0.2-5.8,0.7-8.6C193.3,242.1,192.6,241.1,191.5,241z"/>
	<path class="st0" d="M265.9,203.4c2.6,1.1,5.2,2.5,7.7,4.1c0.3,0.2,0.7,0.3,1,0.3c0.6,0,1.2-0.3,1.6-0.9c0.6-0.9,0.3-2.1-0.6-2.6
		c-2.6-1.7-5.4-3.2-8.2-4.4c-1-0.4-2.1,0-2.5,1C264.5,201.9,265,203,265.9,203.4z"/>
	<path class="st0" d="M265.9,203.4c2.6,1.1,5.2,2.5,7.7,4.1c0.3,0.2,0.7,0.3,1,0.3c0.6,0,1.2-0.3,1.6-0.9c0.6-0.9,0.3-2.1-0.6-2.6
		c-2.6-1.7-5.4-3.2-8.2-4.4c-1-0.4-2.1,0-2.5,1C264.5,201.9,265,203,265.9,203.4z"/>
	<path class="st0" d="M310.6,208.7l2.1-2.1l-12.5-3.3l2.2-2.2l-1.9-1.9l-2.2,2.2l-3.3-12.5l-2.1,2.1l3.3,12.5l-2.1,2.1l-3.3-12.5
		l-2.1,2.1l3.3,12.5l-2.1,2.1l-3.3-12.5l-2.1,2.1l3.2,11.8L286,213c-1-1-2-2-3-3c-0.8-0.7-2-0.6-2.7,0.1c-0.7,0.8-0.6,2,0.1,2.7
		c1,0.9,2,1.9,2.9,2.8l-19.6,19.6c-4.6-5.2-11.3-8.5-18.7-8.5c-13.8,0-25,11.2-25,25c0,13.8,11.2,25,25,25c13.8,0,25-11.2,25-25
		c0-5-1.5-9.6-4-13.5l19.8-19.8c0.2,0.2,0.4,0.4,0.5,0.6c0.4,0.5,0.9,0.7,1.5,0.7c0.4,0,0.8-0.1,1.2-0.4c0.8-0.7,1-1.8,0.3-2.7
		c-0.3-0.3-0.5-0.6-0.8-1l1.7-1.7l11.8,3.2l2.1-2.1l-12.5-3.3l2.1-2.1l12.5,3.3l2.1-2.1l-12.5-3.3l2.1-2.1L310.6,208.7z
		 M266.3,251.8c0,11.7-9.5,21.2-21.2,21.2c-11.7,0-21.2-9.5-21.2-21.2c0-11.7,9.5-21.2,21.2-21.2c6.4,0,12.1,2.9,16,7.4l-14.2,14.2
		c-0.7,0.7-0.7,1.9,0,2.7c0.4,0.4,0.9,0.6,1.3,0.6s1-0.2,1.3-0.6l13.8-13.8C265.2,244.2,266.3,247.9,266.3,251.8z"/>
	<path class="st0" d="M310.6,208.7l2.1-2.1l-12.5-3.3l2.2-2.2l-1.9-1.9l-2.2,2.2l-3.3-12.5l-2.1,2.1l3.3,12.5l-2.1,2.1l-3.3-12.5
		l-2.1,2.1l3.3,12.5l-2.1,2.1l-3.3-12.5l-2.1,2.1l3.2,11.8L286,213c-1-1-2-2-3-3c-0.8-0.7-2-0.6-2.7,0.1c-0.7,0.8-0.6,2,0.1,2.7
		c1,0.9,2,1.9,2.9,2.8l-19.6,19.6c-4.6-5.2-11.3-8.5-18.7-8.5c-13.8,0-25,11.2-25,25c0,13.8,11.2,25,25,25c13.8,0,25-11.2,25-25
		c0-5-1.5-9.6-4-13.5l19.8-19.8c0.2,0.2,0.4,0.4,0.5,0.6c0.4,0.5,0.9,0.7,1.5,0.7c0.4,0,0.8-0.1,1.2-0.4c0.8-0.7,1-1.8,0.3-2.7
		c-0.3-0.3-0.5-0.6-0.8-1l1.7-1.7l11.8,3.2l2.1-2.1l-12.5-3.3l2.1-2.1l12.5,3.3l2.1-2.1l-12.5-3.3l2.1-2.1L310.6,208.7z
		 M266.3,251.8c0,11.7-9.5,21.2-21.2,21.2c-11.7,0-21.2-9.5-21.2-21.2c0-11.7,9.5-21.2,21.2-21.2c6.4,0,12.1,2.9,16,7.4l-14.2,14.2
		c-0.7,0.7-0.7,1.9,0,2.7c0.4,0.4,0.9,0.6,1.3,0.6s1-0.2,1.3-0.6l13.8-13.8C265.2,244.2,266.3,247.9,266.3,251.8z"/>
	<path class="st0" d="M286.2,175.6l-1.2-13.2c7.9-5.6,9.3-11.8,9-16.1c0-0.2-0.1-0.5-0.1-0.7h48V97.5c1.1-1.3,1.9-3,2.1-4.8h39.6
		c1,0,1.9-0.9,1.9-1.9V73c0-1-0.9-1.9-1.9-1.9h-48.3c-1,0-1.9,0.9-1.9,1.9v1.2h-27.8c-1,0-1.9,0.9-1.9,1.9v0.6h-8.2l-1.2-7.5
		c0.2,0,0.4-0.1,0.6-0.2l0,0l0,0c5.7-1.6,9.8-6.8,9.8-13c0-7.4-6-13.5-13.5-13.5c-5.8,0-10.7,3.8-12.8,9.6c-5.5-4.1-12.1-6.3-19-6.3
		c-17.1,0-31,13.5-31.7,30.4c-0.9-0.1-1.8-0.2-2.7-0.2c-8.3,0-15.1,6.3-16,14.3c0,0,0,0,0,0c-6.4,0-11.5,5.2-11.5,11.5
		c0,6.3,5.2,11.5,11.5,11.5c4.4,0,8.3-2.5,10.2-6.2c1.8,0.7,3.8,1.1,5.8,1.1c4.9,0,9.4-2.2,12.3-5.7c3.5,2.7,8,4.6,13.6,5.8
		c2.4,0.5,4.5,0.8,6.4,0.8c2.5,0,4.3-0.4,5.5-1c1.4,3.3,4.1,5.8,7.5,6.9v8.3v0.4v1.2l1.1,0.5c12.3,6,18.2,14.9,18.6,21.1
		c0.3,5-2.4,9.5-8.2,13.3l-1,0.6l1.2,13.1c-9.6-4.5-20.1-7.4-31.2-8.1c-1.5-7.1-4-12-4.2-12.4l-3.4,1.8c0,0.1,2.2,4.3,3.6,10.4
		c-0.6,0-1.3,0-1.9,0c-4.6,0-9.1,0.4-13.5,1.1c0-0.3,0-0.6,0.1-0.9c0.4-4.5,0.9-10.7,1.1-11.6c1.6-5.4,6.4-8.2,11.4-11.2
		c2.5-1.5,5.1-3,7.3-4.9c4.9-4.2,7.4-10.2,6-14.3c-0.8-2.4-2.8-3.7-5.5-3.7c-2.2,0-4.9,0.9-8,2.7c-9.4,5.6-19.5,13.7-28.3,22.9
		l-0.5,0.5l-2.7,25.7c-11.6,4.7-22,11.9-30.5,21v-5c0-1-0.9-1.9-1.9-1.9s-1.9,0.9-1.9,1.9v9c0,0.1,0,0.2,0,0.3
		c-11.6,14-18.8,31.7-19.6,51.1c-1.7-0.2-3.4-0.3-5.1-0.3c-1.3,0-2.5,0.1-3.8,0.2c0,0,0,0,0-0.1c0-1-0.9-1.9-1.9-1.9h-32.2
		c-1,0-1.9,0.9-1.9,1.9c0,1,0.9,1.9,1.9,1.9h23.9c-12.5,3.6-23.4,11.7-30.2,23.1c-1,1.7-1.9,3.4-2.6,5.1h-2.8v-0.9
		c0-1-0.9-1.9-1.9-1.9s-1.9,0.9-1.9,1.9v2.8c0,1,0.9,1.9,1.9,1.9h3.2c-2.7,7.5-3.5,15.3-2.7,23l-65.2,16.6c-0.5,0.1-0.9,0.4-1.2,0.9
		c-0.3,0.4-0.3,1-0.2,1.4l2.5,9.7c0.2,0.9,1,1.4,1.8,1.4c0.2,0,0.3,0,0.5-0.1l61.8-15.7c1-0.3,1.6-1.3,1.4-2.3
		c-0.3-1-1.3-1.6-2.3-1.4l-60,15.2l-1.5-6l63-16c2.6,14,11,26.9,24.2,34.7c7.9,4.7,17,7.2,26.2,7.2c18,0,35-9.6,44.2-25.1
		c0.2-0.3,0.3-0.6,0.5-0.9c13.6,8.8,29.7,14,47.1,14c47.7,0,86.6-38.8,86.6-86.6C331.6,218.9,313.2,190.3,286.2,175.6z M339.3,94.5
		h-11.7c-0.6-0.9-0.9-1.9-0.9-3c0-0.7,0.1-1.4,0.4-2h6.4v1.2c0,1,0.9,1.9,1.9,1.9h4.7C340,93.3,339.7,93.9,339.3,94.5z M337.3,74.9
		h44.5v13.9h-44.5v-1.2V76.2V74.9z M333.5,85.7h-25.6c0.1-0.2,0.1-0.4,0.1-0.6v-6.4c0-0.2,0-0.4-0.1-0.6h25.6V85.7z M303.8,83.2H294
		v-2.6h9.8V83.2z M209,109.9c-4.4,0-7.9-3.5-7.9-7.9c0-4.4,3.6-7.9,7.9-7.9c0,0,0,0,0,0c0.5,4.8,3.2,9,7,11.5
		C214.7,108.1,212.1,109.9,209,109.9z M225.1,104.8c-6.9,0-12.5-5.6-12.5-12.5c0-6.9,5.6-12.5,12.5-12.5s12.5,5.6,12.5,12.5
		C237.6,99.2,232,104.8,225.1,104.8z M265.8,104.9c-0.1-0.8-0.7-1.5-1.5-1.6c-0.1,0-0.2,0-0.3,0c-0.7,0-1.2,0.3-1.5,0.9
		c-0.2,0.2-1.4,1.3-5,1.3c-1.6,0-3.6-0.2-5.7-0.7c-5.2-1.1-9.3-2.8-12.4-5.2c1.2-2.2,1.8-4.7,1.8-7.4c0-6.7-4.1-12.4-9.9-14.8
		c0.2-15.4,12.7-27.8,28.2-27.8c6.6,0,13,2.3,18,6.5c0.4,0.7,1.1,1,1.7,1c1.6,0,2-1.7,2.2-2.5c1.1-4.2,4.5-8.4,9.8-8.4
		c5.5,0,9.9,4.4,9.9,9.9c0,4.4-2.9,8.2-7,9.4L264.6,71c-4.1-1.2-3.6-6.7-3.5-6.9l-1.7-0.2l-1.9-0.2c-0.3,2.9,0.4,8.6,5.4,10.6
		c0.1,0.6,0.2,1.4,0.2,2.4c-2.6,0.4-5.3-1.7-5.4-1.8l0,0l0,0c0,0,0,0,0,0l-1,1.3l-1.2,1.5c0.2,0.1,3.4,2.5,7,2.5c0.2,0,0.4,0,0.7,0
		c-0.1,3.8-0.8,8.4-3.3,11.3c-1.7,2.1-4.1,3.1-7.2,3.1l0,3.6c4.2,0,7.5-1.5,9.9-4.4c4.8-5.8,4.3-15.5,3.9-19.5l24.3-4.5l1.1,7
		c-1,0.1-1.8,0.9-1.8,1.9v6.4c0,1,0.9,1.9,1.9,1.9h1.5l1.3,8.1l-9.1,2.2l0.8,3.5l8.8-2.1c0.7,4.6-2.4,8.8-6.9,9.6
		c-0.1,0-0.1,0-0.2,0l-12.9,3.6c-0.4,0.1-0.8,0.1-1.2,0.1C269.9,112,266.4,109,265.8,104.9z M274.4,122.5v-7c0.5,0,1-0.1,1.5-0.1
		c0.1,0,0.1,0,0.2,0l13-3.6c6.4-1.1,10.8-7.2,9.8-13.7L297.1,87h6.6v0.6c0,1,0.9,1.9,1.9,1.9h17.4c-0.1,0.6-0.2,1.3-0.2,2
		c0,1.6,0.4,3.2,1.2,4.5v32.3l-40.3-0.2l0,0.7C280.8,126.4,277.6,124.2,274.4,122.5z M287,132.1l40.9,0.2v-24H338v33.4h-45
		C291.9,138.3,289.7,135,287,132.1z M218.8,147.6c8.5-8.8,18-16.5,27-21.8c3.1-1.8,5-2.2,6.1-2.2c1.3,0,1.7,0.6,1.9,1.1
		c0.8,2.2-0.9,6.6-4.9,10c-2,1.7-4.3,3.1-6.8,4.5c-5.4,3.2-11.1,6.6-13.1,13.4c-0.3,1-0.6,4.5-1.2,12.4c0,0.6-0.1,1.3-0.2,1.9
		c-3.8,0.8-7.5,1.8-11.1,3.1L218.8,147.6z M153.3,346.6c-8.5,0-16.9-2.3-24.3-6.7c-20.4-12.1-28.4-37.3-19.8-58.7
		c0.4-0.3,0.7-0.9,0.7-1.4c0,0,0,0,0-0.1c0.8-1.7,1.6-3.3,2.6-5c8.5-14.3,24.2-23.2,40.9-23.2c8.5,0,16.9,2.3,24.3,6.7
		c10.9,6.5,18.6,16.8,21.8,29.1c3.1,12.3,1.3,25.1-5.2,36C185.7,337.7,170,346.6,153.3,346.6z M245.1,334.6
		c-16.7,0-32.3-5-45.3-13.5c5-10.4,6.2-22,3.7-33.4c0.1-0.1,0.2-0.1,0.3-0.2c0.8-0.7,0.9-1.9,0.3-2.7c-0.8-1-1.6-2-2.3-3.1
		c-1.5-4.3-3.6-8.4-6.2-12.1c-1-2.7-1.7-5.4-2.2-8.2c-0.2-1-1.2-1.7-2.2-1.5c-1,0.2-1.7,1.2-1.5,2.2c0,0.2,0.1,0.4,0.1,0.6
		c-3-2.9-6.3-5.5-10-7.7c-5.3-3.2-11.2-5.3-17.2-6.4c1.7-44.1,38.1-79.5,82.7-79.5c45.6,0,82.8,37.1,82.8,82.8
		C327.8,297.4,290.7,334.6,245.1,334.6z"/>
	<path class="st0" d="M139.8,248.9h6.8l0,0.1c-2.3,0.3-4.5,0.8-6.6,1.4L139.8,248.9z M327.1,105.3v-7.8h11.8v7.8H327.1z"/>
</g>
</svg>
